G04 #@! TF.GenerationSoftware,KiCad,Pcbnew,5.1.4-3.fc30*
G04 #@! TF.CreationDate,2019-12-08T15:57:42-08:00*
G04 #@! TF.ProjectId,ChristmasTree,43687269-7374-46d6-9173-547265652e6b,rev?*
G04 #@! TF.SameCoordinates,Original*
G04 #@! TF.FileFunction,Soldermask,Bot*
G04 #@! TF.FilePolarity,Negative*
%FSLAX46Y46*%
G04 Gerber Fmt 4.6, Leading zero omitted, Abs format (unit mm)*
G04 Created by KiCad (PCBNEW 5.1.4-3.fc30) date 2019-12-08 15:57:42*
%MOMM*%
%LPD*%
G04 APERTURE LIST*
%ADD10C,0.100000*%
G04 APERTURE END LIST*
D10*
G36*
X240525010Y-98321536D02*
G01*
X241626222Y-98777673D01*
X242617287Y-99439881D01*
X243460119Y-100282713D01*
X244122327Y-101273778D01*
X244578464Y-102374990D01*
X244811000Y-103544027D01*
X244811000Y-104735973D01*
X244578464Y-105905010D01*
X244122327Y-107006222D01*
X243460119Y-107997287D01*
X242617287Y-108840119D01*
X241626222Y-109502327D01*
X240525010Y-109958464D01*
X239355973Y-110191000D01*
X238164027Y-110191000D01*
X236994990Y-109958464D01*
X235893778Y-109502327D01*
X234902713Y-108840119D01*
X234059881Y-107997287D01*
X233397673Y-107006222D01*
X232941536Y-105905010D01*
X232709000Y-104735973D01*
X232709000Y-103544027D01*
X232941536Y-102374990D01*
X233397673Y-101273778D01*
X234059881Y-100282713D01*
X234902713Y-99439881D01*
X235893778Y-98777673D01*
X236994990Y-98321536D01*
X238164027Y-98089000D01*
X239355973Y-98089000D01*
X240525010Y-98321536D01*
X240525010Y-98321536D01*
G37*
G36*
X254161000Y-106741000D02*
G01*
X248959000Y-106741000D01*
X248959000Y-101539000D01*
X254161000Y-101539000D01*
X254161000Y-106741000D01*
X254161000Y-106741000D01*
G37*
G36*
X228561000Y-106741000D02*
G01*
X223359000Y-106741000D01*
X223359000Y-101539000D01*
X228561000Y-101539000D01*
X228561000Y-106741000D01*
X228561000Y-106741000D01*
G37*
G36*
X239504098Y-57999033D02*
G01*
X239968350Y-58191332D01*
X239968352Y-58191333D01*
X240386168Y-58470509D01*
X240741491Y-58825832D01*
X240876575Y-59028000D01*
X241020668Y-59243650D01*
X241212967Y-59707902D01*
X241311000Y-60200747D01*
X241311000Y-60703253D01*
X241212967Y-61196098D01*
X241091093Y-61490329D01*
X241020667Y-61660352D01*
X240741491Y-62078168D01*
X240386168Y-62433491D01*
X239968352Y-62712667D01*
X239968351Y-62712668D01*
X239968350Y-62712668D01*
X239504098Y-62904967D01*
X239011253Y-63003000D01*
X238508747Y-63003000D01*
X238015902Y-62904967D01*
X237551650Y-62712668D01*
X237551649Y-62712668D01*
X237551648Y-62712667D01*
X237133832Y-62433491D01*
X236778509Y-62078168D01*
X236499333Y-61660352D01*
X236428907Y-61490329D01*
X236307033Y-61196098D01*
X236209000Y-60703253D01*
X236209000Y-60200747D01*
X236307033Y-59707902D01*
X236499332Y-59243650D01*
X236643425Y-59028000D01*
X236778509Y-58825832D01*
X237133832Y-58470509D01*
X237551648Y-58191333D01*
X237551650Y-58191332D01*
X238015902Y-57999033D01*
X238508747Y-57901000D01*
X239011253Y-57901000D01*
X239504098Y-57999033D01*
X239504098Y-57999033D01*
G37*
M02*
