G04 #@! TF.GenerationSoftware,KiCad,Pcbnew,5.1.4-3.fc30*
G04 #@! TF.CreationDate,2019-12-08T15:57:42-08:00*
G04 #@! TF.ProjectId,ChristmasTree,43687269-7374-46d6-9173-547265652e6b,rev?*
G04 #@! TF.SameCoordinates,Original*
G04 #@! TF.FileFunction,Legend,Top*
G04 #@! TF.FilePolarity,Positive*
%FSLAX46Y46*%
G04 Gerber Fmt 4.6, Leading zero omitted, Abs format (unit mm)*
G04 Created by KiCad (PCBNEW 5.1.4-3.fc30) date 2019-12-08 15:57:42*
%MOMM*%
%LPD*%
G04 APERTURE LIST*
%ADD10C,0.150000*%
%ADD11C,0.127000*%
%ADD12C,0.200000*%
%ADD13C,0.120000*%
%ADD14C,0.050000*%
G04 APERTURE END LIST*
D10*
X211394857Y-98948761D02*
X211394857Y-96948761D01*
X211871047Y-96948761D01*
X212156761Y-97044000D01*
X212347238Y-97234476D01*
X212442476Y-97424952D01*
X212537714Y-97805904D01*
X212537714Y-98091619D01*
X212442476Y-98472571D01*
X212347238Y-98663047D01*
X212156761Y-98853523D01*
X211871047Y-98948761D01*
X211394857Y-98948761D01*
X214252000Y-98948761D02*
X214252000Y-97901142D01*
X214156761Y-97710666D01*
X213966285Y-97615428D01*
X213585333Y-97615428D01*
X213394857Y-97710666D01*
X214252000Y-98853523D02*
X214061523Y-98948761D01*
X213585333Y-98948761D01*
X213394857Y-98853523D01*
X213299619Y-98663047D01*
X213299619Y-98472571D01*
X213394857Y-98282095D01*
X213585333Y-98186857D01*
X214061523Y-98186857D01*
X214252000Y-98091619D01*
X215013904Y-97615428D02*
X215490095Y-98948761D01*
X215966285Y-97615428D01*
X216728190Y-98948761D02*
X216728190Y-97615428D01*
X216728190Y-96948761D02*
X216632952Y-97044000D01*
X216728190Y-97139238D01*
X216823428Y-97044000D01*
X216728190Y-96948761D01*
X216728190Y-97139238D01*
X218537714Y-98948761D02*
X218537714Y-96948761D01*
X218537714Y-98853523D02*
X218347238Y-98948761D01*
X217966285Y-98948761D01*
X217775809Y-98853523D01*
X217680571Y-98758285D01*
X217585333Y-98567809D01*
X217585333Y-97996380D01*
X217680571Y-97805904D01*
X217775809Y-97710666D01*
X217966285Y-97615428D01*
X218347238Y-97615428D01*
X218537714Y-97710666D01*
X219394857Y-98853523D02*
X219585333Y-98948761D01*
X219966285Y-98948761D01*
X220156761Y-98853523D01*
X220252000Y-98663047D01*
X220252000Y-98567809D01*
X220156761Y-98377333D01*
X219966285Y-98282095D01*
X219680571Y-98282095D01*
X219490095Y-98186857D01*
X219394857Y-97996380D01*
X219394857Y-97901142D01*
X219490095Y-97710666D01*
X219680571Y-97615428D01*
X219966285Y-97615428D01*
X220156761Y-97710666D01*
X221394857Y-98948761D02*
X221204380Y-98853523D01*
X221109142Y-98758285D01*
X221013904Y-98567809D01*
X221013904Y-97996380D01*
X221109142Y-97805904D01*
X221204380Y-97710666D01*
X221394857Y-97615428D01*
X221680571Y-97615428D01*
X221871047Y-97710666D01*
X221966285Y-97805904D01*
X222061523Y-97996380D01*
X222061523Y-98567809D01*
X221966285Y-98758285D01*
X221871047Y-98853523D01*
X221680571Y-98948761D01*
X221394857Y-98948761D01*
X222918666Y-97615428D02*
X222918666Y-98948761D01*
X222918666Y-97805904D02*
X223013904Y-97710666D01*
X223204380Y-97615428D01*
X223490095Y-97615428D01*
X223680571Y-97710666D01*
X223775809Y-97901142D01*
X223775809Y-98948761D01*
X224728190Y-98186857D02*
X226252000Y-98186857D01*
X227109142Y-98853523D02*
X227394857Y-98948761D01*
X227871047Y-98948761D01*
X228061523Y-98853523D01*
X228156761Y-98758285D01*
X228252000Y-98567809D01*
X228252000Y-98377333D01*
X228156761Y-98186857D01*
X228061523Y-98091619D01*
X227871047Y-97996380D01*
X227490095Y-97901142D01*
X227299619Y-97805904D01*
X227204380Y-97710666D01*
X227109142Y-97520190D01*
X227109142Y-97329714D01*
X227204380Y-97139238D01*
X227299619Y-97044000D01*
X227490095Y-96948761D01*
X227966285Y-96948761D01*
X228252000Y-97044000D01*
X228823428Y-97615428D02*
X229585333Y-97615428D01*
X229109142Y-96948761D02*
X229109142Y-98663047D01*
X229204380Y-98853523D01*
X229394857Y-98948761D01*
X229585333Y-98948761D01*
X231109142Y-98948761D02*
X231109142Y-97901142D01*
X231013904Y-97710666D01*
X230823428Y-97615428D01*
X230442476Y-97615428D01*
X230252000Y-97710666D01*
X231109142Y-98853523D02*
X230918666Y-98948761D01*
X230442476Y-98948761D01*
X230252000Y-98853523D01*
X230156761Y-98663047D01*
X230156761Y-98472571D01*
X230252000Y-98282095D01*
X230442476Y-98186857D01*
X230918666Y-98186857D01*
X231109142Y-98091619D01*
X232061523Y-97615428D02*
X232061523Y-98948761D01*
X232061523Y-97805904D02*
X232156761Y-97710666D01*
X232347238Y-97615428D01*
X232632952Y-97615428D01*
X232823428Y-97710666D01*
X232918666Y-97901142D01*
X232918666Y-98948761D01*
X234728190Y-98948761D02*
X234728190Y-96948761D01*
X234728190Y-98853523D02*
X234537714Y-98948761D01*
X234156761Y-98948761D01*
X233966285Y-98853523D01*
X233871047Y-98758285D01*
X233775809Y-98567809D01*
X233775809Y-97996380D01*
X233871047Y-97805904D01*
X233966285Y-97710666D01*
X234156761Y-97615428D01*
X234537714Y-97615428D01*
X234728190Y-97710666D01*
X236537714Y-98948761D02*
X236537714Y-97901142D01*
X236442476Y-97710666D01*
X236252000Y-97615428D01*
X235871047Y-97615428D01*
X235680571Y-97710666D01*
X236537714Y-98853523D02*
X236347238Y-98948761D01*
X235871047Y-98948761D01*
X235680571Y-98853523D01*
X235585333Y-98663047D01*
X235585333Y-98472571D01*
X235680571Y-98282095D01*
X235871047Y-98186857D01*
X236347238Y-98186857D01*
X236537714Y-98091619D01*
X237490095Y-98948761D02*
X237490095Y-97615428D01*
X237490095Y-97996380D02*
X237585333Y-97805904D01*
X237680571Y-97710666D01*
X237871047Y-97615428D01*
X238061523Y-97615428D01*
X239585333Y-98948761D02*
X239585333Y-96948761D01*
X239585333Y-98853523D02*
X239394857Y-98948761D01*
X239013904Y-98948761D01*
X238823428Y-98853523D01*
X238728190Y-98758285D01*
X238632952Y-98567809D01*
X238632952Y-97996380D01*
X238728190Y-97805904D01*
X238823428Y-97710666D01*
X239013904Y-97615428D01*
X239394857Y-97615428D01*
X239585333Y-97710666D01*
X243204380Y-98758285D02*
X243109142Y-98853523D01*
X242823428Y-98948761D01*
X242632952Y-98948761D01*
X242347238Y-98853523D01*
X242156761Y-98663047D01*
X242061523Y-98472571D01*
X241966285Y-98091619D01*
X241966285Y-97805904D01*
X242061523Y-97424952D01*
X242156761Y-97234476D01*
X242347238Y-97044000D01*
X242632952Y-96948761D01*
X242823428Y-96948761D01*
X243109142Y-97044000D01*
X243204380Y-97139238D01*
X244061523Y-98948761D02*
X244061523Y-96948761D01*
X244918666Y-98948761D02*
X244918666Y-97901142D01*
X244823428Y-97710666D01*
X244632952Y-97615428D01*
X244347238Y-97615428D01*
X244156761Y-97710666D01*
X244061523Y-97805904D01*
X245871047Y-98948761D02*
X245871047Y-97615428D01*
X245871047Y-97996380D02*
X245966285Y-97805904D01*
X246061523Y-97710666D01*
X246252000Y-97615428D01*
X246442476Y-97615428D01*
X247109142Y-98948761D02*
X247109142Y-97615428D01*
X247109142Y-96948761D02*
X247013904Y-97044000D01*
X247109142Y-97139238D01*
X247204380Y-97044000D01*
X247109142Y-96948761D01*
X247109142Y-97139238D01*
X247966285Y-98853523D02*
X248156761Y-98948761D01*
X248537714Y-98948761D01*
X248728190Y-98853523D01*
X248823428Y-98663047D01*
X248823428Y-98567809D01*
X248728190Y-98377333D01*
X248537714Y-98282095D01*
X248252000Y-98282095D01*
X248061523Y-98186857D01*
X247966285Y-97996380D01*
X247966285Y-97901142D01*
X248061523Y-97710666D01*
X248252000Y-97615428D01*
X248537714Y-97615428D01*
X248728190Y-97710666D01*
X249394857Y-97615428D02*
X250156761Y-97615428D01*
X249680571Y-96948761D02*
X249680571Y-98663047D01*
X249775809Y-98853523D01*
X249966285Y-98948761D01*
X250156761Y-98948761D01*
X250823428Y-98948761D02*
X250823428Y-97615428D01*
X250823428Y-97805904D02*
X250918666Y-97710666D01*
X251109142Y-97615428D01*
X251394857Y-97615428D01*
X251585333Y-97710666D01*
X251680571Y-97901142D01*
X251680571Y-98948761D01*
X251680571Y-97901142D02*
X251775809Y-97710666D01*
X251966285Y-97615428D01*
X252252000Y-97615428D01*
X252442476Y-97710666D01*
X252537714Y-97901142D01*
X252537714Y-98948761D01*
X254347238Y-98948761D02*
X254347238Y-97901142D01*
X254252000Y-97710666D01*
X254061523Y-97615428D01*
X253680571Y-97615428D01*
X253490095Y-97710666D01*
X254347238Y-98853523D02*
X254156761Y-98948761D01*
X253680571Y-98948761D01*
X253490095Y-98853523D01*
X253394857Y-98663047D01*
X253394857Y-98472571D01*
X253490095Y-98282095D01*
X253680571Y-98186857D01*
X254156761Y-98186857D01*
X254347238Y-98091619D01*
X255204380Y-98853523D02*
X255394857Y-98948761D01*
X255775809Y-98948761D01*
X255966285Y-98853523D01*
X256061523Y-98663047D01*
X256061523Y-98567809D01*
X255966285Y-98377333D01*
X255775809Y-98282095D01*
X255490095Y-98282095D01*
X255299619Y-98186857D01*
X255204380Y-97996380D01*
X255204380Y-97901142D01*
X255299619Y-97710666D01*
X255490095Y-97615428D01*
X255775809Y-97615428D01*
X255966285Y-97710666D01*
X258347238Y-97139238D02*
X258442476Y-97044000D01*
X258632952Y-96948761D01*
X259109142Y-96948761D01*
X259299619Y-97044000D01*
X259394857Y-97139238D01*
X259490095Y-97329714D01*
X259490095Y-97520190D01*
X259394857Y-97805904D01*
X258251999Y-98948761D01*
X259490095Y-98948761D01*
X260728190Y-96948761D02*
X260918666Y-96948761D01*
X261109142Y-97044000D01*
X261204380Y-97139238D01*
X261299619Y-97329714D01*
X261394857Y-97710666D01*
X261394857Y-98186857D01*
X261299619Y-98567809D01*
X261204380Y-98758285D01*
X261109142Y-98853523D01*
X260918666Y-98948761D01*
X260728190Y-98948761D01*
X260537714Y-98853523D01*
X260442476Y-98758285D01*
X260347238Y-98567809D01*
X260251999Y-98186857D01*
X260251999Y-97710666D01*
X260347238Y-97329714D01*
X260442476Y-97139238D01*
X260537714Y-97044000D01*
X260728190Y-96948761D01*
X263299619Y-98948761D02*
X262156761Y-98948761D01*
X262728190Y-98948761D02*
X262728190Y-96948761D01*
X262537714Y-97234476D01*
X262347238Y-97424952D01*
X262156761Y-97520190D01*
X264251999Y-98948761D02*
X264632952Y-98948761D01*
X264823428Y-98853523D01*
X264918666Y-98758285D01*
X265109142Y-98472571D01*
X265204380Y-98091619D01*
X265204380Y-97329714D01*
X265109142Y-97139238D01*
X265013904Y-97044000D01*
X264823428Y-96948761D01*
X264442476Y-96948761D01*
X264251999Y-97044000D01*
X264156761Y-97139238D01*
X264061523Y-97329714D01*
X264061523Y-97805904D01*
X264156761Y-97996380D01*
X264251999Y-98091619D01*
X264442476Y-98186857D01*
X264823428Y-98186857D01*
X265013904Y-98091619D01*
X265109142Y-97996380D01*
X265204380Y-97805904D01*
D11*
X241905000Y-106075000D02*
X241905000Y-102075000D01*
X236885000Y-106075000D02*
X236885000Y-102075000D01*
D12*
X237020000Y-108520000D02*
G75*
G03X237020000Y-108520000I-100000J0D01*
G01*
D13*
X233606078Y-117550000D02*
X233088922Y-117550000D01*
X233606078Y-116130000D02*
X233088922Y-116130000D01*
X247391422Y-116130000D02*
X247908578Y-116130000D01*
X247391422Y-117550000D02*
X247908578Y-117550000D01*
X233753922Y-83260000D02*
X234271078Y-83260000D01*
X233753922Y-81840000D02*
X234271078Y-81840000D01*
X237075000Y-67000000D02*
X239760000Y-67000000D01*
X237075000Y-65080000D02*
X237075000Y-67000000D01*
X239760000Y-65080000D02*
X237075000Y-65080000D01*
X214692500Y-77780000D02*
X212007500Y-77780000D01*
X212007500Y-77780000D02*
X212007500Y-79700000D01*
X212007500Y-79700000D02*
X214692500Y-79700000D01*
X221042500Y-89210000D02*
X218357500Y-89210000D01*
X218357500Y-89210000D02*
X218357500Y-91130000D01*
X218357500Y-91130000D02*
X221042500Y-91130000D01*
X199307500Y-122880000D02*
X201992500Y-122880000D01*
X199307500Y-120960000D02*
X199307500Y-122880000D01*
X201992500Y-120960000D02*
X199307500Y-120960000D01*
X250107500Y-70810000D02*
X252792500Y-70810000D01*
X250107500Y-68890000D02*
X250107500Y-70810000D01*
X252792500Y-68890000D02*
X250107500Y-68890000D01*
X269302500Y-98100000D02*
X266617500Y-98100000D01*
X266617500Y-98100000D02*
X266617500Y-100020000D01*
X266617500Y-100020000D02*
X269302500Y-100020000D01*
X209280000Y-98100000D02*
X206595000Y-98100000D01*
X206595000Y-98100000D02*
X206595000Y-100020000D01*
X206595000Y-100020000D02*
X209280000Y-100020000D01*
X237407500Y-120340000D02*
X240092500Y-120340000D01*
X237407500Y-118420000D02*
X237407500Y-120340000D01*
X240092500Y-118420000D02*
X237407500Y-118420000D01*
X224707500Y-70810000D02*
X227392500Y-70810000D01*
X224707500Y-68890000D02*
X224707500Y-70810000D01*
X227392500Y-68890000D02*
X224707500Y-68890000D01*
X264222500Y-77780000D02*
X261537500Y-77780000D01*
X261537500Y-77780000D02*
X261537500Y-79700000D01*
X261537500Y-79700000D02*
X264222500Y-79700000D01*
X259142500Y-89210000D02*
X256457500Y-89210000D01*
X256457500Y-89210000D02*
X256457500Y-91130000D01*
X256457500Y-91130000D02*
X259142500Y-91130000D01*
X274237500Y-122880000D02*
X276922500Y-122880000D01*
X274237500Y-120960000D02*
X274237500Y-122880000D01*
X276922500Y-120960000D02*
X274237500Y-120960000D01*
X239457500Y-77780000D02*
X236772500Y-77780000D01*
X236772500Y-77780000D02*
X236772500Y-79700000D01*
X236772500Y-79700000D02*
X239457500Y-79700000D01*
X245670000Y-136481078D02*
X245670000Y-135963922D01*
X247090000Y-136481078D02*
X247090000Y-135963922D01*
X232483922Y-94540000D02*
X233001078Y-94540000D01*
X232483922Y-95960000D02*
X233001078Y-95960000D01*
X225801422Y-120090000D02*
X226318578Y-120090000D01*
X225801422Y-118670000D02*
X226318578Y-118670000D01*
X239470000Y-69923922D02*
X239470000Y-70441078D01*
X238050000Y-69923922D02*
X238050000Y-70441078D01*
X238833922Y-92000000D02*
X239351078Y-92000000D01*
X238833922Y-93420000D02*
X239351078Y-93420000D01*
X227403922Y-78030000D02*
X227921078Y-78030000D01*
X227403922Y-79450000D02*
X227921078Y-79450000D01*
X228673922Y-90880000D02*
X229191078Y-90880000D01*
X228673922Y-89460000D02*
X229191078Y-89460000D01*
X210893922Y-116280000D02*
X211411078Y-116280000D01*
X210893922Y-114860000D02*
X211411078Y-114860000D01*
X245036078Y-74370000D02*
X244518922Y-74370000D01*
X245036078Y-72950000D02*
X244518922Y-72950000D01*
X253321078Y-94540000D02*
X252803922Y-94540000D01*
X253321078Y-95960000D02*
X252803922Y-95960000D01*
X222323922Y-95960000D02*
X222841078Y-95960000D01*
X222323922Y-94540000D02*
X222841078Y-94540000D01*
X238833922Y-112320000D02*
X239351078Y-112320000D01*
X238833922Y-113740000D02*
X239351078Y-113740000D01*
X232151422Y-72950000D02*
X232668578Y-72950000D01*
X232151422Y-74370000D02*
X232668578Y-74370000D01*
X249178578Y-78030000D02*
X248661422Y-78030000D01*
X249178578Y-79450000D02*
X248661422Y-79450000D01*
X248993922Y-90880000D02*
X249511078Y-90880000D01*
X248993922Y-89460000D02*
X249511078Y-89460000D01*
X266773922Y-116130000D02*
X267291078Y-116130000D01*
X266773922Y-117550000D02*
X267291078Y-117550000D01*
X238833922Y-87070000D02*
X239351078Y-87070000D01*
X238833922Y-85650000D02*
X239351078Y-85650000D01*
X235610000Y-139040000D02*
X235610000Y-138790000D01*
X235610000Y-138790000D02*
X241910000Y-138790000D01*
X241910000Y-138790000D02*
X241910000Y-139040000D01*
X235610000Y-143540000D02*
X235610000Y-140940000D01*
X241910000Y-145440000D02*
X241910000Y-145690000D01*
X241910000Y-145690000D02*
X235610000Y-145690000D01*
X235610000Y-145690000D02*
X235610000Y-145440000D01*
X241910000Y-140940000D02*
X241910000Y-143540000D01*
D12*
X234415000Y-127065000D02*
G75*
G03X234415000Y-127065000I-100000J0D01*
G01*
D11*
X236760000Y-127030000D02*
X240760000Y-127030000D01*
X236760000Y-132050000D02*
X240760000Y-132050000D01*
D14*
X235525380Y-106266904D02*
X236334904Y-106266904D01*
X236430142Y-106219285D01*
X236477761Y-106171666D01*
X236525380Y-106076428D01*
X236525380Y-105885952D01*
X236477761Y-105790714D01*
X236430142Y-105743095D01*
X236334904Y-105695476D01*
X235525380Y-105695476D01*
X236525380Y-104695476D02*
X236525380Y-105266904D01*
X236525380Y-104981190D02*
X235525380Y-104981190D01*
X235668238Y-105076428D01*
X235763476Y-105171666D01*
X235811095Y-105266904D01*
X243169380Y-107036666D02*
X242169380Y-107036666D01*
X243169380Y-106465238D01*
X242169380Y-106465238D01*
X242645571Y-105989047D02*
X242645571Y-105655714D01*
X243169380Y-105512857D02*
X243169380Y-105989047D01*
X242169380Y-105989047D01*
X242169380Y-105512857D01*
X242169380Y-104608095D02*
X242169380Y-105084285D01*
X242645571Y-105131904D01*
X242597952Y-105084285D01*
X242550333Y-104989047D01*
X242550333Y-104750952D01*
X242597952Y-104655714D01*
X242645571Y-104608095D01*
X242740809Y-104560476D01*
X242978904Y-104560476D01*
X243074142Y-104608095D01*
X243121761Y-104655714D01*
X243169380Y-104750952D01*
X243169380Y-104989047D01*
X243121761Y-105084285D01*
X243074142Y-105131904D01*
X242169380Y-103655714D02*
X242169380Y-104131904D01*
X242645571Y-104179523D01*
X242597952Y-104131904D01*
X242550333Y-104036666D01*
X242550333Y-103798571D01*
X242597952Y-103703333D01*
X242645571Y-103655714D01*
X242740809Y-103608095D01*
X242978904Y-103608095D01*
X243074142Y-103655714D01*
X243121761Y-103703333D01*
X243169380Y-103798571D01*
X243169380Y-104036666D01*
X243121761Y-104131904D01*
X243074142Y-104179523D01*
X242169380Y-102703333D02*
X242169380Y-103179523D01*
X242645571Y-103227142D01*
X242597952Y-103179523D01*
X242550333Y-103084285D01*
X242550333Y-102846190D01*
X242597952Y-102750952D01*
X242645571Y-102703333D01*
X242740809Y-102655714D01*
X242978904Y-102655714D01*
X243074142Y-102703333D01*
X243121761Y-102750952D01*
X243169380Y-102846190D01*
X243169380Y-103084285D01*
X243121761Y-103179523D01*
X243074142Y-103227142D01*
D10*
X233180833Y-118847142D02*
X233133214Y-118894761D01*
X232990357Y-118942380D01*
X232895119Y-118942380D01*
X232752261Y-118894761D01*
X232657023Y-118799523D01*
X232609404Y-118704285D01*
X232561785Y-118513809D01*
X232561785Y-118370952D01*
X232609404Y-118180476D01*
X232657023Y-118085238D01*
X232752261Y-117990000D01*
X232895119Y-117942380D01*
X232990357Y-117942380D01*
X233133214Y-117990000D01*
X233180833Y-118037619D01*
X234133214Y-118942380D02*
X233561785Y-118942380D01*
X233847500Y-118942380D02*
X233847500Y-117942380D01*
X233752261Y-118085238D01*
X233657023Y-118180476D01*
X233561785Y-118228095D01*
X247483333Y-115547142D02*
X247435714Y-115594761D01*
X247292857Y-115642380D01*
X247197619Y-115642380D01*
X247054761Y-115594761D01*
X246959523Y-115499523D01*
X246911904Y-115404285D01*
X246864285Y-115213809D01*
X246864285Y-115070952D01*
X246911904Y-114880476D01*
X246959523Y-114785238D01*
X247054761Y-114690000D01*
X247197619Y-114642380D01*
X247292857Y-114642380D01*
X247435714Y-114690000D01*
X247483333Y-114737619D01*
X247864285Y-114737619D02*
X247911904Y-114690000D01*
X248007142Y-114642380D01*
X248245238Y-114642380D01*
X248340476Y-114690000D01*
X248388095Y-114737619D01*
X248435714Y-114832857D01*
X248435714Y-114928095D01*
X248388095Y-115070952D01*
X247816666Y-115642380D01*
X248435714Y-115642380D01*
X233845833Y-81257142D02*
X233798214Y-81304761D01*
X233655357Y-81352380D01*
X233560119Y-81352380D01*
X233417261Y-81304761D01*
X233322023Y-81209523D01*
X233274404Y-81114285D01*
X233226785Y-80923809D01*
X233226785Y-80780952D01*
X233274404Y-80590476D01*
X233322023Y-80495238D01*
X233417261Y-80400000D01*
X233560119Y-80352380D01*
X233655357Y-80352380D01*
X233798214Y-80400000D01*
X233845833Y-80447619D01*
X234179166Y-80352380D02*
X234798214Y-80352380D01*
X234464880Y-80733333D01*
X234607738Y-80733333D01*
X234702976Y-80780952D01*
X234750595Y-80828571D01*
X234798214Y-80923809D01*
X234798214Y-81161904D01*
X234750595Y-81257142D01*
X234702976Y-81304761D01*
X234607738Y-81352380D01*
X234322023Y-81352380D01*
X234226785Y-81304761D01*
X234179166Y-81257142D01*
X238021904Y-64842380D02*
X238021904Y-63842380D01*
X238260000Y-63842380D01*
X238402857Y-63890000D01*
X238498095Y-63985238D01*
X238545714Y-64080476D01*
X238593333Y-64270952D01*
X238593333Y-64413809D01*
X238545714Y-64604285D01*
X238498095Y-64699523D01*
X238402857Y-64794761D01*
X238260000Y-64842380D01*
X238021904Y-64842380D01*
X239545714Y-64842380D02*
X238974285Y-64842380D01*
X239260000Y-64842380D02*
X239260000Y-63842380D01*
X239164761Y-63985238D01*
X239069523Y-64080476D01*
X238974285Y-64128095D01*
X212954404Y-77542380D02*
X212954404Y-76542380D01*
X213192500Y-76542380D01*
X213335357Y-76590000D01*
X213430595Y-76685238D01*
X213478214Y-76780476D01*
X213525833Y-76970952D01*
X213525833Y-77113809D01*
X213478214Y-77304285D01*
X213430595Y-77399523D01*
X213335357Y-77494761D01*
X213192500Y-77542380D01*
X212954404Y-77542380D01*
X213906785Y-76637619D02*
X213954404Y-76590000D01*
X214049642Y-76542380D01*
X214287738Y-76542380D01*
X214382976Y-76590000D01*
X214430595Y-76637619D01*
X214478214Y-76732857D01*
X214478214Y-76828095D01*
X214430595Y-76970952D01*
X213859166Y-77542380D01*
X214478214Y-77542380D01*
X219304404Y-88972380D02*
X219304404Y-87972380D01*
X219542500Y-87972380D01*
X219685357Y-88020000D01*
X219780595Y-88115238D01*
X219828214Y-88210476D01*
X219875833Y-88400952D01*
X219875833Y-88543809D01*
X219828214Y-88734285D01*
X219780595Y-88829523D01*
X219685357Y-88924761D01*
X219542500Y-88972380D01*
X219304404Y-88972380D01*
X220209166Y-87972380D02*
X220875833Y-87972380D01*
X220447261Y-88972380D01*
X200254404Y-120722380D02*
X200254404Y-119722380D01*
X200492500Y-119722380D01*
X200635357Y-119770000D01*
X200730595Y-119865238D01*
X200778214Y-119960476D01*
X200825833Y-120150952D01*
X200825833Y-120293809D01*
X200778214Y-120484285D01*
X200730595Y-120579523D01*
X200635357Y-120674761D01*
X200492500Y-120722380D01*
X200254404Y-120722380D01*
X201159166Y-119722380D02*
X201778214Y-119722380D01*
X201444880Y-120103333D01*
X201587738Y-120103333D01*
X201682976Y-120150952D01*
X201730595Y-120198571D01*
X201778214Y-120293809D01*
X201778214Y-120531904D01*
X201730595Y-120627142D01*
X201682976Y-120674761D01*
X201587738Y-120722380D01*
X201302023Y-120722380D01*
X201206785Y-120674761D01*
X201159166Y-120627142D01*
X251054404Y-68652380D02*
X251054404Y-67652380D01*
X251292500Y-67652380D01*
X251435357Y-67700000D01*
X251530595Y-67795238D01*
X251578214Y-67890476D01*
X251625833Y-68080952D01*
X251625833Y-68223809D01*
X251578214Y-68414285D01*
X251530595Y-68509523D01*
X251435357Y-68604761D01*
X251292500Y-68652380D01*
X251054404Y-68652380D01*
X252197261Y-68080952D02*
X252102023Y-68033333D01*
X252054404Y-67985714D01*
X252006785Y-67890476D01*
X252006785Y-67842857D01*
X252054404Y-67747619D01*
X252102023Y-67700000D01*
X252197261Y-67652380D01*
X252387738Y-67652380D01*
X252482976Y-67700000D01*
X252530595Y-67747619D01*
X252578214Y-67842857D01*
X252578214Y-67890476D01*
X252530595Y-67985714D01*
X252482976Y-68033333D01*
X252387738Y-68080952D01*
X252197261Y-68080952D01*
X252102023Y-68128571D01*
X252054404Y-68176190D01*
X252006785Y-68271428D01*
X252006785Y-68461904D01*
X252054404Y-68557142D01*
X252102023Y-68604761D01*
X252197261Y-68652380D01*
X252387738Y-68652380D01*
X252482976Y-68604761D01*
X252530595Y-68557142D01*
X252578214Y-68461904D01*
X252578214Y-68271428D01*
X252530595Y-68176190D01*
X252482976Y-68128571D01*
X252387738Y-68080952D01*
X267564404Y-97862380D02*
X267564404Y-96862380D01*
X267802500Y-96862380D01*
X267945357Y-96910000D01*
X268040595Y-97005238D01*
X268088214Y-97100476D01*
X268135833Y-97290952D01*
X268135833Y-97433809D01*
X268088214Y-97624285D01*
X268040595Y-97719523D01*
X267945357Y-97814761D01*
X267802500Y-97862380D01*
X267564404Y-97862380D01*
X268992976Y-97195714D02*
X268992976Y-97862380D01*
X268754880Y-96814761D02*
X268516785Y-97529047D01*
X269135833Y-97529047D01*
X207541904Y-97862380D02*
X207541904Y-96862380D01*
X207780000Y-96862380D01*
X207922857Y-96910000D01*
X208018095Y-97005238D01*
X208065714Y-97100476D01*
X208113333Y-97290952D01*
X208113333Y-97433809D01*
X208065714Y-97624285D01*
X208018095Y-97719523D01*
X207922857Y-97814761D01*
X207780000Y-97862380D01*
X207541904Y-97862380D01*
X208589523Y-97862380D02*
X208780000Y-97862380D01*
X208875238Y-97814761D01*
X208922857Y-97767142D01*
X209018095Y-97624285D01*
X209065714Y-97433809D01*
X209065714Y-97052857D01*
X209018095Y-96957619D01*
X208970476Y-96910000D01*
X208875238Y-96862380D01*
X208684761Y-96862380D01*
X208589523Y-96910000D01*
X208541904Y-96957619D01*
X208494285Y-97052857D01*
X208494285Y-97290952D01*
X208541904Y-97386190D01*
X208589523Y-97433809D01*
X208684761Y-97481428D01*
X208875238Y-97481428D01*
X208970476Y-97433809D01*
X209018095Y-97386190D01*
X209065714Y-97290952D01*
X238354404Y-118182380D02*
X238354404Y-117182380D01*
X238592500Y-117182380D01*
X238735357Y-117230000D01*
X238830595Y-117325238D01*
X238878214Y-117420476D01*
X238925833Y-117610952D01*
X238925833Y-117753809D01*
X238878214Y-117944285D01*
X238830595Y-118039523D01*
X238735357Y-118134761D01*
X238592500Y-118182380D01*
X238354404Y-118182380D01*
X239830595Y-117182380D02*
X239354404Y-117182380D01*
X239306785Y-117658571D01*
X239354404Y-117610952D01*
X239449642Y-117563333D01*
X239687738Y-117563333D01*
X239782976Y-117610952D01*
X239830595Y-117658571D01*
X239878214Y-117753809D01*
X239878214Y-117991904D01*
X239830595Y-118087142D01*
X239782976Y-118134761D01*
X239687738Y-118182380D01*
X239449642Y-118182380D01*
X239354404Y-118134761D01*
X239306785Y-118087142D01*
X225178214Y-68652380D02*
X225178214Y-67652380D01*
X225416309Y-67652380D01*
X225559166Y-67700000D01*
X225654404Y-67795238D01*
X225702023Y-67890476D01*
X225749642Y-68080952D01*
X225749642Y-68223809D01*
X225702023Y-68414285D01*
X225654404Y-68509523D01*
X225559166Y-68604761D01*
X225416309Y-68652380D01*
X225178214Y-68652380D01*
X226702023Y-68652380D02*
X226130595Y-68652380D01*
X226416309Y-68652380D02*
X226416309Y-67652380D01*
X226321071Y-67795238D01*
X226225833Y-67890476D01*
X226130595Y-67938095D01*
X227321071Y-67652380D02*
X227416309Y-67652380D01*
X227511547Y-67700000D01*
X227559166Y-67747619D01*
X227606785Y-67842857D01*
X227654404Y-68033333D01*
X227654404Y-68271428D01*
X227606785Y-68461904D01*
X227559166Y-68557142D01*
X227511547Y-68604761D01*
X227416309Y-68652380D01*
X227321071Y-68652380D01*
X227225833Y-68604761D01*
X227178214Y-68557142D01*
X227130595Y-68461904D01*
X227082976Y-68271428D01*
X227082976Y-68033333D01*
X227130595Y-67842857D01*
X227178214Y-67747619D01*
X227225833Y-67700000D01*
X227321071Y-67652380D01*
X262484404Y-77542380D02*
X262484404Y-76542380D01*
X262722500Y-76542380D01*
X262865357Y-76590000D01*
X262960595Y-76685238D01*
X263008214Y-76780476D01*
X263055833Y-76970952D01*
X263055833Y-77113809D01*
X263008214Y-77304285D01*
X262960595Y-77399523D01*
X262865357Y-77494761D01*
X262722500Y-77542380D01*
X262484404Y-77542380D01*
X263912976Y-76542380D02*
X263722500Y-76542380D01*
X263627261Y-76590000D01*
X263579642Y-76637619D01*
X263484404Y-76780476D01*
X263436785Y-76970952D01*
X263436785Y-77351904D01*
X263484404Y-77447142D01*
X263532023Y-77494761D01*
X263627261Y-77542380D01*
X263817738Y-77542380D01*
X263912976Y-77494761D01*
X263960595Y-77447142D01*
X264008214Y-77351904D01*
X264008214Y-77113809D01*
X263960595Y-77018571D01*
X263912976Y-76970952D01*
X263817738Y-76923333D01*
X263627261Y-76923333D01*
X263532023Y-76970952D01*
X263484404Y-77018571D01*
X263436785Y-77113809D01*
X256928214Y-88972380D02*
X256928214Y-87972380D01*
X257166309Y-87972380D01*
X257309166Y-88020000D01*
X257404404Y-88115238D01*
X257452023Y-88210476D01*
X257499642Y-88400952D01*
X257499642Y-88543809D01*
X257452023Y-88734285D01*
X257404404Y-88829523D01*
X257309166Y-88924761D01*
X257166309Y-88972380D01*
X256928214Y-88972380D01*
X258452023Y-88972380D02*
X257880595Y-88972380D01*
X258166309Y-88972380D02*
X258166309Y-87972380D01*
X258071071Y-88115238D01*
X257975833Y-88210476D01*
X257880595Y-88258095D01*
X259404404Y-88972380D02*
X258832976Y-88972380D01*
X259118690Y-88972380D02*
X259118690Y-87972380D01*
X259023452Y-88115238D01*
X258928214Y-88210476D01*
X258832976Y-88258095D01*
X274708214Y-120722380D02*
X274708214Y-119722380D01*
X274946309Y-119722380D01*
X275089166Y-119770000D01*
X275184404Y-119865238D01*
X275232023Y-119960476D01*
X275279642Y-120150952D01*
X275279642Y-120293809D01*
X275232023Y-120484285D01*
X275184404Y-120579523D01*
X275089166Y-120674761D01*
X274946309Y-120722380D01*
X274708214Y-120722380D01*
X276232023Y-120722380D02*
X275660595Y-120722380D01*
X275946309Y-120722380D02*
X275946309Y-119722380D01*
X275851071Y-119865238D01*
X275755833Y-119960476D01*
X275660595Y-120008095D01*
X276612976Y-119817619D02*
X276660595Y-119770000D01*
X276755833Y-119722380D01*
X276993928Y-119722380D01*
X277089166Y-119770000D01*
X277136785Y-119817619D01*
X277184404Y-119912857D01*
X277184404Y-120008095D01*
X277136785Y-120150952D01*
X276565357Y-120722380D01*
X277184404Y-120722380D01*
X237243214Y-77542380D02*
X237243214Y-76542380D01*
X237481309Y-76542380D01*
X237624166Y-76590000D01*
X237719404Y-76685238D01*
X237767023Y-76780476D01*
X237814642Y-76970952D01*
X237814642Y-77113809D01*
X237767023Y-77304285D01*
X237719404Y-77399523D01*
X237624166Y-77494761D01*
X237481309Y-77542380D01*
X237243214Y-77542380D01*
X238767023Y-77542380D02*
X238195595Y-77542380D01*
X238481309Y-77542380D02*
X238481309Y-76542380D01*
X238386071Y-76685238D01*
X238290833Y-76780476D01*
X238195595Y-76828095D01*
X239100357Y-76542380D02*
X239719404Y-76542380D01*
X239386071Y-76923333D01*
X239528928Y-76923333D01*
X239624166Y-76970952D01*
X239671785Y-77018571D01*
X239719404Y-77113809D01*
X239719404Y-77351904D01*
X239671785Y-77447142D01*
X239624166Y-77494761D01*
X239528928Y-77542380D01*
X239243214Y-77542380D01*
X239147976Y-77494761D01*
X239100357Y-77447142D01*
X245182380Y-136865357D02*
X244706190Y-137198690D01*
X245182380Y-137436785D02*
X244182380Y-137436785D01*
X244182380Y-137055833D01*
X244230000Y-136960595D01*
X244277619Y-136912976D01*
X244372857Y-136865357D01*
X244515714Y-136865357D01*
X244610952Y-136912976D01*
X244658571Y-136960595D01*
X244706190Y-137055833D01*
X244706190Y-137436785D01*
X245182380Y-135912976D02*
X245182380Y-136484404D01*
X245182380Y-136198690D02*
X244182380Y-136198690D01*
X244325238Y-136293928D01*
X244420476Y-136389166D01*
X244468095Y-136484404D01*
X244182380Y-135008214D02*
X244182380Y-135484404D01*
X244658571Y-135532023D01*
X244610952Y-135484404D01*
X244563333Y-135389166D01*
X244563333Y-135151071D01*
X244610952Y-135055833D01*
X244658571Y-135008214D01*
X244753809Y-134960595D01*
X244991904Y-134960595D01*
X245087142Y-135008214D01*
X245134761Y-135055833D01*
X245182380Y-135151071D01*
X245182380Y-135389166D01*
X245134761Y-135484404D01*
X245087142Y-135532023D01*
X232099642Y-94052380D02*
X231766309Y-93576190D01*
X231528214Y-94052380D02*
X231528214Y-93052380D01*
X231909166Y-93052380D01*
X232004404Y-93100000D01*
X232052023Y-93147619D01*
X232099642Y-93242857D01*
X232099642Y-93385714D01*
X232052023Y-93480952D01*
X232004404Y-93528571D01*
X231909166Y-93576190D01*
X231528214Y-93576190D01*
X233052023Y-94052380D02*
X232480595Y-94052380D01*
X232766309Y-94052380D02*
X232766309Y-93052380D01*
X232671071Y-93195238D01*
X232575833Y-93290476D01*
X232480595Y-93338095D01*
X233385357Y-93052380D02*
X234052023Y-93052380D01*
X233623452Y-94052380D01*
X225417142Y-118182380D02*
X225083809Y-117706190D01*
X224845714Y-118182380D02*
X224845714Y-117182380D01*
X225226666Y-117182380D01*
X225321904Y-117230000D01*
X225369523Y-117277619D01*
X225417142Y-117372857D01*
X225417142Y-117515714D01*
X225369523Y-117610952D01*
X225321904Y-117658571D01*
X225226666Y-117706190D01*
X224845714Y-117706190D01*
X226369523Y-118182380D02*
X225798095Y-118182380D01*
X226083809Y-118182380D02*
X226083809Y-117182380D01*
X225988571Y-117325238D01*
X225893333Y-117420476D01*
X225798095Y-117468095D01*
X227226666Y-117515714D02*
X227226666Y-118182380D01*
X226988571Y-117134761D02*
X226750476Y-117849047D01*
X227369523Y-117849047D01*
X240862380Y-70349166D02*
X240386190Y-70682500D01*
X240862380Y-70920595D02*
X239862380Y-70920595D01*
X239862380Y-70539642D01*
X239910000Y-70444404D01*
X239957619Y-70396785D01*
X240052857Y-70349166D01*
X240195714Y-70349166D01*
X240290952Y-70396785D01*
X240338571Y-70444404D01*
X240386190Y-70539642D01*
X240386190Y-70920595D01*
X240862380Y-69396785D02*
X240862380Y-69968214D01*
X240862380Y-69682500D02*
X239862380Y-69682500D01*
X240005238Y-69777738D01*
X240100476Y-69872976D01*
X240148095Y-69968214D01*
X238449642Y-91512380D02*
X238116309Y-91036190D01*
X237878214Y-91512380D02*
X237878214Y-90512380D01*
X238259166Y-90512380D01*
X238354404Y-90560000D01*
X238402023Y-90607619D01*
X238449642Y-90702857D01*
X238449642Y-90845714D01*
X238402023Y-90940952D01*
X238354404Y-90988571D01*
X238259166Y-91036190D01*
X237878214Y-91036190D01*
X239402023Y-91512380D02*
X238830595Y-91512380D01*
X239116309Y-91512380D02*
X239116309Y-90512380D01*
X239021071Y-90655238D01*
X238925833Y-90750476D01*
X238830595Y-90798095D01*
X240259166Y-90512380D02*
X240068690Y-90512380D01*
X239973452Y-90560000D01*
X239925833Y-90607619D01*
X239830595Y-90750476D01*
X239782976Y-90940952D01*
X239782976Y-91321904D01*
X239830595Y-91417142D01*
X239878214Y-91464761D01*
X239973452Y-91512380D01*
X240163928Y-91512380D01*
X240259166Y-91464761D01*
X240306785Y-91417142D01*
X240354404Y-91321904D01*
X240354404Y-91083809D01*
X240306785Y-90988571D01*
X240259166Y-90940952D01*
X240163928Y-90893333D01*
X239973452Y-90893333D01*
X239878214Y-90940952D01*
X239830595Y-90988571D01*
X239782976Y-91083809D01*
X227495833Y-77542380D02*
X227162500Y-77066190D01*
X226924404Y-77542380D02*
X226924404Y-76542380D01*
X227305357Y-76542380D01*
X227400595Y-76590000D01*
X227448214Y-76637619D01*
X227495833Y-76732857D01*
X227495833Y-76875714D01*
X227448214Y-76970952D01*
X227400595Y-77018571D01*
X227305357Y-77066190D01*
X226924404Y-77066190D01*
X227876785Y-76637619D02*
X227924404Y-76590000D01*
X228019642Y-76542380D01*
X228257738Y-76542380D01*
X228352976Y-76590000D01*
X228400595Y-76637619D01*
X228448214Y-76732857D01*
X228448214Y-76828095D01*
X228400595Y-76970952D01*
X227829166Y-77542380D01*
X228448214Y-77542380D01*
X228765833Y-88972380D02*
X228432500Y-88496190D01*
X228194404Y-88972380D02*
X228194404Y-87972380D01*
X228575357Y-87972380D01*
X228670595Y-88020000D01*
X228718214Y-88067619D01*
X228765833Y-88162857D01*
X228765833Y-88305714D01*
X228718214Y-88400952D01*
X228670595Y-88448571D01*
X228575357Y-88496190D01*
X228194404Y-88496190D01*
X229099166Y-87972380D02*
X229765833Y-87972380D01*
X229337261Y-88972380D01*
X210985833Y-114372380D02*
X210652500Y-113896190D01*
X210414404Y-114372380D02*
X210414404Y-113372380D01*
X210795357Y-113372380D01*
X210890595Y-113420000D01*
X210938214Y-113467619D01*
X210985833Y-113562857D01*
X210985833Y-113705714D01*
X210938214Y-113800952D01*
X210890595Y-113848571D01*
X210795357Y-113896190D01*
X210414404Y-113896190D01*
X211319166Y-113372380D02*
X211938214Y-113372380D01*
X211604880Y-113753333D01*
X211747738Y-113753333D01*
X211842976Y-113800952D01*
X211890595Y-113848571D01*
X211938214Y-113943809D01*
X211938214Y-114181904D01*
X211890595Y-114277142D01*
X211842976Y-114324761D01*
X211747738Y-114372380D01*
X211462023Y-114372380D01*
X211366785Y-114324761D01*
X211319166Y-114277142D01*
X244610833Y-75762380D02*
X244277500Y-75286190D01*
X244039404Y-75762380D02*
X244039404Y-74762380D01*
X244420357Y-74762380D01*
X244515595Y-74810000D01*
X244563214Y-74857619D01*
X244610833Y-74952857D01*
X244610833Y-75095714D01*
X244563214Y-75190952D01*
X244515595Y-75238571D01*
X244420357Y-75286190D01*
X244039404Y-75286190D01*
X245182261Y-75190952D02*
X245087023Y-75143333D01*
X245039404Y-75095714D01*
X244991785Y-75000476D01*
X244991785Y-74952857D01*
X245039404Y-74857619D01*
X245087023Y-74810000D01*
X245182261Y-74762380D01*
X245372738Y-74762380D01*
X245467976Y-74810000D01*
X245515595Y-74857619D01*
X245563214Y-74952857D01*
X245563214Y-75000476D01*
X245515595Y-75095714D01*
X245467976Y-75143333D01*
X245372738Y-75190952D01*
X245182261Y-75190952D01*
X245087023Y-75238571D01*
X245039404Y-75286190D01*
X244991785Y-75381428D01*
X244991785Y-75571904D01*
X245039404Y-75667142D01*
X245087023Y-75714761D01*
X245182261Y-75762380D01*
X245372738Y-75762380D01*
X245467976Y-75714761D01*
X245515595Y-75667142D01*
X245563214Y-75571904D01*
X245563214Y-75381428D01*
X245515595Y-75286190D01*
X245467976Y-75238571D01*
X245372738Y-75190952D01*
X252895833Y-97352380D02*
X252562500Y-96876190D01*
X252324404Y-97352380D02*
X252324404Y-96352380D01*
X252705357Y-96352380D01*
X252800595Y-96400000D01*
X252848214Y-96447619D01*
X252895833Y-96542857D01*
X252895833Y-96685714D01*
X252848214Y-96780952D01*
X252800595Y-96828571D01*
X252705357Y-96876190D01*
X252324404Y-96876190D01*
X253752976Y-96685714D02*
X253752976Y-97352380D01*
X253514880Y-96304761D02*
X253276785Y-97019047D01*
X253895833Y-97019047D01*
X222415833Y-94052380D02*
X222082500Y-93576190D01*
X221844404Y-94052380D02*
X221844404Y-93052380D01*
X222225357Y-93052380D01*
X222320595Y-93100000D01*
X222368214Y-93147619D01*
X222415833Y-93242857D01*
X222415833Y-93385714D01*
X222368214Y-93480952D01*
X222320595Y-93528571D01*
X222225357Y-93576190D01*
X221844404Y-93576190D01*
X222892023Y-94052380D02*
X223082500Y-94052380D01*
X223177738Y-94004761D01*
X223225357Y-93957142D01*
X223320595Y-93814285D01*
X223368214Y-93623809D01*
X223368214Y-93242857D01*
X223320595Y-93147619D01*
X223272976Y-93100000D01*
X223177738Y-93052380D01*
X222987261Y-93052380D01*
X222892023Y-93100000D01*
X222844404Y-93147619D01*
X222796785Y-93242857D01*
X222796785Y-93480952D01*
X222844404Y-93576190D01*
X222892023Y-93623809D01*
X222987261Y-93671428D01*
X223177738Y-93671428D01*
X223272976Y-93623809D01*
X223320595Y-93576190D01*
X223368214Y-93480952D01*
X238925833Y-111832380D02*
X238592500Y-111356190D01*
X238354404Y-111832380D02*
X238354404Y-110832380D01*
X238735357Y-110832380D01*
X238830595Y-110880000D01*
X238878214Y-110927619D01*
X238925833Y-111022857D01*
X238925833Y-111165714D01*
X238878214Y-111260952D01*
X238830595Y-111308571D01*
X238735357Y-111356190D01*
X238354404Y-111356190D01*
X239830595Y-110832380D02*
X239354404Y-110832380D01*
X239306785Y-111308571D01*
X239354404Y-111260952D01*
X239449642Y-111213333D01*
X239687738Y-111213333D01*
X239782976Y-111260952D01*
X239830595Y-111308571D01*
X239878214Y-111403809D01*
X239878214Y-111641904D01*
X239830595Y-111737142D01*
X239782976Y-111784761D01*
X239687738Y-111832380D01*
X239449642Y-111832380D01*
X239354404Y-111784761D01*
X239306785Y-111737142D01*
X231767142Y-72462380D02*
X231433809Y-71986190D01*
X231195714Y-72462380D02*
X231195714Y-71462380D01*
X231576666Y-71462380D01*
X231671904Y-71510000D01*
X231719523Y-71557619D01*
X231767142Y-71652857D01*
X231767142Y-71795714D01*
X231719523Y-71890952D01*
X231671904Y-71938571D01*
X231576666Y-71986190D01*
X231195714Y-71986190D01*
X232719523Y-72462380D02*
X232148095Y-72462380D01*
X232433809Y-72462380D02*
X232433809Y-71462380D01*
X232338571Y-71605238D01*
X232243333Y-71700476D01*
X232148095Y-71748095D01*
X233338571Y-71462380D02*
X233433809Y-71462380D01*
X233529047Y-71510000D01*
X233576666Y-71557619D01*
X233624285Y-71652857D01*
X233671904Y-71843333D01*
X233671904Y-72081428D01*
X233624285Y-72271904D01*
X233576666Y-72367142D01*
X233529047Y-72414761D01*
X233433809Y-72462380D01*
X233338571Y-72462380D01*
X233243333Y-72414761D01*
X233195714Y-72367142D01*
X233148095Y-72271904D01*
X233100476Y-72081428D01*
X233100476Y-71843333D01*
X233148095Y-71652857D01*
X233195714Y-71557619D01*
X233243333Y-71510000D01*
X233338571Y-71462380D01*
X248753333Y-80842380D02*
X248420000Y-80366190D01*
X248181904Y-80842380D02*
X248181904Y-79842380D01*
X248562857Y-79842380D01*
X248658095Y-79890000D01*
X248705714Y-79937619D01*
X248753333Y-80032857D01*
X248753333Y-80175714D01*
X248705714Y-80270952D01*
X248658095Y-80318571D01*
X248562857Y-80366190D01*
X248181904Y-80366190D01*
X249610476Y-79842380D02*
X249420000Y-79842380D01*
X249324761Y-79890000D01*
X249277142Y-79937619D01*
X249181904Y-80080476D01*
X249134285Y-80270952D01*
X249134285Y-80651904D01*
X249181904Y-80747142D01*
X249229523Y-80794761D01*
X249324761Y-80842380D01*
X249515238Y-80842380D01*
X249610476Y-80794761D01*
X249658095Y-80747142D01*
X249705714Y-80651904D01*
X249705714Y-80413809D01*
X249658095Y-80318571D01*
X249610476Y-80270952D01*
X249515238Y-80223333D01*
X249324761Y-80223333D01*
X249229523Y-80270952D01*
X249181904Y-80318571D01*
X249134285Y-80413809D01*
X248609642Y-88972380D02*
X248276309Y-88496190D01*
X248038214Y-88972380D02*
X248038214Y-87972380D01*
X248419166Y-87972380D01*
X248514404Y-88020000D01*
X248562023Y-88067619D01*
X248609642Y-88162857D01*
X248609642Y-88305714D01*
X248562023Y-88400952D01*
X248514404Y-88448571D01*
X248419166Y-88496190D01*
X248038214Y-88496190D01*
X249562023Y-88972380D02*
X248990595Y-88972380D01*
X249276309Y-88972380D02*
X249276309Y-87972380D01*
X249181071Y-88115238D01*
X249085833Y-88210476D01*
X248990595Y-88258095D01*
X250514404Y-88972380D02*
X249942976Y-88972380D01*
X250228690Y-88972380D02*
X250228690Y-87972380D01*
X250133452Y-88115238D01*
X250038214Y-88210476D01*
X249942976Y-88258095D01*
X266389642Y-115642380D02*
X266056309Y-115166190D01*
X265818214Y-115642380D02*
X265818214Y-114642380D01*
X266199166Y-114642380D01*
X266294404Y-114690000D01*
X266342023Y-114737619D01*
X266389642Y-114832857D01*
X266389642Y-114975714D01*
X266342023Y-115070952D01*
X266294404Y-115118571D01*
X266199166Y-115166190D01*
X265818214Y-115166190D01*
X267342023Y-115642380D02*
X266770595Y-115642380D01*
X267056309Y-115642380D02*
X267056309Y-114642380D01*
X266961071Y-114785238D01*
X266865833Y-114880476D01*
X266770595Y-114928095D01*
X267722976Y-114737619D02*
X267770595Y-114690000D01*
X267865833Y-114642380D01*
X268103928Y-114642380D01*
X268199166Y-114690000D01*
X268246785Y-114737619D01*
X268294404Y-114832857D01*
X268294404Y-114928095D01*
X268246785Y-115070952D01*
X267675357Y-115642380D01*
X268294404Y-115642380D01*
X238449642Y-85162380D02*
X238116309Y-84686190D01*
X237878214Y-85162380D02*
X237878214Y-84162380D01*
X238259166Y-84162380D01*
X238354404Y-84210000D01*
X238402023Y-84257619D01*
X238449642Y-84352857D01*
X238449642Y-84495714D01*
X238402023Y-84590952D01*
X238354404Y-84638571D01*
X238259166Y-84686190D01*
X237878214Y-84686190D01*
X239402023Y-85162380D02*
X238830595Y-85162380D01*
X239116309Y-85162380D02*
X239116309Y-84162380D01*
X239021071Y-84305238D01*
X238925833Y-84400476D01*
X238830595Y-84448095D01*
X239735357Y-84162380D02*
X240354404Y-84162380D01*
X240021071Y-84543333D01*
X240163928Y-84543333D01*
X240259166Y-84590952D01*
X240306785Y-84638571D01*
X240354404Y-84733809D01*
X240354404Y-84971904D01*
X240306785Y-85067142D01*
X240259166Y-85114761D01*
X240163928Y-85162380D01*
X239878214Y-85162380D01*
X239782976Y-85114761D01*
X239735357Y-85067142D01*
X237426666Y-138144761D02*
X237569523Y-138192380D01*
X237807619Y-138192380D01*
X237902857Y-138144761D01*
X237950476Y-138097142D01*
X237998095Y-138001904D01*
X237998095Y-137906666D01*
X237950476Y-137811428D01*
X237902857Y-137763809D01*
X237807619Y-137716190D01*
X237617142Y-137668571D01*
X237521904Y-137620952D01*
X237474285Y-137573333D01*
X237426666Y-137478095D01*
X237426666Y-137382857D01*
X237474285Y-137287619D01*
X237521904Y-137240000D01*
X237617142Y-137192380D01*
X237855238Y-137192380D01*
X237998095Y-137240000D01*
X238331428Y-137192380D02*
X238569523Y-138192380D01*
X238760000Y-137478095D01*
X238950476Y-138192380D01*
X239188571Y-137192380D01*
X240093333Y-138192380D02*
X239521904Y-138192380D01*
X239807619Y-138192380D02*
X239807619Y-137192380D01*
X239712380Y-137335238D01*
X239617142Y-137430476D01*
X239521904Y-137478095D01*
D14*
X236568095Y-125670380D02*
X236568095Y-126479904D01*
X236615714Y-126575142D01*
X236663333Y-126622761D01*
X236758571Y-126670380D01*
X236949047Y-126670380D01*
X237044285Y-126622761D01*
X237091904Y-126575142D01*
X237139523Y-126479904D01*
X237139523Y-125670380D01*
X237568095Y-125765619D02*
X237615714Y-125718000D01*
X237710952Y-125670380D01*
X237949047Y-125670380D01*
X238044285Y-125718000D01*
X238091904Y-125765619D01*
X238139523Y-125860857D01*
X238139523Y-125956095D01*
X238091904Y-126098952D01*
X237520476Y-126670380D01*
X238139523Y-126670380D01*
X235798333Y-133314380D02*
X235798333Y-132314380D01*
X236369761Y-133314380D01*
X236369761Y-132314380D01*
X236845952Y-132790571D02*
X237179285Y-132790571D01*
X237322142Y-133314380D02*
X236845952Y-133314380D01*
X236845952Y-132314380D01*
X237322142Y-132314380D01*
X238226904Y-132314380D02*
X237750714Y-132314380D01*
X237703095Y-132790571D01*
X237750714Y-132742952D01*
X237845952Y-132695333D01*
X238084047Y-132695333D01*
X238179285Y-132742952D01*
X238226904Y-132790571D01*
X238274523Y-132885809D01*
X238274523Y-133123904D01*
X238226904Y-133219142D01*
X238179285Y-133266761D01*
X238084047Y-133314380D01*
X237845952Y-133314380D01*
X237750714Y-133266761D01*
X237703095Y-133219142D01*
X239179285Y-132314380D02*
X238703095Y-132314380D01*
X238655476Y-132790571D01*
X238703095Y-132742952D01*
X238798333Y-132695333D01*
X239036428Y-132695333D01*
X239131666Y-132742952D01*
X239179285Y-132790571D01*
X239226904Y-132885809D01*
X239226904Y-133123904D01*
X239179285Y-133219142D01*
X239131666Y-133266761D01*
X239036428Y-133314380D01*
X238798333Y-133314380D01*
X238703095Y-133266761D01*
X238655476Y-133219142D01*
X240131666Y-132314380D02*
X239655476Y-132314380D01*
X239607857Y-132790571D01*
X239655476Y-132742952D01*
X239750714Y-132695333D01*
X239988809Y-132695333D01*
X240084047Y-132742952D01*
X240131666Y-132790571D01*
X240179285Y-132885809D01*
X240179285Y-133123904D01*
X240131666Y-133219142D01*
X240084047Y-133266761D01*
X239988809Y-133314380D01*
X239750714Y-133314380D01*
X239655476Y-133266761D01*
X239607857Y-133219142D01*
D10*
X242062095Y-61412380D02*
X242062095Y-60412380D01*
X242062095Y-60888571D02*
X242633523Y-60888571D01*
X242633523Y-61412380D02*
X242633523Y-60412380D01*
X243633523Y-61412380D02*
X243062095Y-61412380D01*
X243347809Y-61412380D02*
X243347809Y-60412380D01*
X243252571Y-60555238D01*
X243157333Y-60650476D01*
X243062095Y-60698095D01*
M02*
