G04 #@! TF.GenerationSoftware,KiCad,Pcbnew,5.1.4-3.fc30*
G04 #@! TF.CreationDate,2019-12-08T15:57:42-08:00*
G04 #@! TF.ProjectId,ChristmasTree,43687269-7374-46d6-9173-547265652e6b,rev?*
G04 #@! TF.SameCoordinates,Original*
G04 #@! TF.FileFunction,Soldermask,Top*
G04 #@! TF.FilePolarity,Negative*
%FSLAX46Y46*%
G04 Gerber Fmt 4.6, Leading zero omitted, Abs format (unit mm)*
G04 Created by KiCad (PCBNEW 5.1.4-3.fc30) date 2019-12-08 15:57:42*
%MOMM*%
%LPD*%
G04 APERTURE LIST*
%ADD10C,0.100000*%
G04 APERTURE END LIST*
D10*
G36*
X243561000Y-145191000D02*
G01*
X241909000Y-145191000D01*
X241909000Y-143789000D01*
X243561000Y-143789000D01*
X243561000Y-145191000D01*
X243561000Y-145191000D01*
G37*
G36*
X235611000Y-145191000D02*
G01*
X233959000Y-145191000D01*
X233959000Y-143789000D01*
X235611000Y-143789000D01*
X235611000Y-145191000D01*
X235611000Y-145191000D01*
G37*
G36*
X235611000Y-140691000D02*
G01*
X233959000Y-140691000D01*
X233959000Y-139289000D01*
X235611000Y-139289000D01*
X235611000Y-140691000D01*
X235611000Y-140691000D01*
G37*
G36*
X243561000Y-140691000D02*
G01*
X241909000Y-140691000D01*
X241909000Y-139289000D01*
X243561000Y-139289000D01*
X243561000Y-140691000D01*
X243561000Y-140691000D01*
G37*
G36*
X246964468Y-136626065D02*
G01*
X247003138Y-136637796D01*
X247038777Y-136656846D01*
X247070017Y-136682483D01*
X247095654Y-136713723D01*
X247114704Y-136749362D01*
X247126435Y-136788032D01*
X247131000Y-136834388D01*
X247131000Y-137485612D01*
X247126435Y-137531968D01*
X247114704Y-137570638D01*
X247095654Y-137606277D01*
X247070017Y-137637517D01*
X247038777Y-137663154D01*
X247003138Y-137682204D01*
X246964468Y-137693935D01*
X246918112Y-137698500D01*
X245841888Y-137698500D01*
X245795532Y-137693935D01*
X245756862Y-137682204D01*
X245721223Y-137663154D01*
X245689983Y-137637517D01*
X245664346Y-137606277D01*
X245645296Y-137570638D01*
X245633565Y-137531968D01*
X245629000Y-137485612D01*
X245629000Y-136834388D01*
X245633565Y-136788032D01*
X245645296Y-136749362D01*
X245664346Y-136713723D01*
X245689983Y-136682483D01*
X245721223Y-136656846D01*
X245756862Y-136637796D01*
X245795532Y-136626065D01*
X245841888Y-136621500D01*
X246918112Y-136621500D01*
X246964468Y-136626065D01*
X246964468Y-136626065D01*
G37*
G36*
X246964468Y-134751065D02*
G01*
X247003138Y-134762796D01*
X247038777Y-134781846D01*
X247070017Y-134807483D01*
X247095654Y-134838723D01*
X247114704Y-134874362D01*
X247126435Y-134913032D01*
X247131000Y-134959388D01*
X247131000Y-135610612D01*
X247126435Y-135656968D01*
X247114704Y-135695638D01*
X247095654Y-135731277D01*
X247070017Y-135762517D01*
X247038777Y-135788154D01*
X247003138Y-135807204D01*
X246964468Y-135818935D01*
X246918112Y-135823500D01*
X245841888Y-135823500D01*
X245795532Y-135818935D01*
X245756862Y-135807204D01*
X245721223Y-135788154D01*
X245689983Y-135762517D01*
X245664346Y-135731277D01*
X245645296Y-135695638D01*
X245633565Y-135656968D01*
X245629000Y-135610612D01*
X245629000Y-134959388D01*
X245633565Y-134913032D01*
X245645296Y-134874362D01*
X245664346Y-134838723D01*
X245689983Y-134807483D01*
X245721223Y-134781846D01*
X245756862Y-134762796D01*
X245795532Y-134751065D01*
X245841888Y-134746500D01*
X246918112Y-134746500D01*
X246964468Y-134751065D01*
X246964468Y-134751065D01*
G37*
G36*
X237321000Y-131781000D02*
G01*
X235249000Y-131781000D01*
X235249000Y-131109000D01*
X237321000Y-131109000D01*
X237321000Y-131781000D01*
X237321000Y-131781000D01*
G37*
G36*
X242271000Y-131781000D02*
G01*
X240199000Y-131781000D01*
X240199000Y-131109000D01*
X242271000Y-131109000D01*
X242271000Y-131781000D01*
X242271000Y-131781000D01*
G37*
G36*
X242271000Y-130511000D02*
G01*
X240199000Y-130511000D01*
X240199000Y-129839000D01*
X242271000Y-129839000D01*
X242271000Y-130511000D01*
X242271000Y-130511000D01*
G37*
G36*
X237321000Y-130511000D02*
G01*
X235249000Y-130511000D01*
X235249000Y-129839000D01*
X237321000Y-129839000D01*
X237321000Y-130511000D01*
X237321000Y-130511000D01*
G37*
G36*
X242271000Y-129241000D02*
G01*
X240199000Y-129241000D01*
X240199000Y-128569000D01*
X242271000Y-128569000D01*
X242271000Y-129241000D01*
X242271000Y-129241000D01*
G37*
G36*
X237321000Y-129241000D02*
G01*
X235249000Y-129241000D01*
X235249000Y-128569000D01*
X237321000Y-128569000D01*
X237321000Y-129241000D01*
X237321000Y-129241000D01*
G37*
G36*
X242271000Y-127971000D02*
G01*
X240199000Y-127971000D01*
X240199000Y-127299000D01*
X242271000Y-127299000D01*
X242271000Y-127971000D01*
X242271000Y-127971000D01*
G37*
G36*
X237321000Y-127971000D02*
G01*
X235249000Y-127971000D01*
X235249000Y-127299000D01*
X237321000Y-127299000D01*
X237321000Y-127971000D01*
X237321000Y-127971000D01*
G37*
G36*
X275356968Y-121173565D02*
G01*
X275395638Y-121185296D01*
X275431277Y-121204346D01*
X275462517Y-121229983D01*
X275488154Y-121261223D01*
X275507204Y-121296862D01*
X275518935Y-121335532D01*
X275523500Y-121381888D01*
X275523500Y-122458112D01*
X275518935Y-122504468D01*
X275507204Y-122543138D01*
X275488154Y-122578777D01*
X275462517Y-122610017D01*
X275431277Y-122635654D01*
X275395638Y-122654704D01*
X275356968Y-122666435D01*
X275310612Y-122671000D01*
X274659388Y-122671000D01*
X274613032Y-122666435D01*
X274574362Y-122654704D01*
X274538723Y-122635654D01*
X274507483Y-122610017D01*
X274481846Y-122578777D01*
X274462796Y-122543138D01*
X274451065Y-122504468D01*
X274446500Y-122458112D01*
X274446500Y-121381888D01*
X274451065Y-121335532D01*
X274462796Y-121296862D01*
X274481846Y-121261223D01*
X274507483Y-121229983D01*
X274538723Y-121204346D01*
X274574362Y-121185296D01*
X274613032Y-121173565D01*
X274659388Y-121169000D01*
X275310612Y-121169000D01*
X275356968Y-121173565D01*
X275356968Y-121173565D01*
G37*
G36*
X277231968Y-121173565D02*
G01*
X277270638Y-121185296D01*
X277306277Y-121204346D01*
X277337517Y-121229983D01*
X277363154Y-121261223D01*
X277382204Y-121296862D01*
X277393935Y-121335532D01*
X277398500Y-121381888D01*
X277398500Y-122458112D01*
X277393935Y-122504468D01*
X277382204Y-122543138D01*
X277363154Y-122578777D01*
X277337517Y-122610017D01*
X277306277Y-122635654D01*
X277270638Y-122654704D01*
X277231968Y-122666435D01*
X277185612Y-122671000D01*
X276534388Y-122671000D01*
X276488032Y-122666435D01*
X276449362Y-122654704D01*
X276413723Y-122635654D01*
X276382483Y-122610017D01*
X276356846Y-122578777D01*
X276337796Y-122543138D01*
X276326065Y-122504468D01*
X276321500Y-122458112D01*
X276321500Y-121381888D01*
X276326065Y-121335532D01*
X276337796Y-121296862D01*
X276356846Y-121261223D01*
X276382483Y-121229983D01*
X276413723Y-121204346D01*
X276449362Y-121185296D01*
X276488032Y-121173565D01*
X276534388Y-121169000D01*
X277185612Y-121169000D01*
X277231968Y-121173565D01*
X277231968Y-121173565D01*
G37*
G36*
X200426968Y-121173565D02*
G01*
X200465638Y-121185296D01*
X200501277Y-121204346D01*
X200532517Y-121229983D01*
X200558154Y-121261223D01*
X200577204Y-121296862D01*
X200588935Y-121335532D01*
X200593500Y-121381888D01*
X200593500Y-122458112D01*
X200588935Y-122504468D01*
X200577204Y-122543138D01*
X200558154Y-122578777D01*
X200532517Y-122610017D01*
X200501277Y-122635654D01*
X200465638Y-122654704D01*
X200426968Y-122666435D01*
X200380612Y-122671000D01*
X199729388Y-122671000D01*
X199683032Y-122666435D01*
X199644362Y-122654704D01*
X199608723Y-122635654D01*
X199577483Y-122610017D01*
X199551846Y-122578777D01*
X199532796Y-122543138D01*
X199521065Y-122504468D01*
X199516500Y-122458112D01*
X199516500Y-121381888D01*
X199521065Y-121335532D01*
X199532796Y-121296862D01*
X199551846Y-121261223D01*
X199577483Y-121229983D01*
X199608723Y-121204346D01*
X199644362Y-121185296D01*
X199683032Y-121173565D01*
X199729388Y-121169000D01*
X200380612Y-121169000D01*
X200426968Y-121173565D01*
X200426968Y-121173565D01*
G37*
G36*
X202301968Y-121173565D02*
G01*
X202340638Y-121185296D01*
X202376277Y-121204346D01*
X202407517Y-121229983D01*
X202433154Y-121261223D01*
X202452204Y-121296862D01*
X202463935Y-121335532D01*
X202468500Y-121381888D01*
X202468500Y-122458112D01*
X202463935Y-122504468D01*
X202452204Y-122543138D01*
X202433154Y-122578777D01*
X202407517Y-122610017D01*
X202376277Y-122635654D01*
X202340638Y-122654704D01*
X202301968Y-122666435D01*
X202255612Y-122671000D01*
X201604388Y-122671000D01*
X201558032Y-122666435D01*
X201519362Y-122654704D01*
X201483723Y-122635654D01*
X201452483Y-122610017D01*
X201426846Y-122578777D01*
X201407796Y-122543138D01*
X201396065Y-122504468D01*
X201391500Y-122458112D01*
X201391500Y-121381888D01*
X201396065Y-121335532D01*
X201407796Y-121296862D01*
X201426846Y-121261223D01*
X201452483Y-121229983D01*
X201483723Y-121204346D01*
X201519362Y-121185296D01*
X201558032Y-121173565D01*
X201604388Y-121169000D01*
X202255612Y-121169000D01*
X202301968Y-121173565D01*
X202301968Y-121173565D01*
G37*
G36*
X225494468Y-118633565D02*
G01*
X225533138Y-118645296D01*
X225568777Y-118664346D01*
X225600017Y-118689983D01*
X225625654Y-118721223D01*
X225644704Y-118756862D01*
X225656435Y-118795532D01*
X225661000Y-118841888D01*
X225661000Y-119918112D01*
X225656435Y-119964468D01*
X225644704Y-120003138D01*
X225625654Y-120038777D01*
X225600017Y-120070017D01*
X225568777Y-120095654D01*
X225533138Y-120114704D01*
X225494468Y-120126435D01*
X225448112Y-120131000D01*
X224796888Y-120131000D01*
X224750532Y-120126435D01*
X224711862Y-120114704D01*
X224676223Y-120095654D01*
X224644983Y-120070017D01*
X224619346Y-120038777D01*
X224600296Y-120003138D01*
X224588565Y-119964468D01*
X224584000Y-119918112D01*
X224584000Y-118841888D01*
X224588565Y-118795532D01*
X224600296Y-118756862D01*
X224619346Y-118721223D01*
X224644983Y-118689983D01*
X224676223Y-118664346D01*
X224711862Y-118645296D01*
X224750532Y-118633565D01*
X224796888Y-118629000D01*
X225448112Y-118629000D01*
X225494468Y-118633565D01*
X225494468Y-118633565D01*
G37*
G36*
X227369468Y-118633565D02*
G01*
X227408138Y-118645296D01*
X227443777Y-118664346D01*
X227475017Y-118689983D01*
X227500654Y-118721223D01*
X227519704Y-118756862D01*
X227531435Y-118795532D01*
X227536000Y-118841888D01*
X227536000Y-119918112D01*
X227531435Y-119964468D01*
X227519704Y-120003138D01*
X227500654Y-120038777D01*
X227475017Y-120070017D01*
X227443777Y-120095654D01*
X227408138Y-120114704D01*
X227369468Y-120126435D01*
X227323112Y-120131000D01*
X226671888Y-120131000D01*
X226625532Y-120126435D01*
X226586862Y-120114704D01*
X226551223Y-120095654D01*
X226519983Y-120070017D01*
X226494346Y-120038777D01*
X226475296Y-120003138D01*
X226463565Y-119964468D01*
X226459000Y-119918112D01*
X226459000Y-118841888D01*
X226463565Y-118795532D01*
X226475296Y-118756862D01*
X226494346Y-118721223D01*
X226519983Y-118689983D01*
X226551223Y-118664346D01*
X226586862Y-118645296D01*
X226625532Y-118633565D01*
X226671888Y-118629000D01*
X227323112Y-118629000D01*
X227369468Y-118633565D01*
X227369468Y-118633565D01*
G37*
G36*
X238526968Y-118633565D02*
G01*
X238565638Y-118645296D01*
X238601277Y-118664346D01*
X238632517Y-118689983D01*
X238658154Y-118721223D01*
X238677204Y-118756862D01*
X238688935Y-118795532D01*
X238693500Y-118841888D01*
X238693500Y-119918112D01*
X238688935Y-119964468D01*
X238677204Y-120003138D01*
X238658154Y-120038777D01*
X238632517Y-120070017D01*
X238601277Y-120095654D01*
X238565638Y-120114704D01*
X238526968Y-120126435D01*
X238480612Y-120131000D01*
X237829388Y-120131000D01*
X237783032Y-120126435D01*
X237744362Y-120114704D01*
X237708723Y-120095654D01*
X237677483Y-120070017D01*
X237651846Y-120038777D01*
X237632796Y-120003138D01*
X237621065Y-119964468D01*
X237616500Y-119918112D01*
X237616500Y-118841888D01*
X237621065Y-118795532D01*
X237632796Y-118756862D01*
X237651846Y-118721223D01*
X237677483Y-118689983D01*
X237708723Y-118664346D01*
X237744362Y-118645296D01*
X237783032Y-118633565D01*
X237829388Y-118629000D01*
X238480612Y-118629000D01*
X238526968Y-118633565D01*
X238526968Y-118633565D01*
G37*
G36*
X240401968Y-118633565D02*
G01*
X240440638Y-118645296D01*
X240476277Y-118664346D01*
X240507517Y-118689983D01*
X240533154Y-118721223D01*
X240552204Y-118756862D01*
X240563935Y-118795532D01*
X240568500Y-118841888D01*
X240568500Y-119918112D01*
X240563935Y-119964468D01*
X240552204Y-120003138D01*
X240533154Y-120038777D01*
X240507517Y-120070017D01*
X240476277Y-120095654D01*
X240440638Y-120114704D01*
X240401968Y-120126435D01*
X240355612Y-120131000D01*
X239704388Y-120131000D01*
X239658032Y-120126435D01*
X239619362Y-120114704D01*
X239583723Y-120095654D01*
X239552483Y-120070017D01*
X239526846Y-120038777D01*
X239507796Y-120003138D01*
X239496065Y-119964468D01*
X239491500Y-119918112D01*
X239491500Y-118841888D01*
X239496065Y-118795532D01*
X239507796Y-118756862D01*
X239526846Y-118721223D01*
X239552483Y-118689983D01*
X239583723Y-118664346D01*
X239619362Y-118645296D01*
X239658032Y-118633565D01*
X239704388Y-118629000D01*
X240355612Y-118629000D01*
X240401968Y-118633565D01*
X240401968Y-118633565D01*
G37*
G36*
X248959468Y-116093565D02*
G01*
X248998138Y-116105296D01*
X249033777Y-116124346D01*
X249065017Y-116149983D01*
X249090654Y-116181223D01*
X249109704Y-116216862D01*
X249121435Y-116255532D01*
X249126000Y-116301888D01*
X249126000Y-117378112D01*
X249121435Y-117424468D01*
X249109704Y-117463138D01*
X249090654Y-117498777D01*
X249065017Y-117530017D01*
X249033777Y-117555654D01*
X248998138Y-117574704D01*
X248959468Y-117586435D01*
X248913112Y-117591000D01*
X248261888Y-117591000D01*
X248215532Y-117586435D01*
X248176862Y-117574704D01*
X248141223Y-117555654D01*
X248109983Y-117530017D01*
X248084346Y-117498777D01*
X248065296Y-117463138D01*
X248053565Y-117424468D01*
X248049000Y-117378112D01*
X248049000Y-116301888D01*
X248053565Y-116255532D01*
X248065296Y-116216862D01*
X248084346Y-116181223D01*
X248109983Y-116149983D01*
X248141223Y-116124346D01*
X248176862Y-116105296D01*
X248215532Y-116093565D01*
X248261888Y-116089000D01*
X248913112Y-116089000D01*
X248959468Y-116093565D01*
X248959468Y-116093565D01*
G37*
G36*
X232781968Y-116093565D02*
G01*
X232820638Y-116105296D01*
X232856277Y-116124346D01*
X232887517Y-116149983D01*
X232913154Y-116181223D01*
X232932204Y-116216862D01*
X232943935Y-116255532D01*
X232948500Y-116301888D01*
X232948500Y-117378112D01*
X232943935Y-117424468D01*
X232932204Y-117463138D01*
X232913154Y-117498777D01*
X232887517Y-117530017D01*
X232856277Y-117555654D01*
X232820638Y-117574704D01*
X232781968Y-117586435D01*
X232735612Y-117591000D01*
X232084388Y-117591000D01*
X232038032Y-117586435D01*
X231999362Y-117574704D01*
X231963723Y-117555654D01*
X231932483Y-117530017D01*
X231906846Y-117498777D01*
X231887796Y-117463138D01*
X231876065Y-117424468D01*
X231871500Y-117378112D01*
X231871500Y-116301888D01*
X231876065Y-116255532D01*
X231887796Y-116216862D01*
X231906846Y-116181223D01*
X231932483Y-116149983D01*
X231963723Y-116124346D01*
X231999362Y-116105296D01*
X232038032Y-116093565D01*
X232084388Y-116089000D01*
X232735612Y-116089000D01*
X232781968Y-116093565D01*
X232781968Y-116093565D01*
G37*
G36*
X266466968Y-116093565D02*
G01*
X266505638Y-116105296D01*
X266541277Y-116124346D01*
X266572517Y-116149983D01*
X266598154Y-116181223D01*
X266617204Y-116216862D01*
X266628935Y-116255532D01*
X266633500Y-116301888D01*
X266633500Y-117378112D01*
X266628935Y-117424468D01*
X266617204Y-117463138D01*
X266598154Y-117498777D01*
X266572517Y-117530017D01*
X266541277Y-117555654D01*
X266505638Y-117574704D01*
X266466968Y-117586435D01*
X266420612Y-117591000D01*
X265769388Y-117591000D01*
X265723032Y-117586435D01*
X265684362Y-117574704D01*
X265648723Y-117555654D01*
X265617483Y-117530017D01*
X265591846Y-117498777D01*
X265572796Y-117463138D01*
X265561065Y-117424468D01*
X265556500Y-117378112D01*
X265556500Y-116301888D01*
X265561065Y-116255532D01*
X265572796Y-116216862D01*
X265591846Y-116181223D01*
X265617483Y-116149983D01*
X265648723Y-116124346D01*
X265684362Y-116105296D01*
X265723032Y-116093565D01*
X265769388Y-116089000D01*
X266420612Y-116089000D01*
X266466968Y-116093565D01*
X266466968Y-116093565D01*
G37*
G36*
X268341968Y-116093565D02*
G01*
X268380638Y-116105296D01*
X268416277Y-116124346D01*
X268447517Y-116149983D01*
X268473154Y-116181223D01*
X268492204Y-116216862D01*
X268503935Y-116255532D01*
X268508500Y-116301888D01*
X268508500Y-117378112D01*
X268503935Y-117424468D01*
X268492204Y-117463138D01*
X268473154Y-117498777D01*
X268447517Y-117530017D01*
X268416277Y-117555654D01*
X268380638Y-117574704D01*
X268341968Y-117586435D01*
X268295612Y-117591000D01*
X267644388Y-117591000D01*
X267598032Y-117586435D01*
X267559362Y-117574704D01*
X267523723Y-117555654D01*
X267492483Y-117530017D01*
X267466846Y-117498777D01*
X267447796Y-117463138D01*
X267436065Y-117424468D01*
X267431500Y-117378112D01*
X267431500Y-116301888D01*
X267436065Y-116255532D01*
X267447796Y-116216862D01*
X267466846Y-116181223D01*
X267492483Y-116149983D01*
X267523723Y-116124346D01*
X267559362Y-116105296D01*
X267598032Y-116093565D01*
X267644388Y-116089000D01*
X268295612Y-116089000D01*
X268341968Y-116093565D01*
X268341968Y-116093565D01*
G37*
G36*
X234656968Y-116093565D02*
G01*
X234695638Y-116105296D01*
X234731277Y-116124346D01*
X234762517Y-116149983D01*
X234788154Y-116181223D01*
X234807204Y-116216862D01*
X234818935Y-116255532D01*
X234823500Y-116301888D01*
X234823500Y-117378112D01*
X234818935Y-117424468D01*
X234807204Y-117463138D01*
X234788154Y-117498777D01*
X234762517Y-117530017D01*
X234731277Y-117555654D01*
X234695638Y-117574704D01*
X234656968Y-117586435D01*
X234610612Y-117591000D01*
X233959388Y-117591000D01*
X233913032Y-117586435D01*
X233874362Y-117574704D01*
X233838723Y-117555654D01*
X233807483Y-117530017D01*
X233781846Y-117498777D01*
X233762796Y-117463138D01*
X233751065Y-117424468D01*
X233746500Y-117378112D01*
X233746500Y-116301888D01*
X233751065Y-116255532D01*
X233762796Y-116216862D01*
X233781846Y-116181223D01*
X233807483Y-116149983D01*
X233838723Y-116124346D01*
X233874362Y-116105296D01*
X233913032Y-116093565D01*
X233959388Y-116089000D01*
X234610612Y-116089000D01*
X234656968Y-116093565D01*
X234656968Y-116093565D01*
G37*
G36*
X247084468Y-116093565D02*
G01*
X247123138Y-116105296D01*
X247158777Y-116124346D01*
X247190017Y-116149983D01*
X247215654Y-116181223D01*
X247234704Y-116216862D01*
X247246435Y-116255532D01*
X247251000Y-116301888D01*
X247251000Y-117378112D01*
X247246435Y-117424468D01*
X247234704Y-117463138D01*
X247215654Y-117498777D01*
X247190017Y-117530017D01*
X247158777Y-117555654D01*
X247123138Y-117574704D01*
X247084468Y-117586435D01*
X247038112Y-117591000D01*
X246386888Y-117591000D01*
X246340532Y-117586435D01*
X246301862Y-117574704D01*
X246266223Y-117555654D01*
X246234983Y-117530017D01*
X246209346Y-117498777D01*
X246190296Y-117463138D01*
X246178565Y-117424468D01*
X246174000Y-117378112D01*
X246174000Y-116301888D01*
X246178565Y-116255532D01*
X246190296Y-116216862D01*
X246209346Y-116181223D01*
X246234983Y-116149983D01*
X246266223Y-116124346D01*
X246301862Y-116105296D01*
X246340532Y-116093565D01*
X246386888Y-116089000D01*
X247038112Y-116089000D01*
X247084468Y-116093565D01*
X247084468Y-116093565D01*
G37*
G36*
X210586968Y-114823565D02*
G01*
X210625638Y-114835296D01*
X210661277Y-114854346D01*
X210692517Y-114879983D01*
X210718154Y-114911223D01*
X210737204Y-114946862D01*
X210748935Y-114985532D01*
X210753500Y-115031888D01*
X210753500Y-116108112D01*
X210748935Y-116154468D01*
X210737204Y-116193138D01*
X210718154Y-116228777D01*
X210692517Y-116260017D01*
X210661277Y-116285654D01*
X210625638Y-116304704D01*
X210586968Y-116316435D01*
X210540612Y-116321000D01*
X209889388Y-116321000D01*
X209843032Y-116316435D01*
X209804362Y-116304704D01*
X209768723Y-116285654D01*
X209737483Y-116260017D01*
X209711846Y-116228777D01*
X209692796Y-116193138D01*
X209681065Y-116154468D01*
X209676500Y-116108112D01*
X209676500Y-115031888D01*
X209681065Y-114985532D01*
X209692796Y-114946862D01*
X209711846Y-114911223D01*
X209737483Y-114879983D01*
X209768723Y-114854346D01*
X209804362Y-114835296D01*
X209843032Y-114823565D01*
X209889388Y-114819000D01*
X210540612Y-114819000D01*
X210586968Y-114823565D01*
X210586968Y-114823565D01*
G37*
G36*
X212461968Y-114823565D02*
G01*
X212500638Y-114835296D01*
X212536277Y-114854346D01*
X212567517Y-114879983D01*
X212593154Y-114911223D01*
X212612204Y-114946862D01*
X212623935Y-114985532D01*
X212628500Y-115031888D01*
X212628500Y-116108112D01*
X212623935Y-116154468D01*
X212612204Y-116193138D01*
X212593154Y-116228777D01*
X212567517Y-116260017D01*
X212536277Y-116285654D01*
X212500638Y-116304704D01*
X212461968Y-116316435D01*
X212415612Y-116321000D01*
X211764388Y-116321000D01*
X211718032Y-116316435D01*
X211679362Y-116304704D01*
X211643723Y-116285654D01*
X211612483Y-116260017D01*
X211586846Y-116228777D01*
X211567796Y-116193138D01*
X211556065Y-116154468D01*
X211551500Y-116108112D01*
X211551500Y-115031888D01*
X211556065Y-114985532D01*
X211567796Y-114946862D01*
X211586846Y-114911223D01*
X211612483Y-114879983D01*
X211643723Y-114854346D01*
X211679362Y-114835296D01*
X211718032Y-114823565D01*
X211764388Y-114819000D01*
X212415612Y-114819000D01*
X212461968Y-114823565D01*
X212461968Y-114823565D01*
G37*
G36*
X238526968Y-112283565D02*
G01*
X238565638Y-112295296D01*
X238601277Y-112314346D01*
X238632517Y-112339983D01*
X238658154Y-112371223D01*
X238677204Y-112406862D01*
X238688935Y-112445532D01*
X238693500Y-112491888D01*
X238693500Y-113568112D01*
X238688935Y-113614468D01*
X238677204Y-113653138D01*
X238658154Y-113688777D01*
X238632517Y-113720017D01*
X238601277Y-113745654D01*
X238565638Y-113764704D01*
X238526968Y-113776435D01*
X238480612Y-113781000D01*
X237829388Y-113781000D01*
X237783032Y-113776435D01*
X237744362Y-113764704D01*
X237708723Y-113745654D01*
X237677483Y-113720017D01*
X237651846Y-113688777D01*
X237632796Y-113653138D01*
X237621065Y-113614468D01*
X237616500Y-113568112D01*
X237616500Y-112491888D01*
X237621065Y-112445532D01*
X237632796Y-112406862D01*
X237651846Y-112371223D01*
X237677483Y-112339983D01*
X237708723Y-112314346D01*
X237744362Y-112295296D01*
X237783032Y-112283565D01*
X237829388Y-112279000D01*
X238480612Y-112279000D01*
X238526968Y-112283565D01*
X238526968Y-112283565D01*
G37*
G36*
X240401968Y-112283565D02*
G01*
X240440638Y-112295296D01*
X240476277Y-112314346D01*
X240507517Y-112339983D01*
X240533154Y-112371223D01*
X240552204Y-112406862D01*
X240563935Y-112445532D01*
X240568500Y-112491888D01*
X240568500Y-113568112D01*
X240563935Y-113614468D01*
X240552204Y-113653138D01*
X240533154Y-113688777D01*
X240507517Y-113720017D01*
X240476277Y-113745654D01*
X240440638Y-113764704D01*
X240401968Y-113776435D01*
X240355612Y-113781000D01*
X239704388Y-113781000D01*
X239658032Y-113776435D01*
X239619362Y-113764704D01*
X239583723Y-113745654D01*
X239552483Y-113720017D01*
X239526846Y-113688777D01*
X239507796Y-113653138D01*
X239496065Y-113614468D01*
X239491500Y-113568112D01*
X239491500Y-112491888D01*
X239496065Y-112445532D01*
X239507796Y-112406862D01*
X239526846Y-112371223D01*
X239552483Y-112339983D01*
X239583723Y-112314346D01*
X239619362Y-112295296D01*
X239658032Y-112283565D01*
X239704388Y-112279000D01*
X240355612Y-112279000D01*
X240401968Y-112283565D01*
X240401968Y-112283565D01*
G37*
G36*
X237826000Y-107586000D02*
G01*
X237154000Y-107586000D01*
X237154000Y-105514000D01*
X237826000Y-105514000D01*
X237826000Y-107586000D01*
X237826000Y-107586000D01*
G37*
G36*
X239096000Y-107586000D02*
G01*
X238424000Y-107586000D01*
X238424000Y-105514000D01*
X239096000Y-105514000D01*
X239096000Y-107586000D01*
X239096000Y-107586000D01*
G37*
G36*
X240366000Y-107586000D02*
G01*
X239694000Y-107586000D01*
X239694000Y-105514000D01*
X240366000Y-105514000D01*
X240366000Y-107586000D01*
X240366000Y-107586000D01*
G37*
G36*
X241636000Y-107586000D02*
G01*
X240964000Y-107586000D01*
X240964000Y-105514000D01*
X241636000Y-105514000D01*
X241636000Y-107586000D01*
X241636000Y-107586000D01*
G37*
G36*
X241636000Y-102636000D02*
G01*
X240964000Y-102636000D01*
X240964000Y-100564000D01*
X241636000Y-100564000D01*
X241636000Y-102636000D01*
X241636000Y-102636000D01*
G37*
G36*
X240366000Y-102636000D02*
G01*
X239694000Y-102636000D01*
X239694000Y-100564000D01*
X240366000Y-100564000D01*
X240366000Y-102636000D01*
X240366000Y-102636000D01*
G37*
G36*
X239096000Y-102636000D02*
G01*
X238424000Y-102636000D01*
X238424000Y-100564000D01*
X239096000Y-100564000D01*
X239096000Y-102636000D01*
X239096000Y-102636000D01*
G37*
G36*
X237826000Y-102636000D02*
G01*
X237154000Y-102636000D01*
X237154000Y-100564000D01*
X237826000Y-100564000D01*
X237826000Y-102636000D01*
X237826000Y-102636000D01*
G37*
G36*
X269611968Y-98313565D02*
G01*
X269650638Y-98325296D01*
X269686277Y-98344346D01*
X269717517Y-98369983D01*
X269743154Y-98401223D01*
X269762204Y-98436862D01*
X269773935Y-98475532D01*
X269778500Y-98521888D01*
X269778500Y-99598112D01*
X269773935Y-99644468D01*
X269762204Y-99683138D01*
X269743154Y-99718777D01*
X269717517Y-99750017D01*
X269686277Y-99775654D01*
X269650638Y-99794704D01*
X269611968Y-99806435D01*
X269565612Y-99811000D01*
X268914388Y-99811000D01*
X268868032Y-99806435D01*
X268829362Y-99794704D01*
X268793723Y-99775654D01*
X268762483Y-99750017D01*
X268736846Y-99718777D01*
X268717796Y-99683138D01*
X268706065Y-99644468D01*
X268701500Y-99598112D01*
X268701500Y-98521888D01*
X268706065Y-98475532D01*
X268717796Y-98436862D01*
X268736846Y-98401223D01*
X268762483Y-98369983D01*
X268793723Y-98344346D01*
X268829362Y-98325296D01*
X268868032Y-98313565D01*
X268914388Y-98309000D01*
X269565612Y-98309000D01*
X269611968Y-98313565D01*
X269611968Y-98313565D01*
G37*
G36*
X267736968Y-98313565D02*
G01*
X267775638Y-98325296D01*
X267811277Y-98344346D01*
X267842517Y-98369983D01*
X267868154Y-98401223D01*
X267887204Y-98436862D01*
X267898935Y-98475532D01*
X267903500Y-98521888D01*
X267903500Y-99598112D01*
X267898935Y-99644468D01*
X267887204Y-99683138D01*
X267868154Y-99718777D01*
X267842517Y-99750017D01*
X267811277Y-99775654D01*
X267775638Y-99794704D01*
X267736968Y-99806435D01*
X267690612Y-99811000D01*
X267039388Y-99811000D01*
X266993032Y-99806435D01*
X266954362Y-99794704D01*
X266918723Y-99775654D01*
X266887483Y-99750017D01*
X266861846Y-99718777D01*
X266842796Y-99683138D01*
X266831065Y-99644468D01*
X266826500Y-99598112D01*
X266826500Y-98521888D01*
X266831065Y-98475532D01*
X266842796Y-98436862D01*
X266861846Y-98401223D01*
X266887483Y-98369983D01*
X266918723Y-98344346D01*
X266954362Y-98325296D01*
X266993032Y-98313565D01*
X267039388Y-98309000D01*
X267690612Y-98309000D01*
X267736968Y-98313565D01*
X267736968Y-98313565D01*
G37*
G36*
X207714468Y-98313565D02*
G01*
X207753138Y-98325296D01*
X207788777Y-98344346D01*
X207820017Y-98369983D01*
X207845654Y-98401223D01*
X207864704Y-98436862D01*
X207876435Y-98475532D01*
X207881000Y-98521888D01*
X207881000Y-99598112D01*
X207876435Y-99644468D01*
X207864704Y-99683138D01*
X207845654Y-99718777D01*
X207820017Y-99750017D01*
X207788777Y-99775654D01*
X207753138Y-99794704D01*
X207714468Y-99806435D01*
X207668112Y-99811000D01*
X207016888Y-99811000D01*
X206970532Y-99806435D01*
X206931862Y-99794704D01*
X206896223Y-99775654D01*
X206864983Y-99750017D01*
X206839346Y-99718777D01*
X206820296Y-99683138D01*
X206808565Y-99644468D01*
X206804000Y-99598112D01*
X206804000Y-98521888D01*
X206808565Y-98475532D01*
X206820296Y-98436862D01*
X206839346Y-98401223D01*
X206864983Y-98369983D01*
X206896223Y-98344346D01*
X206931862Y-98325296D01*
X206970532Y-98313565D01*
X207016888Y-98309000D01*
X207668112Y-98309000D01*
X207714468Y-98313565D01*
X207714468Y-98313565D01*
G37*
G36*
X209589468Y-98313565D02*
G01*
X209628138Y-98325296D01*
X209663777Y-98344346D01*
X209695017Y-98369983D01*
X209720654Y-98401223D01*
X209739704Y-98436862D01*
X209751435Y-98475532D01*
X209756000Y-98521888D01*
X209756000Y-99598112D01*
X209751435Y-99644468D01*
X209739704Y-99683138D01*
X209720654Y-99718777D01*
X209695017Y-99750017D01*
X209663777Y-99775654D01*
X209628138Y-99794704D01*
X209589468Y-99806435D01*
X209543112Y-99811000D01*
X208891888Y-99811000D01*
X208845532Y-99806435D01*
X208806862Y-99794704D01*
X208771223Y-99775654D01*
X208739983Y-99750017D01*
X208714346Y-99718777D01*
X208695296Y-99683138D01*
X208683565Y-99644468D01*
X208679000Y-99598112D01*
X208679000Y-98521888D01*
X208683565Y-98475532D01*
X208695296Y-98436862D01*
X208714346Y-98401223D01*
X208739983Y-98369983D01*
X208771223Y-98344346D01*
X208806862Y-98325296D01*
X208845532Y-98313565D01*
X208891888Y-98309000D01*
X209543112Y-98309000D01*
X209589468Y-98313565D01*
X209589468Y-98313565D01*
G37*
G36*
X223891968Y-94503565D02*
G01*
X223930638Y-94515296D01*
X223966277Y-94534346D01*
X223997517Y-94559983D01*
X224023154Y-94591223D01*
X224042204Y-94626862D01*
X224053935Y-94665532D01*
X224058500Y-94711888D01*
X224058500Y-95788112D01*
X224053935Y-95834468D01*
X224042204Y-95873138D01*
X224023154Y-95908777D01*
X223997517Y-95940017D01*
X223966277Y-95965654D01*
X223930638Y-95984704D01*
X223891968Y-95996435D01*
X223845612Y-96001000D01*
X223194388Y-96001000D01*
X223148032Y-95996435D01*
X223109362Y-95984704D01*
X223073723Y-95965654D01*
X223042483Y-95940017D01*
X223016846Y-95908777D01*
X222997796Y-95873138D01*
X222986065Y-95834468D01*
X222981500Y-95788112D01*
X222981500Y-94711888D01*
X222986065Y-94665532D01*
X222997796Y-94626862D01*
X223016846Y-94591223D01*
X223042483Y-94559983D01*
X223073723Y-94534346D01*
X223109362Y-94515296D01*
X223148032Y-94503565D01*
X223194388Y-94499000D01*
X223845612Y-94499000D01*
X223891968Y-94503565D01*
X223891968Y-94503565D01*
G37*
G36*
X222016968Y-94503565D02*
G01*
X222055638Y-94515296D01*
X222091277Y-94534346D01*
X222122517Y-94559983D01*
X222148154Y-94591223D01*
X222167204Y-94626862D01*
X222178935Y-94665532D01*
X222183500Y-94711888D01*
X222183500Y-95788112D01*
X222178935Y-95834468D01*
X222167204Y-95873138D01*
X222148154Y-95908777D01*
X222122517Y-95940017D01*
X222091277Y-95965654D01*
X222055638Y-95984704D01*
X222016968Y-95996435D01*
X221970612Y-96001000D01*
X221319388Y-96001000D01*
X221273032Y-95996435D01*
X221234362Y-95984704D01*
X221198723Y-95965654D01*
X221167483Y-95940017D01*
X221141846Y-95908777D01*
X221122796Y-95873138D01*
X221111065Y-95834468D01*
X221106500Y-95788112D01*
X221106500Y-94711888D01*
X221111065Y-94665532D01*
X221122796Y-94626862D01*
X221141846Y-94591223D01*
X221167483Y-94559983D01*
X221198723Y-94534346D01*
X221234362Y-94515296D01*
X221273032Y-94503565D01*
X221319388Y-94499000D01*
X221970612Y-94499000D01*
X222016968Y-94503565D01*
X222016968Y-94503565D01*
G37*
G36*
X252496968Y-94503565D02*
G01*
X252535638Y-94515296D01*
X252571277Y-94534346D01*
X252602517Y-94559983D01*
X252628154Y-94591223D01*
X252647204Y-94626862D01*
X252658935Y-94665532D01*
X252663500Y-94711888D01*
X252663500Y-95788112D01*
X252658935Y-95834468D01*
X252647204Y-95873138D01*
X252628154Y-95908777D01*
X252602517Y-95940017D01*
X252571277Y-95965654D01*
X252535638Y-95984704D01*
X252496968Y-95996435D01*
X252450612Y-96001000D01*
X251799388Y-96001000D01*
X251753032Y-95996435D01*
X251714362Y-95984704D01*
X251678723Y-95965654D01*
X251647483Y-95940017D01*
X251621846Y-95908777D01*
X251602796Y-95873138D01*
X251591065Y-95834468D01*
X251586500Y-95788112D01*
X251586500Y-94711888D01*
X251591065Y-94665532D01*
X251602796Y-94626862D01*
X251621846Y-94591223D01*
X251647483Y-94559983D01*
X251678723Y-94534346D01*
X251714362Y-94515296D01*
X251753032Y-94503565D01*
X251799388Y-94499000D01*
X252450612Y-94499000D01*
X252496968Y-94503565D01*
X252496968Y-94503565D01*
G37*
G36*
X254371968Y-94503565D02*
G01*
X254410638Y-94515296D01*
X254446277Y-94534346D01*
X254477517Y-94559983D01*
X254503154Y-94591223D01*
X254522204Y-94626862D01*
X254533935Y-94665532D01*
X254538500Y-94711888D01*
X254538500Y-95788112D01*
X254533935Y-95834468D01*
X254522204Y-95873138D01*
X254503154Y-95908777D01*
X254477517Y-95940017D01*
X254446277Y-95965654D01*
X254410638Y-95984704D01*
X254371968Y-95996435D01*
X254325612Y-96001000D01*
X253674388Y-96001000D01*
X253628032Y-95996435D01*
X253589362Y-95984704D01*
X253553723Y-95965654D01*
X253522483Y-95940017D01*
X253496846Y-95908777D01*
X253477796Y-95873138D01*
X253466065Y-95834468D01*
X253461500Y-95788112D01*
X253461500Y-94711888D01*
X253466065Y-94665532D01*
X253477796Y-94626862D01*
X253496846Y-94591223D01*
X253522483Y-94559983D01*
X253553723Y-94534346D01*
X253589362Y-94515296D01*
X253628032Y-94503565D01*
X253674388Y-94499000D01*
X254325612Y-94499000D01*
X254371968Y-94503565D01*
X254371968Y-94503565D01*
G37*
G36*
X232176968Y-94503565D02*
G01*
X232215638Y-94515296D01*
X232251277Y-94534346D01*
X232282517Y-94559983D01*
X232308154Y-94591223D01*
X232327204Y-94626862D01*
X232338935Y-94665532D01*
X232343500Y-94711888D01*
X232343500Y-95788112D01*
X232338935Y-95834468D01*
X232327204Y-95873138D01*
X232308154Y-95908777D01*
X232282517Y-95940017D01*
X232251277Y-95965654D01*
X232215638Y-95984704D01*
X232176968Y-95996435D01*
X232130612Y-96001000D01*
X231479388Y-96001000D01*
X231433032Y-95996435D01*
X231394362Y-95984704D01*
X231358723Y-95965654D01*
X231327483Y-95940017D01*
X231301846Y-95908777D01*
X231282796Y-95873138D01*
X231271065Y-95834468D01*
X231266500Y-95788112D01*
X231266500Y-94711888D01*
X231271065Y-94665532D01*
X231282796Y-94626862D01*
X231301846Y-94591223D01*
X231327483Y-94559983D01*
X231358723Y-94534346D01*
X231394362Y-94515296D01*
X231433032Y-94503565D01*
X231479388Y-94499000D01*
X232130612Y-94499000D01*
X232176968Y-94503565D01*
X232176968Y-94503565D01*
G37*
G36*
X234051968Y-94503565D02*
G01*
X234090638Y-94515296D01*
X234126277Y-94534346D01*
X234157517Y-94559983D01*
X234183154Y-94591223D01*
X234202204Y-94626862D01*
X234213935Y-94665532D01*
X234218500Y-94711888D01*
X234218500Y-95788112D01*
X234213935Y-95834468D01*
X234202204Y-95873138D01*
X234183154Y-95908777D01*
X234157517Y-95940017D01*
X234126277Y-95965654D01*
X234090638Y-95984704D01*
X234051968Y-95996435D01*
X234005612Y-96001000D01*
X233354388Y-96001000D01*
X233308032Y-95996435D01*
X233269362Y-95984704D01*
X233233723Y-95965654D01*
X233202483Y-95940017D01*
X233176846Y-95908777D01*
X233157796Y-95873138D01*
X233146065Y-95834468D01*
X233141500Y-95788112D01*
X233141500Y-94711888D01*
X233146065Y-94665532D01*
X233157796Y-94626862D01*
X233176846Y-94591223D01*
X233202483Y-94559983D01*
X233233723Y-94534346D01*
X233269362Y-94515296D01*
X233308032Y-94503565D01*
X233354388Y-94499000D01*
X234005612Y-94499000D01*
X234051968Y-94503565D01*
X234051968Y-94503565D01*
G37*
G36*
X240401968Y-91963565D02*
G01*
X240440638Y-91975296D01*
X240476277Y-91994346D01*
X240507517Y-92019983D01*
X240533154Y-92051223D01*
X240552204Y-92086862D01*
X240563935Y-92125532D01*
X240568500Y-92171888D01*
X240568500Y-93248112D01*
X240563935Y-93294468D01*
X240552204Y-93333138D01*
X240533154Y-93368777D01*
X240507517Y-93400017D01*
X240476277Y-93425654D01*
X240440638Y-93444704D01*
X240401968Y-93456435D01*
X240355612Y-93461000D01*
X239704388Y-93461000D01*
X239658032Y-93456435D01*
X239619362Y-93444704D01*
X239583723Y-93425654D01*
X239552483Y-93400017D01*
X239526846Y-93368777D01*
X239507796Y-93333138D01*
X239496065Y-93294468D01*
X239491500Y-93248112D01*
X239491500Y-92171888D01*
X239496065Y-92125532D01*
X239507796Y-92086862D01*
X239526846Y-92051223D01*
X239552483Y-92019983D01*
X239583723Y-91994346D01*
X239619362Y-91975296D01*
X239658032Y-91963565D01*
X239704388Y-91959000D01*
X240355612Y-91959000D01*
X240401968Y-91963565D01*
X240401968Y-91963565D01*
G37*
G36*
X238526968Y-91963565D02*
G01*
X238565638Y-91975296D01*
X238601277Y-91994346D01*
X238632517Y-92019983D01*
X238658154Y-92051223D01*
X238677204Y-92086862D01*
X238688935Y-92125532D01*
X238693500Y-92171888D01*
X238693500Y-93248112D01*
X238688935Y-93294468D01*
X238677204Y-93333138D01*
X238658154Y-93368777D01*
X238632517Y-93400017D01*
X238601277Y-93425654D01*
X238565638Y-93444704D01*
X238526968Y-93456435D01*
X238480612Y-93461000D01*
X237829388Y-93461000D01*
X237783032Y-93456435D01*
X237744362Y-93444704D01*
X237708723Y-93425654D01*
X237677483Y-93400017D01*
X237651846Y-93368777D01*
X237632796Y-93333138D01*
X237621065Y-93294468D01*
X237616500Y-93248112D01*
X237616500Y-92171888D01*
X237621065Y-92125532D01*
X237632796Y-92086862D01*
X237651846Y-92051223D01*
X237677483Y-92019983D01*
X237708723Y-91994346D01*
X237744362Y-91975296D01*
X237783032Y-91963565D01*
X237829388Y-91959000D01*
X238480612Y-91959000D01*
X238526968Y-91963565D01*
X238526968Y-91963565D01*
G37*
G36*
X257576968Y-89423565D02*
G01*
X257615638Y-89435296D01*
X257651277Y-89454346D01*
X257682517Y-89479983D01*
X257708154Y-89511223D01*
X257727204Y-89546862D01*
X257738935Y-89585532D01*
X257743500Y-89631888D01*
X257743500Y-90708112D01*
X257738935Y-90754468D01*
X257727204Y-90793138D01*
X257708154Y-90828777D01*
X257682517Y-90860017D01*
X257651277Y-90885654D01*
X257615638Y-90904704D01*
X257576968Y-90916435D01*
X257530612Y-90921000D01*
X256879388Y-90921000D01*
X256833032Y-90916435D01*
X256794362Y-90904704D01*
X256758723Y-90885654D01*
X256727483Y-90860017D01*
X256701846Y-90828777D01*
X256682796Y-90793138D01*
X256671065Y-90754468D01*
X256666500Y-90708112D01*
X256666500Y-89631888D01*
X256671065Y-89585532D01*
X256682796Y-89546862D01*
X256701846Y-89511223D01*
X256727483Y-89479983D01*
X256758723Y-89454346D01*
X256794362Y-89435296D01*
X256833032Y-89423565D01*
X256879388Y-89419000D01*
X257530612Y-89419000D01*
X257576968Y-89423565D01*
X257576968Y-89423565D01*
G37*
G36*
X221351968Y-89423565D02*
G01*
X221390638Y-89435296D01*
X221426277Y-89454346D01*
X221457517Y-89479983D01*
X221483154Y-89511223D01*
X221502204Y-89546862D01*
X221513935Y-89585532D01*
X221518500Y-89631888D01*
X221518500Y-90708112D01*
X221513935Y-90754468D01*
X221502204Y-90793138D01*
X221483154Y-90828777D01*
X221457517Y-90860017D01*
X221426277Y-90885654D01*
X221390638Y-90904704D01*
X221351968Y-90916435D01*
X221305612Y-90921000D01*
X220654388Y-90921000D01*
X220608032Y-90916435D01*
X220569362Y-90904704D01*
X220533723Y-90885654D01*
X220502483Y-90860017D01*
X220476846Y-90828777D01*
X220457796Y-90793138D01*
X220446065Y-90754468D01*
X220441500Y-90708112D01*
X220441500Y-89631888D01*
X220446065Y-89585532D01*
X220457796Y-89546862D01*
X220476846Y-89511223D01*
X220502483Y-89479983D01*
X220533723Y-89454346D01*
X220569362Y-89435296D01*
X220608032Y-89423565D01*
X220654388Y-89419000D01*
X221305612Y-89419000D01*
X221351968Y-89423565D01*
X221351968Y-89423565D01*
G37*
G36*
X228366968Y-89423565D02*
G01*
X228405638Y-89435296D01*
X228441277Y-89454346D01*
X228472517Y-89479983D01*
X228498154Y-89511223D01*
X228517204Y-89546862D01*
X228528935Y-89585532D01*
X228533500Y-89631888D01*
X228533500Y-90708112D01*
X228528935Y-90754468D01*
X228517204Y-90793138D01*
X228498154Y-90828777D01*
X228472517Y-90860017D01*
X228441277Y-90885654D01*
X228405638Y-90904704D01*
X228366968Y-90916435D01*
X228320612Y-90921000D01*
X227669388Y-90921000D01*
X227623032Y-90916435D01*
X227584362Y-90904704D01*
X227548723Y-90885654D01*
X227517483Y-90860017D01*
X227491846Y-90828777D01*
X227472796Y-90793138D01*
X227461065Y-90754468D01*
X227456500Y-90708112D01*
X227456500Y-89631888D01*
X227461065Y-89585532D01*
X227472796Y-89546862D01*
X227491846Y-89511223D01*
X227517483Y-89479983D01*
X227548723Y-89454346D01*
X227584362Y-89435296D01*
X227623032Y-89423565D01*
X227669388Y-89419000D01*
X228320612Y-89419000D01*
X228366968Y-89423565D01*
X228366968Y-89423565D01*
G37*
G36*
X230241968Y-89423565D02*
G01*
X230280638Y-89435296D01*
X230316277Y-89454346D01*
X230347517Y-89479983D01*
X230373154Y-89511223D01*
X230392204Y-89546862D01*
X230403935Y-89585532D01*
X230408500Y-89631888D01*
X230408500Y-90708112D01*
X230403935Y-90754468D01*
X230392204Y-90793138D01*
X230373154Y-90828777D01*
X230347517Y-90860017D01*
X230316277Y-90885654D01*
X230280638Y-90904704D01*
X230241968Y-90916435D01*
X230195612Y-90921000D01*
X229544388Y-90921000D01*
X229498032Y-90916435D01*
X229459362Y-90904704D01*
X229423723Y-90885654D01*
X229392483Y-90860017D01*
X229366846Y-90828777D01*
X229347796Y-90793138D01*
X229336065Y-90754468D01*
X229331500Y-90708112D01*
X229331500Y-89631888D01*
X229336065Y-89585532D01*
X229347796Y-89546862D01*
X229366846Y-89511223D01*
X229392483Y-89479983D01*
X229423723Y-89454346D01*
X229459362Y-89435296D01*
X229498032Y-89423565D01*
X229544388Y-89419000D01*
X230195612Y-89419000D01*
X230241968Y-89423565D01*
X230241968Y-89423565D01*
G37*
G36*
X250561968Y-89423565D02*
G01*
X250600638Y-89435296D01*
X250636277Y-89454346D01*
X250667517Y-89479983D01*
X250693154Y-89511223D01*
X250712204Y-89546862D01*
X250723935Y-89585532D01*
X250728500Y-89631888D01*
X250728500Y-90708112D01*
X250723935Y-90754468D01*
X250712204Y-90793138D01*
X250693154Y-90828777D01*
X250667517Y-90860017D01*
X250636277Y-90885654D01*
X250600638Y-90904704D01*
X250561968Y-90916435D01*
X250515612Y-90921000D01*
X249864388Y-90921000D01*
X249818032Y-90916435D01*
X249779362Y-90904704D01*
X249743723Y-90885654D01*
X249712483Y-90860017D01*
X249686846Y-90828777D01*
X249667796Y-90793138D01*
X249656065Y-90754468D01*
X249651500Y-90708112D01*
X249651500Y-89631888D01*
X249656065Y-89585532D01*
X249667796Y-89546862D01*
X249686846Y-89511223D01*
X249712483Y-89479983D01*
X249743723Y-89454346D01*
X249779362Y-89435296D01*
X249818032Y-89423565D01*
X249864388Y-89419000D01*
X250515612Y-89419000D01*
X250561968Y-89423565D01*
X250561968Y-89423565D01*
G37*
G36*
X259451968Y-89423565D02*
G01*
X259490638Y-89435296D01*
X259526277Y-89454346D01*
X259557517Y-89479983D01*
X259583154Y-89511223D01*
X259602204Y-89546862D01*
X259613935Y-89585532D01*
X259618500Y-89631888D01*
X259618500Y-90708112D01*
X259613935Y-90754468D01*
X259602204Y-90793138D01*
X259583154Y-90828777D01*
X259557517Y-90860017D01*
X259526277Y-90885654D01*
X259490638Y-90904704D01*
X259451968Y-90916435D01*
X259405612Y-90921000D01*
X258754388Y-90921000D01*
X258708032Y-90916435D01*
X258669362Y-90904704D01*
X258633723Y-90885654D01*
X258602483Y-90860017D01*
X258576846Y-90828777D01*
X258557796Y-90793138D01*
X258546065Y-90754468D01*
X258541500Y-90708112D01*
X258541500Y-89631888D01*
X258546065Y-89585532D01*
X258557796Y-89546862D01*
X258576846Y-89511223D01*
X258602483Y-89479983D01*
X258633723Y-89454346D01*
X258669362Y-89435296D01*
X258708032Y-89423565D01*
X258754388Y-89419000D01*
X259405612Y-89419000D01*
X259451968Y-89423565D01*
X259451968Y-89423565D01*
G37*
G36*
X248686968Y-89423565D02*
G01*
X248725638Y-89435296D01*
X248761277Y-89454346D01*
X248792517Y-89479983D01*
X248818154Y-89511223D01*
X248837204Y-89546862D01*
X248848935Y-89585532D01*
X248853500Y-89631888D01*
X248853500Y-90708112D01*
X248848935Y-90754468D01*
X248837204Y-90793138D01*
X248818154Y-90828777D01*
X248792517Y-90860017D01*
X248761277Y-90885654D01*
X248725638Y-90904704D01*
X248686968Y-90916435D01*
X248640612Y-90921000D01*
X247989388Y-90921000D01*
X247943032Y-90916435D01*
X247904362Y-90904704D01*
X247868723Y-90885654D01*
X247837483Y-90860017D01*
X247811846Y-90828777D01*
X247792796Y-90793138D01*
X247781065Y-90754468D01*
X247776500Y-90708112D01*
X247776500Y-89631888D01*
X247781065Y-89585532D01*
X247792796Y-89546862D01*
X247811846Y-89511223D01*
X247837483Y-89479983D01*
X247868723Y-89454346D01*
X247904362Y-89435296D01*
X247943032Y-89423565D01*
X247989388Y-89419000D01*
X248640612Y-89419000D01*
X248686968Y-89423565D01*
X248686968Y-89423565D01*
G37*
G36*
X219476968Y-89423565D02*
G01*
X219515638Y-89435296D01*
X219551277Y-89454346D01*
X219582517Y-89479983D01*
X219608154Y-89511223D01*
X219627204Y-89546862D01*
X219638935Y-89585532D01*
X219643500Y-89631888D01*
X219643500Y-90708112D01*
X219638935Y-90754468D01*
X219627204Y-90793138D01*
X219608154Y-90828777D01*
X219582517Y-90860017D01*
X219551277Y-90885654D01*
X219515638Y-90904704D01*
X219476968Y-90916435D01*
X219430612Y-90921000D01*
X218779388Y-90921000D01*
X218733032Y-90916435D01*
X218694362Y-90904704D01*
X218658723Y-90885654D01*
X218627483Y-90860017D01*
X218601846Y-90828777D01*
X218582796Y-90793138D01*
X218571065Y-90754468D01*
X218566500Y-90708112D01*
X218566500Y-89631888D01*
X218571065Y-89585532D01*
X218582796Y-89546862D01*
X218601846Y-89511223D01*
X218627483Y-89479983D01*
X218658723Y-89454346D01*
X218694362Y-89435296D01*
X218733032Y-89423565D01*
X218779388Y-89419000D01*
X219430612Y-89419000D01*
X219476968Y-89423565D01*
X219476968Y-89423565D01*
G37*
G36*
X238526968Y-85613565D02*
G01*
X238565638Y-85625296D01*
X238601277Y-85644346D01*
X238632517Y-85669983D01*
X238658154Y-85701223D01*
X238677204Y-85736862D01*
X238688935Y-85775532D01*
X238693500Y-85821888D01*
X238693500Y-86898112D01*
X238688935Y-86944468D01*
X238677204Y-86983138D01*
X238658154Y-87018777D01*
X238632517Y-87050017D01*
X238601277Y-87075654D01*
X238565638Y-87094704D01*
X238526968Y-87106435D01*
X238480612Y-87111000D01*
X237829388Y-87111000D01*
X237783032Y-87106435D01*
X237744362Y-87094704D01*
X237708723Y-87075654D01*
X237677483Y-87050017D01*
X237651846Y-87018777D01*
X237632796Y-86983138D01*
X237621065Y-86944468D01*
X237616500Y-86898112D01*
X237616500Y-85821888D01*
X237621065Y-85775532D01*
X237632796Y-85736862D01*
X237651846Y-85701223D01*
X237677483Y-85669983D01*
X237708723Y-85644346D01*
X237744362Y-85625296D01*
X237783032Y-85613565D01*
X237829388Y-85609000D01*
X238480612Y-85609000D01*
X238526968Y-85613565D01*
X238526968Y-85613565D01*
G37*
G36*
X240401968Y-85613565D02*
G01*
X240440638Y-85625296D01*
X240476277Y-85644346D01*
X240507517Y-85669983D01*
X240533154Y-85701223D01*
X240552204Y-85736862D01*
X240563935Y-85775532D01*
X240568500Y-85821888D01*
X240568500Y-86898112D01*
X240563935Y-86944468D01*
X240552204Y-86983138D01*
X240533154Y-87018777D01*
X240507517Y-87050017D01*
X240476277Y-87075654D01*
X240440638Y-87094704D01*
X240401968Y-87106435D01*
X240355612Y-87111000D01*
X239704388Y-87111000D01*
X239658032Y-87106435D01*
X239619362Y-87094704D01*
X239583723Y-87075654D01*
X239552483Y-87050017D01*
X239526846Y-87018777D01*
X239507796Y-86983138D01*
X239496065Y-86944468D01*
X239491500Y-86898112D01*
X239491500Y-85821888D01*
X239496065Y-85775532D01*
X239507796Y-85736862D01*
X239526846Y-85701223D01*
X239552483Y-85669983D01*
X239583723Y-85644346D01*
X239619362Y-85625296D01*
X239658032Y-85613565D01*
X239704388Y-85609000D01*
X240355612Y-85609000D01*
X240401968Y-85613565D01*
X240401968Y-85613565D01*
G37*
G36*
X233446968Y-81803565D02*
G01*
X233485638Y-81815296D01*
X233521277Y-81834346D01*
X233552517Y-81859983D01*
X233578154Y-81891223D01*
X233597204Y-81926862D01*
X233608935Y-81965532D01*
X233613500Y-82011888D01*
X233613500Y-83088112D01*
X233608935Y-83134468D01*
X233597204Y-83173138D01*
X233578154Y-83208777D01*
X233552517Y-83240017D01*
X233521277Y-83265654D01*
X233485638Y-83284704D01*
X233446968Y-83296435D01*
X233400612Y-83301000D01*
X232749388Y-83301000D01*
X232703032Y-83296435D01*
X232664362Y-83284704D01*
X232628723Y-83265654D01*
X232597483Y-83240017D01*
X232571846Y-83208777D01*
X232552796Y-83173138D01*
X232541065Y-83134468D01*
X232536500Y-83088112D01*
X232536500Y-82011888D01*
X232541065Y-81965532D01*
X232552796Y-81926862D01*
X232571846Y-81891223D01*
X232597483Y-81859983D01*
X232628723Y-81834346D01*
X232664362Y-81815296D01*
X232703032Y-81803565D01*
X232749388Y-81799000D01*
X233400612Y-81799000D01*
X233446968Y-81803565D01*
X233446968Y-81803565D01*
G37*
G36*
X235321968Y-81803565D02*
G01*
X235360638Y-81815296D01*
X235396277Y-81834346D01*
X235427517Y-81859983D01*
X235453154Y-81891223D01*
X235472204Y-81926862D01*
X235483935Y-81965532D01*
X235488500Y-82011888D01*
X235488500Y-83088112D01*
X235483935Y-83134468D01*
X235472204Y-83173138D01*
X235453154Y-83208777D01*
X235427517Y-83240017D01*
X235396277Y-83265654D01*
X235360638Y-83284704D01*
X235321968Y-83296435D01*
X235275612Y-83301000D01*
X234624388Y-83301000D01*
X234578032Y-83296435D01*
X234539362Y-83284704D01*
X234503723Y-83265654D01*
X234472483Y-83240017D01*
X234446846Y-83208777D01*
X234427796Y-83173138D01*
X234416065Y-83134468D01*
X234411500Y-83088112D01*
X234411500Y-82011888D01*
X234416065Y-81965532D01*
X234427796Y-81926862D01*
X234446846Y-81891223D01*
X234472483Y-81859983D01*
X234503723Y-81834346D01*
X234539362Y-81815296D01*
X234578032Y-81803565D01*
X234624388Y-81799000D01*
X235275612Y-81799000D01*
X235321968Y-81803565D01*
X235321968Y-81803565D01*
G37*
G36*
X237891968Y-77993565D02*
G01*
X237930638Y-78005296D01*
X237966277Y-78024346D01*
X237997517Y-78049983D01*
X238023154Y-78081223D01*
X238042204Y-78116862D01*
X238053935Y-78155532D01*
X238058500Y-78201888D01*
X238058500Y-79278112D01*
X238053935Y-79324468D01*
X238042204Y-79363138D01*
X238023154Y-79398777D01*
X237997517Y-79430017D01*
X237966277Y-79455654D01*
X237930638Y-79474704D01*
X237891968Y-79486435D01*
X237845612Y-79491000D01*
X237194388Y-79491000D01*
X237148032Y-79486435D01*
X237109362Y-79474704D01*
X237073723Y-79455654D01*
X237042483Y-79430017D01*
X237016846Y-79398777D01*
X236997796Y-79363138D01*
X236986065Y-79324468D01*
X236981500Y-79278112D01*
X236981500Y-78201888D01*
X236986065Y-78155532D01*
X236997796Y-78116862D01*
X237016846Y-78081223D01*
X237042483Y-78049983D01*
X237073723Y-78024346D01*
X237109362Y-78005296D01*
X237148032Y-77993565D01*
X237194388Y-77989000D01*
X237845612Y-77989000D01*
X237891968Y-77993565D01*
X237891968Y-77993565D01*
G37*
G36*
X213126968Y-77993565D02*
G01*
X213165638Y-78005296D01*
X213201277Y-78024346D01*
X213232517Y-78049983D01*
X213258154Y-78081223D01*
X213277204Y-78116862D01*
X213288935Y-78155532D01*
X213293500Y-78201888D01*
X213293500Y-79278112D01*
X213288935Y-79324468D01*
X213277204Y-79363138D01*
X213258154Y-79398777D01*
X213232517Y-79430017D01*
X213201277Y-79455654D01*
X213165638Y-79474704D01*
X213126968Y-79486435D01*
X213080612Y-79491000D01*
X212429388Y-79491000D01*
X212383032Y-79486435D01*
X212344362Y-79474704D01*
X212308723Y-79455654D01*
X212277483Y-79430017D01*
X212251846Y-79398777D01*
X212232796Y-79363138D01*
X212221065Y-79324468D01*
X212216500Y-79278112D01*
X212216500Y-78201888D01*
X212221065Y-78155532D01*
X212232796Y-78116862D01*
X212251846Y-78081223D01*
X212277483Y-78049983D01*
X212308723Y-78024346D01*
X212344362Y-78005296D01*
X212383032Y-77993565D01*
X212429388Y-77989000D01*
X213080612Y-77989000D01*
X213126968Y-77993565D01*
X213126968Y-77993565D01*
G37*
G36*
X239766968Y-77993565D02*
G01*
X239805638Y-78005296D01*
X239841277Y-78024346D01*
X239872517Y-78049983D01*
X239898154Y-78081223D01*
X239917204Y-78116862D01*
X239928935Y-78155532D01*
X239933500Y-78201888D01*
X239933500Y-79278112D01*
X239928935Y-79324468D01*
X239917204Y-79363138D01*
X239898154Y-79398777D01*
X239872517Y-79430017D01*
X239841277Y-79455654D01*
X239805638Y-79474704D01*
X239766968Y-79486435D01*
X239720612Y-79491000D01*
X239069388Y-79491000D01*
X239023032Y-79486435D01*
X238984362Y-79474704D01*
X238948723Y-79455654D01*
X238917483Y-79430017D01*
X238891846Y-79398777D01*
X238872796Y-79363138D01*
X238861065Y-79324468D01*
X238856500Y-79278112D01*
X238856500Y-78201888D01*
X238861065Y-78155532D01*
X238872796Y-78116862D01*
X238891846Y-78081223D01*
X238917483Y-78049983D01*
X238948723Y-78024346D01*
X238984362Y-78005296D01*
X239023032Y-77993565D01*
X239069388Y-77989000D01*
X239720612Y-77989000D01*
X239766968Y-77993565D01*
X239766968Y-77993565D01*
G37*
G36*
X264531968Y-77993565D02*
G01*
X264570638Y-78005296D01*
X264606277Y-78024346D01*
X264637517Y-78049983D01*
X264663154Y-78081223D01*
X264682204Y-78116862D01*
X264693935Y-78155532D01*
X264698500Y-78201888D01*
X264698500Y-79278112D01*
X264693935Y-79324468D01*
X264682204Y-79363138D01*
X264663154Y-79398777D01*
X264637517Y-79430017D01*
X264606277Y-79455654D01*
X264570638Y-79474704D01*
X264531968Y-79486435D01*
X264485612Y-79491000D01*
X263834388Y-79491000D01*
X263788032Y-79486435D01*
X263749362Y-79474704D01*
X263713723Y-79455654D01*
X263682483Y-79430017D01*
X263656846Y-79398777D01*
X263637796Y-79363138D01*
X263626065Y-79324468D01*
X263621500Y-79278112D01*
X263621500Y-78201888D01*
X263626065Y-78155532D01*
X263637796Y-78116862D01*
X263656846Y-78081223D01*
X263682483Y-78049983D01*
X263713723Y-78024346D01*
X263749362Y-78005296D01*
X263788032Y-77993565D01*
X263834388Y-77989000D01*
X264485612Y-77989000D01*
X264531968Y-77993565D01*
X264531968Y-77993565D01*
G37*
G36*
X262656968Y-77993565D02*
G01*
X262695638Y-78005296D01*
X262731277Y-78024346D01*
X262762517Y-78049983D01*
X262788154Y-78081223D01*
X262807204Y-78116862D01*
X262818935Y-78155532D01*
X262823500Y-78201888D01*
X262823500Y-79278112D01*
X262818935Y-79324468D01*
X262807204Y-79363138D01*
X262788154Y-79398777D01*
X262762517Y-79430017D01*
X262731277Y-79455654D01*
X262695638Y-79474704D01*
X262656968Y-79486435D01*
X262610612Y-79491000D01*
X261959388Y-79491000D01*
X261913032Y-79486435D01*
X261874362Y-79474704D01*
X261838723Y-79455654D01*
X261807483Y-79430017D01*
X261781846Y-79398777D01*
X261762796Y-79363138D01*
X261751065Y-79324468D01*
X261746500Y-79278112D01*
X261746500Y-78201888D01*
X261751065Y-78155532D01*
X261762796Y-78116862D01*
X261781846Y-78081223D01*
X261807483Y-78049983D01*
X261838723Y-78024346D01*
X261874362Y-78005296D01*
X261913032Y-77993565D01*
X261959388Y-77989000D01*
X262610612Y-77989000D01*
X262656968Y-77993565D01*
X262656968Y-77993565D01*
G37*
G36*
X248354468Y-77993565D02*
G01*
X248393138Y-78005296D01*
X248428777Y-78024346D01*
X248460017Y-78049983D01*
X248485654Y-78081223D01*
X248504704Y-78116862D01*
X248516435Y-78155532D01*
X248521000Y-78201888D01*
X248521000Y-79278112D01*
X248516435Y-79324468D01*
X248504704Y-79363138D01*
X248485654Y-79398777D01*
X248460017Y-79430017D01*
X248428777Y-79455654D01*
X248393138Y-79474704D01*
X248354468Y-79486435D01*
X248308112Y-79491000D01*
X247656888Y-79491000D01*
X247610532Y-79486435D01*
X247571862Y-79474704D01*
X247536223Y-79455654D01*
X247504983Y-79430017D01*
X247479346Y-79398777D01*
X247460296Y-79363138D01*
X247448565Y-79324468D01*
X247444000Y-79278112D01*
X247444000Y-78201888D01*
X247448565Y-78155532D01*
X247460296Y-78116862D01*
X247479346Y-78081223D01*
X247504983Y-78049983D01*
X247536223Y-78024346D01*
X247571862Y-78005296D01*
X247610532Y-77993565D01*
X247656888Y-77989000D01*
X248308112Y-77989000D01*
X248354468Y-77993565D01*
X248354468Y-77993565D01*
G37*
G36*
X228971968Y-77993565D02*
G01*
X229010638Y-78005296D01*
X229046277Y-78024346D01*
X229077517Y-78049983D01*
X229103154Y-78081223D01*
X229122204Y-78116862D01*
X229133935Y-78155532D01*
X229138500Y-78201888D01*
X229138500Y-79278112D01*
X229133935Y-79324468D01*
X229122204Y-79363138D01*
X229103154Y-79398777D01*
X229077517Y-79430017D01*
X229046277Y-79455654D01*
X229010638Y-79474704D01*
X228971968Y-79486435D01*
X228925612Y-79491000D01*
X228274388Y-79491000D01*
X228228032Y-79486435D01*
X228189362Y-79474704D01*
X228153723Y-79455654D01*
X228122483Y-79430017D01*
X228096846Y-79398777D01*
X228077796Y-79363138D01*
X228066065Y-79324468D01*
X228061500Y-79278112D01*
X228061500Y-78201888D01*
X228066065Y-78155532D01*
X228077796Y-78116862D01*
X228096846Y-78081223D01*
X228122483Y-78049983D01*
X228153723Y-78024346D01*
X228189362Y-78005296D01*
X228228032Y-77993565D01*
X228274388Y-77989000D01*
X228925612Y-77989000D01*
X228971968Y-77993565D01*
X228971968Y-77993565D01*
G37*
G36*
X227096968Y-77993565D02*
G01*
X227135638Y-78005296D01*
X227171277Y-78024346D01*
X227202517Y-78049983D01*
X227228154Y-78081223D01*
X227247204Y-78116862D01*
X227258935Y-78155532D01*
X227263500Y-78201888D01*
X227263500Y-79278112D01*
X227258935Y-79324468D01*
X227247204Y-79363138D01*
X227228154Y-79398777D01*
X227202517Y-79430017D01*
X227171277Y-79455654D01*
X227135638Y-79474704D01*
X227096968Y-79486435D01*
X227050612Y-79491000D01*
X226399388Y-79491000D01*
X226353032Y-79486435D01*
X226314362Y-79474704D01*
X226278723Y-79455654D01*
X226247483Y-79430017D01*
X226221846Y-79398777D01*
X226202796Y-79363138D01*
X226191065Y-79324468D01*
X226186500Y-79278112D01*
X226186500Y-78201888D01*
X226191065Y-78155532D01*
X226202796Y-78116862D01*
X226221846Y-78081223D01*
X226247483Y-78049983D01*
X226278723Y-78024346D01*
X226314362Y-78005296D01*
X226353032Y-77993565D01*
X226399388Y-77989000D01*
X227050612Y-77989000D01*
X227096968Y-77993565D01*
X227096968Y-77993565D01*
G37*
G36*
X250229468Y-77993565D02*
G01*
X250268138Y-78005296D01*
X250303777Y-78024346D01*
X250335017Y-78049983D01*
X250360654Y-78081223D01*
X250379704Y-78116862D01*
X250391435Y-78155532D01*
X250396000Y-78201888D01*
X250396000Y-79278112D01*
X250391435Y-79324468D01*
X250379704Y-79363138D01*
X250360654Y-79398777D01*
X250335017Y-79430017D01*
X250303777Y-79455654D01*
X250268138Y-79474704D01*
X250229468Y-79486435D01*
X250183112Y-79491000D01*
X249531888Y-79491000D01*
X249485532Y-79486435D01*
X249446862Y-79474704D01*
X249411223Y-79455654D01*
X249379983Y-79430017D01*
X249354346Y-79398777D01*
X249335296Y-79363138D01*
X249323565Y-79324468D01*
X249319000Y-79278112D01*
X249319000Y-78201888D01*
X249323565Y-78155532D01*
X249335296Y-78116862D01*
X249354346Y-78081223D01*
X249379983Y-78049983D01*
X249411223Y-78024346D01*
X249446862Y-78005296D01*
X249485532Y-77993565D01*
X249531888Y-77989000D01*
X250183112Y-77989000D01*
X250229468Y-77993565D01*
X250229468Y-77993565D01*
G37*
G36*
X215001968Y-77993565D02*
G01*
X215040638Y-78005296D01*
X215076277Y-78024346D01*
X215107517Y-78049983D01*
X215133154Y-78081223D01*
X215152204Y-78116862D01*
X215163935Y-78155532D01*
X215168500Y-78201888D01*
X215168500Y-79278112D01*
X215163935Y-79324468D01*
X215152204Y-79363138D01*
X215133154Y-79398777D01*
X215107517Y-79430017D01*
X215076277Y-79455654D01*
X215040638Y-79474704D01*
X215001968Y-79486435D01*
X214955612Y-79491000D01*
X214304388Y-79491000D01*
X214258032Y-79486435D01*
X214219362Y-79474704D01*
X214183723Y-79455654D01*
X214152483Y-79430017D01*
X214126846Y-79398777D01*
X214107796Y-79363138D01*
X214096065Y-79324468D01*
X214091500Y-79278112D01*
X214091500Y-78201888D01*
X214096065Y-78155532D01*
X214107796Y-78116862D01*
X214126846Y-78081223D01*
X214152483Y-78049983D01*
X214183723Y-78024346D01*
X214219362Y-78005296D01*
X214258032Y-77993565D01*
X214304388Y-77989000D01*
X214955612Y-77989000D01*
X215001968Y-77993565D01*
X215001968Y-77993565D01*
G37*
G36*
X231844468Y-72913565D02*
G01*
X231883138Y-72925296D01*
X231918777Y-72944346D01*
X231950017Y-72969983D01*
X231975654Y-73001223D01*
X231994704Y-73036862D01*
X232006435Y-73075532D01*
X232011000Y-73121888D01*
X232011000Y-74198112D01*
X232006435Y-74244468D01*
X231994704Y-74283138D01*
X231975654Y-74318777D01*
X231950017Y-74350017D01*
X231918777Y-74375654D01*
X231883138Y-74394704D01*
X231844468Y-74406435D01*
X231798112Y-74411000D01*
X231146888Y-74411000D01*
X231100532Y-74406435D01*
X231061862Y-74394704D01*
X231026223Y-74375654D01*
X230994983Y-74350017D01*
X230969346Y-74318777D01*
X230950296Y-74283138D01*
X230938565Y-74244468D01*
X230934000Y-74198112D01*
X230934000Y-73121888D01*
X230938565Y-73075532D01*
X230950296Y-73036862D01*
X230969346Y-73001223D01*
X230994983Y-72969983D01*
X231026223Y-72944346D01*
X231061862Y-72925296D01*
X231100532Y-72913565D01*
X231146888Y-72909000D01*
X231798112Y-72909000D01*
X231844468Y-72913565D01*
X231844468Y-72913565D01*
G37*
G36*
X233719468Y-72913565D02*
G01*
X233758138Y-72925296D01*
X233793777Y-72944346D01*
X233825017Y-72969983D01*
X233850654Y-73001223D01*
X233869704Y-73036862D01*
X233881435Y-73075532D01*
X233886000Y-73121888D01*
X233886000Y-74198112D01*
X233881435Y-74244468D01*
X233869704Y-74283138D01*
X233850654Y-74318777D01*
X233825017Y-74350017D01*
X233793777Y-74375654D01*
X233758138Y-74394704D01*
X233719468Y-74406435D01*
X233673112Y-74411000D01*
X233021888Y-74411000D01*
X232975532Y-74406435D01*
X232936862Y-74394704D01*
X232901223Y-74375654D01*
X232869983Y-74350017D01*
X232844346Y-74318777D01*
X232825296Y-74283138D01*
X232813565Y-74244468D01*
X232809000Y-74198112D01*
X232809000Y-73121888D01*
X232813565Y-73075532D01*
X232825296Y-73036862D01*
X232844346Y-73001223D01*
X232869983Y-72969983D01*
X232901223Y-72944346D01*
X232936862Y-72925296D01*
X232975532Y-72913565D01*
X233021888Y-72909000D01*
X233673112Y-72909000D01*
X233719468Y-72913565D01*
X233719468Y-72913565D01*
G37*
G36*
X244211968Y-72913565D02*
G01*
X244250638Y-72925296D01*
X244286277Y-72944346D01*
X244317517Y-72969983D01*
X244343154Y-73001223D01*
X244362204Y-73036862D01*
X244373935Y-73075532D01*
X244378500Y-73121888D01*
X244378500Y-74198112D01*
X244373935Y-74244468D01*
X244362204Y-74283138D01*
X244343154Y-74318777D01*
X244317517Y-74350017D01*
X244286277Y-74375654D01*
X244250638Y-74394704D01*
X244211968Y-74406435D01*
X244165612Y-74411000D01*
X243514388Y-74411000D01*
X243468032Y-74406435D01*
X243429362Y-74394704D01*
X243393723Y-74375654D01*
X243362483Y-74350017D01*
X243336846Y-74318777D01*
X243317796Y-74283138D01*
X243306065Y-74244468D01*
X243301500Y-74198112D01*
X243301500Y-73121888D01*
X243306065Y-73075532D01*
X243317796Y-73036862D01*
X243336846Y-73001223D01*
X243362483Y-72969983D01*
X243393723Y-72944346D01*
X243429362Y-72925296D01*
X243468032Y-72913565D01*
X243514388Y-72909000D01*
X244165612Y-72909000D01*
X244211968Y-72913565D01*
X244211968Y-72913565D01*
G37*
G36*
X246086968Y-72913565D02*
G01*
X246125638Y-72925296D01*
X246161277Y-72944346D01*
X246192517Y-72969983D01*
X246218154Y-73001223D01*
X246237204Y-73036862D01*
X246248935Y-73075532D01*
X246253500Y-73121888D01*
X246253500Y-74198112D01*
X246248935Y-74244468D01*
X246237204Y-74283138D01*
X246218154Y-74318777D01*
X246192517Y-74350017D01*
X246161277Y-74375654D01*
X246125638Y-74394704D01*
X246086968Y-74406435D01*
X246040612Y-74411000D01*
X245389388Y-74411000D01*
X245343032Y-74406435D01*
X245304362Y-74394704D01*
X245268723Y-74375654D01*
X245237483Y-74350017D01*
X245211846Y-74318777D01*
X245192796Y-74283138D01*
X245181065Y-74244468D01*
X245176500Y-74198112D01*
X245176500Y-73121888D01*
X245181065Y-73075532D01*
X245192796Y-73036862D01*
X245211846Y-73001223D01*
X245237483Y-72969983D01*
X245268723Y-72944346D01*
X245304362Y-72925296D01*
X245343032Y-72913565D01*
X245389388Y-72909000D01*
X246040612Y-72909000D01*
X246086968Y-72913565D01*
X246086968Y-72913565D01*
G37*
G36*
X239344468Y-70586065D02*
G01*
X239383138Y-70597796D01*
X239418777Y-70616846D01*
X239450017Y-70642483D01*
X239475654Y-70673723D01*
X239494704Y-70709362D01*
X239506435Y-70748032D01*
X239511000Y-70794388D01*
X239511000Y-71445612D01*
X239506435Y-71491968D01*
X239494704Y-71530638D01*
X239475654Y-71566277D01*
X239450017Y-71597517D01*
X239418777Y-71623154D01*
X239383138Y-71642204D01*
X239344468Y-71653935D01*
X239298112Y-71658500D01*
X238221888Y-71658500D01*
X238175532Y-71653935D01*
X238136862Y-71642204D01*
X238101223Y-71623154D01*
X238069983Y-71597517D01*
X238044346Y-71566277D01*
X238025296Y-71530638D01*
X238013565Y-71491968D01*
X238009000Y-71445612D01*
X238009000Y-70794388D01*
X238013565Y-70748032D01*
X238025296Y-70709362D01*
X238044346Y-70673723D01*
X238069983Y-70642483D01*
X238101223Y-70616846D01*
X238136862Y-70597796D01*
X238175532Y-70586065D01*
X238221888Y-70581500D01*
X239298112Y-70581500D01*
X239344468Y-70586065D01*
X239344468Y-70586065D01*
G37*
G36*
X225826968Y-69103565D02*
G01*
X225865638Y-69115296D01*
X225901277Y-69134346D01*
X225932517Y-69159983D01*
X225958154Y-69191223D01*
X225977204Y-69226862D01*
X225988935Y-69265532D01*
X225993500Y-69311888D01*
X225993500Y-70388112D01*
X225988935Y-70434468D01*
X225977204Y-70473138D01*
X225958154Y-70508777D01*
X225932517Y-70540017D01*
X225901277Y-70565654D01*
X225865638Y-70584704D01*
X225826968Y-70596435D01*
X225780612Y-70601000D01*
X225129388Y-70601000D01*
X225083032Y-70596435D01*
X225044362Y-70584704D01*
X225008723Y-70565654D01*
X224977483Y-70540017D01*
X224951846Y-70508777D01*
X224932796Y-70473138D01*
X224921065Y-70434468D01*
X224916500Y-70388112D01*
X224916500Y-69311888D01*
X224921065Y-69265532D01*
X224932796Y-69226862D01*
X224951846Y-69191223D01*
X224977483Y-69159983D01*
X225008723Y-69134346D01*
X225044362Y-69115296D01*
X225083032Y-69103565D01*
X225129388Y-69099000D01*
X225780612Y-69099000D01*
X225826968Y-69103565D01*
X225826968Y-69103565D01*
G37*
G36*
X227701968Y-69103565D02*
G01*
X227740638Y-69115296D01*
X227776277Y-69134346D01*
X227807517Y-69159983D01*
X227833154Y-69191223D01*
X227852204Y-69226862D01*
X227863935Y-69265532D01*
X227868500Y-69311888D01*
X227868500Y-70388112D01*
X227863935Y-70434468D01*
X227852204Y-70473138D01*
X227833154Y-70508777D01*
X227807517Y-70540017D01*
X227776277Y-70565654D01*
X227740638Y-70584704D01*
X227701968Y-70596435D01*
X227655612Y-70601000D01*
X227004388Y-70601000D01*
X226958032Y-70596435D01*
X226919362Y-70584704D01*
X226883723Y-70565654D01*
X226852483Y-70540017D01*
X226826846Y-70508777D01*
X226807796Y-70473138D01*
X226796065Y-70434468D01*
X226791500Y-70388112D01*
X226791500Y-69311888D01*
X226796065Y-69265532D01*
X226807796Y-69226862D01*
X226826846Y-69191223D01*
X226852483Y-69159983D01*
X226883723Y-69134346D01*
X226919362Y-69115296D01*
X226958032Y-69103565D01*
X227004388Y-69099000D01*
X227655612Y-69099000D01*
X227701968Y-69103565D01*
X227701968Y-69103565D01*
G37*
G36*
X251226968Y-69103565D02*
G01*
X251265638Y-69115296D01*
X251301277Y-69134346D01*
X251332517Y-69159983D01*
X251358154Y-69191223D01*
X251377204Y-69226862D01*
X251388935Y-69265532D01*
X251393500Y-69311888D01*
X251393500Y-70388112D01*
X251388935Y-70434468D01*
X251377204Y-70473138D01*
X251358154Y-70508777D01*
X251332517Y-70540017D01*
X251301277Y-70565654D01*
X251265638Y-70584704D01*
X251226968Y-70596435D01*
X251180612Y-70601000D01*
X250529388Y-70601000D01*
X250483032Y-70596435D01*
X250444362Y-70584704D01*
X250408723Y-70565654D01*
X250377483Y-70540017D01*
X250351846Y-70508777D01*
X250332796Y-70473138D01*
X250321065Y-70434468D01*
X250316500Y-70388112D01*
X250316500Y-69311888D01*
X250321065Y-69265532D01*
X250332796Y-69226862D01*
X250351846Y-69191223D01*
X250377483Y-69159983D01*
X250408723Y-69134346D01*
X250444362Y-69115296D01*
X250483032Y-69103565D01*
X250529388Y-69099000D01*
X251180612Y-69099000D01*
X251226968Y-69103565D01*
X251226968Y-69103565D01*
G37*
G36*
X253101968Y-69103565D02*
G01*
X253140638Y-69115296D01*
X253176277Y-69134346D01*
X253207517Y-69159983D01*
X253233154Y-69191223D01*
X253252204Y-69226862D01*
X253263935Y-69265532D01*
X253268500Y-69311888D01*
X253268500Y-70388112D01*
X253263935Y-70434468D01*
X253252204Y-70473138D01*
X253233154Y-70508777D01*
X253207517Y-70540017D01*
X253176277Y-70565654D01*
X253140638Y-70584704D01*
X253101968Y-70596435D01*
X253055612Y-70601000D01*
X252404388Y-70601000D01*
X252358032Y-70596435D01*
X252319362Y-70584704D01*
X252283723Y-70565654D01*
X252252483Y-70540017D01*
X252226846Y-70508777D01*
X252207796Y-70473138D01*
X252196065Y-70434468D01*
X252191500Y-70388112D01*
X252191500Y-69311888D01*
X252196065Y-69265532D01*
X252207796Y-69226862D01*
X252226846Y-69191223D01*
X252252483Y-69159983D01*
X252283723Y-69134346D01*
X252319362Y-69115296D01*
X252358032Y-69103565D01*
X252404388Y-69099000D01*
X253055612Y-69099000D01*
X253101968Y-69103565D01*
X253101968Y-69103565D01*
G37*
G36*
X239344468Y-68711065D02*
G01*
X239383138Y-68722796D01*
X239418777Y-68741846D01*
X239450017Y-68767483D01*
X239475654Y-68798723D01*
X239494704Y-68834362D01*
X239506435Y-68873032D01*
X239511000Y-68919388D01*
X239511000Y-69570612D01*
X239506435Y-69616968D01*
X239494704Y-69655638D01*
X239475654Y-69691277D01*
X239450017Y-69722517D01*
X239418777Y-69748154D01*
X239383138Y-69767204D01*
X239344468Y-69778935D01*
X239298112Y-69783500D01*
X238221888Y-69783500D01*
X238175532Y-69778935D01*
X238136862Y-69767204D01*
X238101223Y-69748154D01*
X238069983Y-69722517D01*
X238044346Y-69691277D01*
X238025296Y-69655638D01*
X238013565Y-69616968D01*
X238009000Y-69570612D01*
X238009000Y-68919388D01*
X238013565Y-68873032D01*
X238025296Y-68834362D01*
X238044346Y-68798723D01*
X238069983Y-68767483D01*
X238101223Y-68741846D01*
X238136862Y-68722796D01*
X238175532Y-68711065D01*
X238221888Y-68706500D01*
X239298112Y-68706500D01*
X239344468Y-68711065D01*
X239344468Y-68711065D01*
G37*
G36*
X240069468Y-65293565D02*
G01*
X240108138Y-65305296D01*
X240143777Y-65324346D01*
X240175017Y-65349983D01*
X240200654Y-65381223D01*
X240219704Y-65416862D01*
X240231435Y-65455532D01*
X240236000Y-65501888D01*
X240236000Y-66578112D01*
X240231435Y-66624468D01*
X240219704Y-66663138D01*
X240200654Y-66698777D01*
X240175017Y-66730017D01*
X240143777Y-66755654D01*
X240108138Y-66774704D01*
X240069468Y-66786435D01*
X240023112Y-66791000D01*
X239371888Y-66791000D01*
X239325532Y-66786435D01*
X239286862Y-66774704D01*
X239251223Y-66755654D01*
X239219983Y-66730017D01*
X239194346Y-66698777D01*
X239175296Y-66663138D01*
X239163565Y-66624468D01*
X239159000Y-66578112D01*
X239159000Y-65501888D01*
X239163565Y-65455532D01*
X239175296Y-65416862D01*
X239194346Y-65381223D01*
X239219983Y-65349983D01*
X239251223Y-65324346D01*
X239286862Y-65305296D01*
X239325532Y-65293565D01*
X239371888Y-65289000D01*
X240023112Y-65289000D01*
X240069468Y-65293565D01*
X240069468Y-65293565D01*
G37*
G36*
X238194468Y-65293565D02*
G01*
X238233138Y-65305296D01*
X238268777Y-65324346D01*
X238300017Y-65349983D01*
X238325654Y-65381223D01*
X238344704Y-65416862D01*
X238356435Y-65455532D01*
X238361000Y-65501888D01*
X238361000Y-66578112D01*
X238356435Y-66624468D01*
X238344704Y-66663138D01*
X238325654Y-66698777D01*
X238300017Y-66730017D01*
X238268777Y-66755654D01*
X238233138Y-66774704D01*
X238194468Y-66786435D01*
X238148112Y-66791000D01*
X237496888Y-66791000D01*
X237450532Y-66786435D01*
X237411862Y-66774704D01*
X237376223Y-66755654D01*
X237344983Y-66730017D01*
X237319346Y-66698777D01*
X237300296Y-66663138D01*
X237288565Y-66624468D01*
X237284000Y-66578112D01*
X237284000Y-65501888D01*
X237288565Y-65455532D01*
X237300296Y-65416862D01*
X237319346Y-65381223D01*
X237344983Y-65349983D01*
X237376223Y-65324346D01*
X237411862Y-65305296D01*
X237450532Y-65293565D01*
X237496888Y-65289000D01*
X238148112Y-65289000D01*
X238194468Y-65293565D01*
X238194468Y-65293565D01*
G37*
G36*
X239504098Y-57999033D02*
G01*
X239968350Y-58191332D01*
X239968352Y-58191333D01*
X240386168Y-58470509D01*
X240741491Y-58825832D01*
X240876575Y-59028000D01*
X241020668Y-59243650D01*
X241212967Y-59707902D01*
X241311000Y-60200747D01*
X241311000Y-60703253D01*
X241212967Y-61196098D01*
X241091093Y-61490329D01*
X241020667Y-61660352D01*
X240741491Y-62078168D01*
X240386168Y-62433491D01*
X239968352Y-62712667D01*
X239968351Y-62712668D01*
X239968350Y-62712668D01*
X239504098Y-62904967D01*
X239011253Y-63003000D01*
X238508747Y-63003000D01*
X238015902Y-62904967D01*
X237551650Y-62712668D01*
X237551649Y-62712668D01*
X237551648Y-62712667D01*
X237133832Y-62433491D01*
X236778509Y-62078168D01*
X236499333Y-61660352D01*
X236428907Y-61490329D01*
X236307033Y-61196098D01*
X236209000Y-60703253D01*
X236209000Y-60200747D01*
X236307033Y-59707902D01*
X236499332Y-59243650D01*
X236643425Y-59028000D01*
X236778509Y-58825832D01*
X237133832Y-58470509D01*
X237551648Y-58191333D01*
X237551650Y-58191332D01*
X238015902Y-57999033D01*
X238508747Y-57901000D01*
X239011253Y-57901000D01*
X239504098Y-57999033D01*
X239504098Y-57999033D01*
G37*
M02*
