G04 #@! TF.GenerationSoftware,KiCad,Pcbnew,5.1.4-3.fc30*
G04 #@! TF.CreationDate,2019-12-08T15:57:42-08:00*
G04 #@! TF.ProjectId,ChristmasTree,43687269-7374-46d6-9173-547265652e6b,rev?*
G04 #@! TF.SameCoordinates,Original*
G04 #@! TF.FileFunction,Copper,L2,Bot*
G04 #@! TF.FilePolarity,Positive*
%FSLAX46Y46*%
G04 Gerber Fmt 4.6, Leading zero omitted, Abs format (unit mm)*
G04 Created by KiCad (PCBNEW 5.1.4-3.fc30) date 2019-12-08 15:57:42*
%MOMM*%
%LPD*%
G04 APERTURE LIST*
%ADD10R,5.100000X5.100000*%
%ADD11C,12.000000*%
%ADD12C,5.000000*%
%ADD13C,0.800000*%
%ADD14C,0.250000*%
G04 APERTURE END LIST*
D10*
X251560000Y-104140000D03*
X225960000Y-104140000D03*
D11*
X238760000Y-104140000D03*
D12*
X238760000Y-60452000D03*
D13*
X240635000Y-60452000D03*
X240085825Y-61777825D03*
X238760000Y-62327000D03*
X237434175Y-61777825D03*
X236885000Y-60452000D03*
X237434175Y-59126175D03*
X238760000Y-58577000D03*
X240085825Y-59126175D03*
X234696000Y-136652000D03*
X245364000Y-112776000D03*
X251460000Y-109728000D03*
X237490000Y-83820000D03*
X231140000Y-102870000D03*
X231140000Y-109220000D03*
X246380000Y-83820000D03*
X247650000Y-93980000D03*
X228600000Y-115316000D03*
X241300000Y-115824000D03*
X233680000Y-134620000D03*
X231140000Y-130810000D03*
X254000000Y-99060000D03*
X245110000Y-123190000D03*
X215900000Y-118110000D03*
X222250000Y-100330000D03*
X245110000Y-91440000D03*
X246888000Y-101600000D03*
X243332000Y-117856000D03*
X222250000Y-86360000D03*
X226060000Y-90170000D03*
X212090000Y-95250000D03*
X217170000Y-99060000D03*
X234950000Y-72390000D03*
X241300000Y-72390000D03*
X229870000Y-76200000D03*
X231140000Y-86360000D03*
X248920000Y-74930000D03*
X252730000Y-88900000D03*
X248920000Y-87630000D03*
X256540000Y-109220000D03*
X248920000Y-121920000D03*
X240030000Y-125730000D03*
D14*
X225960000Y-104140000D02*
X225960000Y-118772000D01*
X225960000Y-118772000D02*
X231648000Y-124460000D01*
X231648000Y-124460000D02*
X234696000Y-127508000D01*
X234696000Y-127508000D02*
X234696000Y-136652000D01*
X231796000Y-112776000D02*
X245364000Y-112776000D01*
X225960000Y-104140000D02*
X225960000Y-106940000D01*
X225960000Y-106940000D02*
X231796000Y-112776000D01*
X251460000Y-104240000D02*
X251560000Y-104140000D01*
X251460000Y-109728000D02*
X251460000Y-104240000D01*
X237490000Y-83820000D02*
X231140000Y-90170000D01*
X231140000Y-90170000D02*
X231140000Y-102870000D01*
X236220000Y-104140000D02*
X238760000Y-104140000D01*
X231140000Y-109220000D02*
X236220000Y-104140000D01*
X246380000Y-83820000D02*
X247650000Y-85090000D01*
X247650000Y-85090000D02*
X247650000Y-93980000D01*
X228600000Y-115316000D02*
X229108000Y-115824000D01*
X229108000Y-115824000D02*
X241300000Y-115824000D01*
X233680000Y-134620000D02*
X233680000Y-133350000D01*
X233680000Y-133350000D02*
X231140000Y-130810000D01*
X245110000Y-123350000D02*
X245110000Y-123190000D01*
X215900000Y-118110000D02*
X222250000Y-111760000D01*
X222250000Y-111760000D02*
X222250000Y-100330000D01*
X243332000Y-116840000D02*
X243332000Y-117856000D01*
X246888000Y-101600000D02*
X246888000Y-113284000D01*
X246888000Y-113284000D02*
X243332000Y-116840000D01*
X222250000Y-86360000D02*
X226060000Y-90170000D01*
X212090000Y-95250000D02*
X213360000Y-95250000D01*
X213360000Y-95250000D02*
X217170000Y-99060000D01*
X234950000Y-72390000D02*
X241300000Y-72390000D01*
X229870000Y-76200000D02*
X229870000Y-85090000D01*
X229870000Y-85090000D02*
X231140000Y-86360000D01*
X248920000Y-74930000D02*
X248920000Y-85090000D01*
X248920000Y-85090000D02*
X252730000Y-88900000D01*
X248920000Y-87630000D02*
X255270000Y-93980000D01*
X255270000Y-93980000D02*
X255270000Y-105410000D01*
X255270000Y-105410000D02*
X255270000Y-107950000D01*
X255270000Y-107950000D02*
X256540000Y-109220000D01*
X245110000Y-125730000D02*
X248920000Y-121920000D01*
X240030000Y-125730000D02*
X245110000Y-125730000D01*
M02*
