M48
; DRILL file {KiCad 5.1.4-3.fc30} date Sun 08 Dec 2019 03:57:50 PM PST
; FORMAT={-:-/ absolute / inch / decimal}
; #@! TF.CreationDate,2019-12-08T15:57:50-08:00
; #@! TF.GenerationSoftware,Kicad,Pcbnew,5.1.4-3.fc30
; #@! TF.FileFunction,Plated,1,2,PTH
FMAT,2
INCH
T1C0.0157
T2C0.0197
T3C0.0984
%
G90
G05
T1
X8.35Y-3.75
X8.5Y-4.65
X8.55Y-3.9
X8.75Y-3.4
X8.75Y-3.95
X8.9Y-3.55
X9.0Y-4.54
X9.05Y-3.0
X9.1Y-3.4
X9.1Y-4.05
X9.1Y-4.3
X9.1Y-5.15
X9.2Y-5.3
X9.24Y-5.38
X9.25Y-2.85
X9.35Y-3.3
X9.45Y-4.95
X9.5Y-2.85
X9.5Y-4.56
X9.58Y-4.64
X9.65Y-3.6
X9.65Y-4.85
X9.66Y-4.44
X9.7Y-3.3
X9.72Y-4.0
X9.75Y-3.7
X9.8Y-2.95
X9.8Y-3.45
X9.8Y-4.8
X9.9Y-4.32
X9.95Y-3.5
X10.0Y-3.9
X10.1Y-4.3
T2
X9.3262Y-2.38
X9.3478Y-2.3278
X9.3478Y-2.4322
X9.4Y-2.3062
X9.4Y-2.4538
X9.4522Y-2.3278
X9.4522Y-2.4322
X9.4738Y-2.38
T3
X9.4Y-2.38
T0
M30
