G04 #@! TF.GenerationSoftware,KiCad,Pcbnew,5.1.4-3.fc30*
G04 #@! TF.CreationDate,2019-12-08T15:57:42-08:00*
G04 #@! TF.ProjectId,ChristmasTree,43687269-7374-46d6-9173-547265652e6b,rev?*
G04 #@! TF.SameCoordinates,Original*
G04 #@! TF.FileFunction,Paste,Top*
G04 #@! TF.FilePolarity,Positive*
%FSLAX46Y46*%
G04 Gerber Fmt 4.6, Leading zero omitted, Abs format (unit mm)*
G04 Created by KiCad (PCBNEW 5.1.4-3.fc30) date 2019-12-08 15:57:42*
%MOMM*%
%LPD*%
G04 APERTURE LIST*
%ADD10R,0.570000X1.970000*%
%ADD11C,0.100000*%
%ADD12C,0.975000*%
%ADD13R,1.550000X1.300000*%
%ADD14R,1.970000X0.570000*%
G04 APERTURE END LIST*
D10*
X237490000Y-101600000D03*
X238760000Y-101600000D03*
X240030000Y-101600000D03*
X241300000Y-101600000D03*
X241300000Y-106550000D03*
X240030000Y-106550000D03*
X238760000Y-106550000D03*
X237490000Y-106550000D03*
D11*
G36*
X234552642Y-116141174D02*
G01*
X234576303Y-116144684D01*
X234599507Y-116150496D01*
X234622029Y-116158554D01*
X234643653Y-116168782D01*
X234664170Y-116181079D01*
X234683383Y-116195329D01*
X234701107Y-116211393D01*
X234717171Y-116229117D01*
X234731421Y-116248330D01*
X234743718Y-116268847D01*
X234753946Y-116290471D01*
X234762004Y-116312993D01*
X234767816Y-116336197D01*
X234771326Y-116359858D01*
X234772500Y-116383750D01*
X234772500Y-117296250D01*
X234771326Y-117320142D01*
X234767816Y-117343803D01*
X234762004Y-117367007D01*
X234753946Y-117389529D01*
X234743718Y-117411153D01*
X234731421Y-117431670D01*
X234717171Y-117450883D01*
X234701107Y-117468607D01*
X234683383Y-117484671D01*
X234664170Y-117498921D01*
X234643653Y-117511218D01*
X234622029Y-117521446D01*
X234599507Y-117529504D01*
X234576303Y-117535316D01*
X234552642Y-117538826D01*
X234528750Y-117540000D01*
X234041250Y-117540000D01*
X234017358Y-117538826D01*
X233993697Y-117535316D01*
X233970493Y-117529504D01*
X233947971Y-117521446D01*
X233926347Y-117511218D01*
X233905830Y-117498921D01*
X233886617Y-117484671D01*
X233868893Y-117468607D01*
X233852829Y-117450883D01*
X233838579Y-117431670D01*
X233826282Y-117411153D01*
X233816054Y-117389529D01*
X233807996Y-117367007D01*
X233802184Y-117343803D01*
X233798674Y-117320142D01*
X233797500Y-117296250D01*
X233797500Y-116383750D01*
X233798674Y-116359858D01*
X233802184Y-116336197D01*
X233807996Y-116312993D01*
X233816054Y-116290471D01*
X233826282Y-116268847D01*
X233838579Y-116248330D01*
X233852829Y-116229117D01*
X233868893Y-116211393D01*
X233886617Y-116195329D01*
X233905830Y-116181079D01*
X233926347Y-116168782D01*
X233947971Y-116158554D01*
X233970493Y-116150496D01*
X233993697Y-116144684D01*
X234017358Y-116141174D01*
X234041250Y-116140000D01*
X234528750Y-116140000D01*
X234552642Y-116141174D01*
X234552642Y-116141174D01*
G37*
D12*
X234285000Y-116840000D03*
D11*
G36*
X232677642Y-116141174D02*
G01*
X232701303Y-116144684D01*
X232724507Y-116150496D01*
X232747029Y-116158554D01*
X232768653Y-116168782D01*
X232789170Y-116181079D01*
X232808383Y-116195329D01*
X232826107Y-116211393D01*
X232842171Y-116229117D01*
X232856421Y-116248330D01*
X232868718Y-116268847D01*
X232878946Y-116290471D01*
X232887004Y-116312993D01*
X232892816Y-116336197D01*
X232896326Y-116359858D01*
X232897500Y-116383750D01*
X232897500Y-117296250D01*
X232896326Y-117320142D01*
X232892816Y-117343803D01*
X232887004Y-117367007D01*
X232878946Y-117389529D01*
X232868718Y-117411153D01*
X232856421Y-117431670D01*
X232842171Y-117450883D01*
X232826107Y-117468607D01*
X232808383Y-117484671D01*
X232789170Y-117498921D01*
X232768653Y-117511218D01*
X232747029Y-117521446D01*
X232724507Y-117529504D01*
X232701303Y-117535316D01*
X232677642Y-117538826D01*
X232653750Y-117540000D01*
X232166250Y-117540000D01*
X232142358Y-117538826D01*
X232118697Y-117535316D01*
X232095493Y-117529504D01*
X232072971Y-117521446D01*
X232051347Y-117511218D01*
X232030830Y-117498921D01*
X232011617Y-117484671D01*
X231993893Y-117468607D01*
X231977829Y-117450883D01*
X231963579Y-117431670D01*
X231951282Y-117411153D01*
X231941054Y-117389529D01*
X231932996Y-117367007D01*
X231927184Y-117343803D01*
X231923674Y-117320142D01*
X231922500Y-117296250D01*
X231922500Y-116383750D01*
X231923674Y-116359858D01*
X231927184Y-116336197D01*
X231932996Y-116312993D01*
X231941054Y-116290471D01*
X231951282Y-116268847D01*
X231963579Y-116248330D01*
X231977829Y-116229117D01*
X231993893Y-116211393D01*
X232011617Y-116195329D01*
X232030830Y-116181079D01*
X232051347Y-116168782D01*
X232072971Y-116158554D01*
X232095493Y-116150496D01*
X232118697Y-116144684D01*
X232142358Y-116141174D01*
X232166250Y-116140000D01*
X232653750Y-116140000D01*
X232677642Y-116141174D01*
X232677642Y-116141174D01*
G37*
D12*
X232410000Y-116840000D03*
D11*
G36*
X246980142Y-116141174D02*
G01*
X247003803Y-116144684D01*
X247027007Y-116150496D01*
X247049529Y-116158554D01*
X247071153Y-116168782D01*
X247091670Y-116181079D01*
X247110883Y-116195329D01*
X247128607Y-116211393D01*
X247144671Y-116229117D01*
X247158921Y-116248330D01*
X247171218Y-116268847D01*
X247181446Y-116290471D01*
X247189504Y-116312993D01*
X247195316Y-116336197D01*
X247198826Y-116359858D01*
X247200000Y-116383750D01*
X247200000Y-117296250D01*
X247198826Y-117320142D01*
X247195316Y-117343803D01*
X247189504Y-117367007D01*
X247181446Y-117389529D01*
X247171218Y-117411153D01*
X247158921Y-117431670D01*
X247144671Y-117450883D01*
X247128607Y-117468607D01*
X247110883Y-117484671D01*
X247091670Y-117498921D01*
X247071153Y-117511218D01*
X247049529Y-117521446D01*
X247027007Y-117529504D01*
X247003803Y-117535316D01*
X246980142Y-117538826D01*
X246956250Y-117540000D01*
X246468750Y-117540000D01*
X246444858Y-117538826D01*
X246421197Y-117535316D01*
X246397993Y-117529504D01*
X246375471Y-117521446D01*
X246353847Y-117511218D01*
X246333330Y-117498921D01*
X246314117Y-117484671D01*
X246296393Y-117468607D01*
X246280329Y-117450883D01*
X246266079Y-117431670D01*
X246253782Y-117411153D01*
X246243554Y-117389529D01*
X246235496Y-117367007D01*
X246229684Y-117343803D01*
X246226174Y-117320142D01*
X246225000Y-117296250D01*
X246225000Y-116383750D01*
X246226174Y-116359858D01*
X246229684Y-116336197D01*
X246235496Y-116312993D01*
X246243554Y-116290471D01*
X246253782Y-116268847D01*
X246266079Y-116248330D01*
X246280329Y-116229117D01*
X246296393Y-116211393D01*
X246314117Y-116195329D01*
X246333330Y-116181079D01*
X246353847Y-116168782D01*
X246375471Y-116158554D01*
X246397993Y-116150496D01*
X246421197Y-116144684D01*
X246444858Y-116141174D01*
X246468750Y-116140000D01*
X246956250Y-116140000D01*
X246980142Y-116141174D01*
X246980142Y-116141174D01*
G37*
D12*
X246712500Y-116840000D03*
D11*
G36*
X248855142Y-116141174D02*
G01*
X248878803Y-116144684D01*
X248902007Y-116150496D01*
X248924529Y-116158554D01*
X248946153Y-116168782D01*
X248966670Y-116181079D01*
X248985883Y-116195329D01*
X249003607Y-116211393D01*
X249019671Y-116229117D01*
X249033921Y-116248330D01*
X249046218Y-116268847D01*
X249056446Y-116290471D01*
X249064504Y-116312993D01*
X249070316Y-116336197D01*
X249073826Y-116359858D01*
X249075000Y-116383750D01*
X249075000Y-117296250D01*
X249073826Y-117320142D01*
X249070316Y-117343803D01*
X249064504Y-117367007D01*
X249056446Y-117389529D01*
X249046218Y-117411153D01*
X249033921Y-117431670D01*
X249019671Y-117450883D01*
X249003607Y-117468607D01*
X248985883Y-117484671D01*
X248966670Y-117498921D01*
X248946153Y-117511218D01*
X248924529Y-117521446D01*
X248902007Y-117529504D01*
X248878803Y-117535316D01*
X248855142Y-117538826D01*
X248831250Y-117540000D01*
X248343750Y-117540000D01*
X248319858Y-117538826D01*
X248296197Y-117535316D01*
X248272993Y-117529504D01*
X248250471Y-117521446D01*
X248228847Y-117511218D01*
X248208330Y-117498921D01*
X248189117Y-117484671D01*
X248171393Y-117468607D01*
X248155329Y-117450883D01*
X248141079Y-117431670D01*
X248128782Y-117411153D01*
X248118554Y-117389529D01*
X248110496Y-117367007D01*
X248104684Y-117343803D01*
X248101174Y-117320142D01*
X248100000Y-117296250D01*
X248100000Y-116383750D01*
X248101174Y-116359858D01*
X248104684Y-116336197D01*
X248110496Y-116312993D01*
X248118554Y-116290471D01*
X248128782Y-116268847D01*
X248141079Y-116248330D01*
X248155329Y-116229117D01*
X248171393Y-116211393D01*
X248189117Y-116195329D01*
X248208330Y-116181079D01*
X248228847Y-116168782D01*
X248250471Y-116158554D01*
X248272993Y-116150496D01*
X248296197Y-116144684D01*
X248319858Y-116141174D01*
X248343750Y-116140000D01*
X248831250Y-116140000D01*
X248855142Y-116141174D01*
X248855142Y-116141174D01*
G37*
D12*
X248587500Y-116840000D03*
D11*
G36*
X235217642Y-81851174D02*
G01*
X235241303Y-81854684D01*
X235264507Y-81860496D01*
X235287029Y-81868554D01*
X235308653Y-81878782D01*
X235329170Y-81891079D01*
X235348383Y-81905329D01*
X235366107Y-81921393D01*
X235382171Y-81939117D01*
X235396421Y-81958330D01*
X235408718Y-81978847D01*
X235418946Y-82000471D01*
X235427004Y-82022993D01*
X235432816Y-82046197D01*
X235436326Y-82069858D01*
X235437500Y-82093750D01*
X235437500Y-83006250D01*
X235436326Y-83030142D01*
X235432816Y-83053803D01*
X235427004Y-83077007D01*
X235418946Y-83099529D01*
X235408718Y-83121153D01*
X235396421Y-83141670D01*
X235382171Y-83160883D01*
X235366107Y-83178607D01*
X235348383Y-83194671D01*
X235329170Y-83208921D01*
X235308653Y-83221218D01*
X235287029Y-83231446D01*
X235264507Y-83239504D01*
X235241303Y-83245316D01*
X235217642Y-83248826D01*
X235193750Y-83250000D01*
X234706250Y-83250000D01*
X234682358Y-83248826D01*
X234658697Y-83245316D01*
X234635493Y-83239504D01*
X234612971Y-83231446D01*
X234591347Y-83221218D01*
X234570830Y-83208921D01*
X234551617Y-83194671D01*
X234533893Y-83178607D01*
X234517829Y-83160883D01*
X234503579Y-83141670D01*
X234491282Y-83121153D01*
X234481054Y-83099529D01*
X234472996Y-83077007D01*
X234467184Y-83053803D01*
X234463674Y-83030142D01*
X234462500Y-83006250D01*
X234462500Y-82093750D01*
X234463674Y-82069858D01*
X234467184Y-82046197D01*
X234472996Y-82022993D01*
X234481054Y-82000471D01*
X234491282Y-81978847D01*
X234503579Y-81958330D01*
X234517829Y-81939117D01*
X234533893Y-81921393D01*
X234551617Y-81905329D01*
X234570830Y-81891079D01*
X234591347Y-81878782D01*
X234612971Y-81868554D01*
X234635493Y-81860496D01*
X234658697Y-81854684D01*
X234682358Y-81851174D01*
X234706250Y-81850000D01*
X235193750Y-81850000D01*
X235217642Y-81851174D01*
X235217642Y-81851174D01*
G37*
D12*
X234950000Y-82550000D03*
D11*
G36*
X233342642Y-81851174D02*
G01*
X233366303Y-81854684D01*
X233389507Y-81860496D01*
X233412029Y-81868554D01*
X233433653Y-81878782D01*
X233454170Y-81891079D01*
X233473383Y-81905329D01*
X233491107Y-81921393D01*
X233507171Y-81939117D01*
X233521421Y-81958330D01*
X233533718Y-81978847D01*
X233543946Y-82000471D01*
X233552004Y-82022993D01*
X233557816Y-82046197D01*
X233561326Y-82069858D01*
X233562500Y-82093750D01*
X233562500Y-83006250D01*
X233561326Y-83030142D01*
X233557816Y-83053803D01*
X233552004Y-83077007D01*
X233543946Y-83099529D01*
X233533718Y-83121153D01*
X233521421Y-83141670D01*
X233507171Y-83160883D01*
X233491107Y-83178607D01*
X233473383Y-83194671D01*
X233454170Y-83208921D01*
X233433653Y-83221218D01*
X233412029Y-83231446D01*
X233389507Y-83239504D01*
X233366303Y-83245316D01*
X233342642Y-83248826D01*
X233318750Y-83250000D01*
X232831250Y-83250000D01*
X232807358Y-83248826D01*
X232783697Y-83245316D01*
X232760493Y-83239504D01*
X232737971Y-83231446D01*
X232716347Y-83221218D01*
X232695830Y-83208921D01*
X232676617Y-83194671D01*
X232658893Y-83178607D01*
X232642829Y-83160883D01*
X232628579Y-83141670D01*
X232616282Y-83121153D01*
X232606054Y-83099529D01*
X232597996Y-83077007D01*
X232592184Y-83053803D01*
X232588674Y-83030142D01*
X232587500Y-83006250D01*
X232587500Y-82093750D01*
X232588674Y-82069858D01*
X232592184Y-82046197D01*
X232597996Y-82022993D01*
X232606054Y-82000471D01*
X232616282Y-81978847D01*
X232628579Y-81958330D01*
X232642829Y-81939117D01*
X232658893Y-81921393D01*
X232676617Y-81905329D01*
X232695830Y-81891079D01*
X232716347Y-81878782D01*
X232737971Y-81868554D01*
X232760493Y-81860496D01*
X232783697Y-81854684D01*
X232807358Y-81851174D01*
X232831250Y-81850000D01*
X233318750Y-81850000D01*
X233342642Y-81851174D01*
X233342642Y-81851174D01*
G37*
D12*
X233075000Y-82550000D03*
D11*
G36*
X239965142Y-65341174D02*
G01*
X239988803Y-65344684D01*
X240012007Y-65350496D01*
X240034529Y-65358554D01*
X240056153Y-65368782D01*
X240076670Y-65381079D01*
X240095883Y-65395329D01*
X240113607Y-65411393D01*
X240129671Y-65429117D01*
X240143921Y-65448330D01*
X240156218Y-65468847D01*
X240166446Y-65490471D01*
X240174504Y-65512993D01*
X240180316Y-65536197D01*
X240183826Y-65559858D01*
X240185000Y-65583750D01*
X240185000Y-66496250D01*
X240183826Y-66520142D01*
X240180316Y-66543803D01*
X240174504Y-66567007D01*
X240166446Y-66589529D01*
X240156218Y-66611153D01*
X240143921Y-66631670D01*
X240129671Y-66650883D01*
X240113607Y-66668607D01*
X240095883Y-66684671D01*
X240076670Y-66698921D01*
X240056153Y-66711218D01*
X240034529Y-66721446D01*
X240012007Y-66729504D01*
X239988803Y-66735316D01*
X239965142Y-66738826D01*
X239941250Y-66740000D01*
X239453750Y-66740000D01*
X239429858Y-66738826D01*
X239406197Y-66735316D01*
X239382993Y-66729504D01*
X239360471Y-66721446D01*
X239338847Y-66711218D01*
X239318330Y-66698921D01*
X239299117Y-66684671D01*
X239281393Y-66668607D01*
X239265329Y-66650883D01*
X239251079Y-66631670D01*
X239238782Y-66611153D01*
X239228554Y-66589529D01*
X239220496Y-66567007D01*
X239214684Y-66543803D01*
X239211174Y-66520142D01*
X239210000Y-66496250D01*
X239210000Y-65583750D01*
X239211174Y-65559858D01*
X239214684Y-65536197D01*
X239220496Y-65512993D01*
X239228554Y-65490471D01*
X239238782Y-65468847D01*
X239251079Y-65448330D01*
X239265329Y-65429117D01*
X239281393Y-65411393D01*
X239299117Y-65395329D01*
X239318330Y-65381079D01*
X239338847Y-65368782D01*
X239360471Y-65358554D01*
X239382993Y-65350496D01*
X239406197Y-65344684D01*
X239429858Y-65341174D01*
X239453750Y-65340000D01*
X239941250Y-65340000D01*
X239965142Y-65341174D01*
X239965142Y-65341174D01*
G37*
D12*
X239697500Y-66040000D03*
D11*
G36*
X238090142Y-65341174D02*
G01*
X238113803Y-65344684D01*
X238137007Y-65350496D01*
X238159529Y-65358554D01*
X238181153Y-65368782D01*
X238201670Y-65381079D01*
X238220883Y-65395329D01*
X238238607Y-65411393D01*
X238254671Y-65429117D01*
X238268921Y-65448330D01*
X238281218Y-65468847D01*
X238291446Y-65490471D01*
X238299504Y-65512993D01*
X238305316Y-65536197D01*
X238308826Y-65559858D01*
X238310000Y-65583750D01*
X238310000Y-66496250D01*
X238308826Y-66520142D01*
X238305316Y-66543803D01*
X238299504Y-66567007D01*
X238291446Y-66589529D01*
X238281218Y-66611153D01*
X238268921Y-66631670D01*
X238254671Y-66650883D01*
X238238607Y-66668607D01*
X238220883Y-66684671D01*
X238201670Y-66698921D01*
X238181153Y-66711218D01*
X238159529Y-66721446D01*
X238137007Y-66729504D01*
X238113803Y-66735316D01*
X238090142Y-66738826D01*
X238066250Y-66740000D01*
X237578750Y-66740000D01*
X237554858Y-66738826D01*
X237531197Y-66735316D01*
X237507993Y-66729504D01*
X237485471Y-66721446D01*
X237463847Y-66711218D01*
X237443330Y-66698921D01*
X237424117Y-66684671D01*
X237406393Y-66668607D01*
X237390329Y-66650883D01*
X237376079Y-66631670D01*
X237363782Y-66611153D01*
X237353554Y-66589529D01*
X237345496Y-66567007D01*
X237339684Y-66543803D01*
X237336174Y-66520142D01*
X237335000Y-66496250D01*
X237335000Y-65583750D01*
X237336174Y-65559858D01*
X237339684Y-65536197D01*
X237345496Y-65512993D01*
X237353554Y-65490471D01*
X237363782Y-65468847D01*
X237376079Y-65448330D01*
X237390329Y-65429117D01*
X237406393Y-65411393D01*
X237424117Y-65395329D01*
X237443330Y-65381079D01*
X237463847Y-65368782D01*
X237485471Y-65358554D01*
X237507993Y-65350496D01*
X237531197Y-65344684D01*
X237554858Y-65341174D01*
X237578750Y-65340000D01*
X238066250Y-65340000D01*
X238090142Y-65341174D01*
X238090142Y-65341174D01*
G37*
D12*
X237822500Y-66040000D03*
D11*
G36*
X213022642Y-78041174D02*
G01*
X213046303Y-78044684D01*
X213069507Y-78050496D01*
X213092029Y-78058554D01*
X213113653Y-78068782D01*
X213134170Y-78081079D01*
X213153383Y-78095329D01*
X213171107Y-78111393D01*
X213187171Y-78129117D01*
X213201421Y-78148330D01*
X213213718Y-78168847D01*
X213223946Y-78190471D01*
X213232004Y-78212993D01*
X213237816Y-78236197D01*
X213241326Y-78259858D01*
X213242500Y-78283750D01*
X213242500Y-79196250D01*
X213241326Y-79220142D01*
X213237816Y-79243803D01*
X213232004Y-79267007D01*
X213223946Y-79289529D01*
X213213718Y-79311153D01*
X213201421Y-79331670D01*
X213187171Y-79350883D01*
X213171107Y-79368607D01*
X213153383Y-79384671D01*
X213134170Y-79398921D01*
X213113653Y-79411218D01*
X213092029Y-79421446D01*
X213069507Y-79429504D01*
X213046303Y-79435316D01*
X213022642Y-79438826D01*
X212998750Y-79440000D01*
X212511250Y-79440000D01*
X212487358Y-79438826D01*
X212463697Y-79435316D01*
X212440493Y-79429504D01*
X212417971Y-79421446D01*
X212396347Y-79411218D01*
X212375830Y-79398921D01*
X212356617Y-79384671D01*
X212338893Y-79368607D01*
X212322829Y-79350883D01*
X212308579Y-79331670D01*
X212296282Y-79311153D01*
X212286054Y-79289529D01*
X212277996Y-79267007D01*
X212272184Y-79243803D01*
X212268674Y-79220142D01*
X212267500Y-79196250D01*
X212267500Y-78283750D01*
X212268674Y-78259858D01*
X212272184Y-78236197D01*
X212277996Y-78212993D01*
X212286054Y-78190471D01*
X212296282Y-78168847D01*
X212308579Y-78148330D01*
X212322829Y-78129117D01*
X212338893Y-78111393D01*
X212356617Y-78095329D01*
X212375830Y-78081079D01*
X212396347Y-78068782D01*
X212417971Y-78058554D01*
X212440493Y-78050496D01*
X212463697Y-78044684D01*
X212487358Y-78041174D01*
X212511250Y-78040000D01*
X212998750Y-78040000D01*
X213022642Y-78041174D01*
X213022642Y-78041174D01*
G37*
D12*
X212755000Y-78740000D03*
D11*
G36*
X214897642Y-78041174D02*
G01*
X214921303Y-78044684D01*
X214944507Y-78050496D01*
X214967029Y-78058554D01*
X214988653Y-78068782D01*
X215009170Y-78081079D01*
X215028383Y-78095329D01*
X215046107Y-78111393D01*
X215062171Y-78129117D01*
X215076421Y-78148330D01*
X215088718Y-78168847D01*
X215098946Y-78190471D01*
X215107004Y-78212993D01*
X215112816Y-78236197D01*
X215116326Y-78259858D01*
X215117500Y-78283750D01*
X215117500Y-79196250D01*
X215116326Y-79220142D01*
X215112816Y-79243803D01*
X215107004Y-79267007D01*
X215098946Y-79289529D01*
X215088718Y-79311153D01*
X215076421Y-79331670D01*
X215062171Y-79350883D01*
X215046107Y-79368607D01*
X215028383Y-79384671D01*
X215009170Y-79398921D01*
X214988653Y-79411218D01*
X214967029Y-79421446D01*
X214944507Y-79429504D01*
X214921303Y-79435316D01*
X214897642Y-79438826D01*
X214873750Y-79440000D01*
X214386250Y-79440000D01*
X214362358Y-79438826D01*
X214338697Y-79435316D01*
X214315493Y-79429504D01*
X214292971Y-79421446D01*
X214271347Y-79411218D01*
X214250830Y-79398921D01*
X214231617Y-79384671D01*
X214213893Y-79368607D01*
X214197829Y-79350883D01*
X214183579Y-79331670D01*
X214171282Y-79311153D01*
X214161054Y-79289529D01*
X214152996Y-79267007D01*
X214147184Y-79243803D01*
X214143674Y-79220142D01*
X214142500Y-79196250D01*
X214142500Y-78283750D01*
X214143674Y-78259858D01*
X214147184Y-78236197D01*
X214152996Y-78212993D01*
X214161054Y-78190471D01*
X214171282Y-78168847D01*
X214183579Y-78148330D01*
X214197829Y-78129117D01*
X214213893Y-78111393D01*
X214231617Y-78095329D01*
X214250830Y-78081079D01*
X214271347Y-78068782D01*
X214292971Y-78058554D01*
X214315493Y-78050496D01*
X214338697Y-78044684D01*
X214362358Y-78041174D01*
X214386250Y-78040000D01*
X214873750Y-78040000D01*
X214897642Y-78041174D01*
X214897642Y-78041174D01*
G37*
D12*
X214630000Y-78740000D03*
D11*
G36*
X219372642Y-89471174D02*
G01*
X219396303Y-89474684D01*
X219419507Y-89480496D01*
X219442029Y-89488554D01*
X219463653Y-89498782D01*
X219484170Y-89511079D01*
X219503383Y-89525329D01*
X219521107Y-89541393D01*
X219537171Y-89559117D01*
X219551421Y-89578330D01*
X219563718Y-89598847D01*
X219573946Y-89620471D01*
X219582004Y-89642993D01*
X219587816Y-89666197D01*
X219591326Y-89689858D01*
X219592500Y-89713750D01*
X219592500Y-90626250D01*
X219591326Y-90650142D01*
X219587816Y-90673803D01*
X219582004Y-90697007D01*
X219573946Y-90719529D01*
X219563718Y-90741153D01*
X219551421Y-90761670D01*
X219537171Y-90780883D01*
X219521107Y-90798607D01*
X219503383Y-90814671D01*
X219484170Y-90828921D01*
X219463653Y-90841218D01*
X219442029Y-90851446D01*
X219419507Y-90859504D01*
X219396303Y-90865316D01*
X219372642Y-90868826D01*
X219348750Y-90870000D01*
X218861250Y-90870000D01*
X218837358Y-90868826D01*
X218813697Y-90865316D01*
X218790493Y-90859504D01*
X218767971Y-90851446D01*
X218746347Y-90841218D01*
X218725830Y-90828921D01*
X218706617Y-90814671D01*
X218688893Y-90798607D01*
X218672829Y-90780883D01*
X218658579Y-90761670D01*
X218646282Y-90741153D01*
X218636054Y-90719529D01*
X218627996Y-90697007D01*
X218622184Y-90673803D01*
X218618674Y-90650142D01*
X218617500Y-90626250D01*
X218617500Y-89713750D01*
X218618674Y-89689858D01*
X218622184Y-89666197D01*
X218627996Y-89642993D01*
X218636054Y-89620471D01*
X218646282Y-89598847D01*
X218658579Y-89578330D01*
X218672829Y-89559117D01*
X218688893Y-89541393D01*
X218706617Y-89525329D01*
X218725830Y-89511079D01*
X218746347Y-89498782D01*
X218767971Y-89488554D01*
X218790493Y-89480496D01*
X218813697Y-89474684D01*
X218837358Y-89471174D01*
X218861250Y-89470000D01*
X219348750Y-89470000D01*
X219372642Y-89471174D01*
X219372642Y-89471174D01*
G37*
D12*
X219105000Y-90170000D03*
D11*
G36*
X221247642Y-89471174D02*
G01*
X221271303Y-89474684D01*
X221294507Y-89480496D01*
X221317029Y-89488554D01*
X221338653Y-89498782D01*
X221359170Y-89511079D01*
X221378383Y-89525329D01*
X221396107Y-89541393D01*
X221412171Y-89559117D01*
X221426421Y-89578330D01*
X221438718Y-89598847D01*
X221448946Y-89620471D01*
X221457004Y-89642993D01*
X221462816Y-89666197D01*
X221466326Y-89689858D01*
X221467500Y-89713750D01*
X221467500Y-90626250D01*
X221466326Y-90650142D01*
X221462816Y-90673803D01*
X221457004Y-90697007D01*
X221448946Y-90719529D01*
X221438718Y-90741153D01*
X221426421Y-90761670D01*
X221412171Y-90780883D01*
X221396107Y-90798607D01*
X221378383Y-90814671D01*
X221359170Y-90828921D01*
X221338653Y-90841218D01*
X221317029Y-90851446D01*
X221294507Y-90859504D01*
X221271303Y-90865316D01*
X221247642Y-90868826D01*
X221223750Y-90870000D01*
X220736250Y-90870000D01*
X220712358Y-90868826D01*
X220688697Y-90865316D01*
X220665493Y-90859504D01*
X220642971Y-90851446D01*
X220621347Y-90841218D01*
X220600830Y-90828921D01*
X220581617Y-90814671D01*
X220563893Y-90798607D01*
X220547829Y-90780883D01*
X220533579Y-90761670D01*
X220521282Y-90741153D01*
X220511054Y-90719529D01*
X220502996Y-90697007D01*
X220497184Y-90673803D01*
X220493674Y-90650142D01*
X220492500Y-90626250D01*
X220492500Y-89713750D01*
X220493674Y-89689858D01*
X220497184Y-89666197D01*
X220502996Y-89642993D01*
X220511054Y-89620471D01*
X220521282Y-89598847D01*
X220533579Y-89578330D01*
X220547829Y-89559117D01*
X220563893Y-89541393D01*
X220581617Y-89525329D01*
X220600830Y-89511079D01*
X220621347Y-89498782D01*
X220642971Y-89488554D01*
X220665493Y-89480496D01*
X220688697Y-89474684D01*
X220712358Y-89471174D01*
X220736250Y-89470000D01*
X221223750Y-89470000D01*
X221247642Y-89471174D01*
X221247642Y-89471174D01*
G37*
D12*
X220980000Y-90170000D03*
D11*
G36*
X202197642Y-121221174D02*
G01*
X202221303Y-121224684D01*
X202244507Y-121230496D01*
X202267029Y-121238554D01*
X202288653Y-121248782D01*
X202309170Y-121261079D01*
X202328383Y-121275329D01*
X202346107Y-121291393D01*
X202362171Y-121309117D01*
X202376421Y-121328330D01*
X202388718Y-121348847D01*
X202398946Y-121370471D01*
X202407004Y-121392993D01*
X202412816Y-121416197D01*
X202416326Y-121439858D01*
X202417500Y-121463750D01*
X202417500Y-122376250D01*
X202416326Y-122400142D01*
X202412816Y-122423803D01*
X202407004Y-122447007D01*
X202398946Y-122469529D01*
X202388718Y-122491153D01*
X202376421Y-122511670D01*
X202362171Y-122530883D01*
X202346107Y-122548607D01*
X202328383Y-122564671D01*
X202309170Y-122578921D01*
X202288653Y-122591218D01*
X202267029Y-122601446D01*
X202244507Y-122609504D01*
X202221303Y-122615316D01*
X202197642Y-122618826D01*
X202173750Y-122620000D01*
X201686250Y-122620000D01*
X201662358Y-122618826D01*
X201638697Y-122615316D01*
X201615493Y-122609504D01*
X201592971Y-122601446D01*
X201571347Y-122591218D01*
X201550830Y-122578921D01*
X201531617Y-122564671D01*
X201513893Y-122548607D01*
X201497829Y-122530883D01*
X201483579Y-122511670D01*
X201471282Y-122491153D01*
X201461054Y-122469529D01*
X201452996Y-122447007D01*
X201447184Y-122423803D01*
X201443674Y-122400142D01*
X201442500Y-122376250D01*
X201442500Y-121463750D01*
X201443674Y-121439858D01*
X201447184Y-121416197D01*
X201452996Y-121392993D01*
X201461054Y-121370471D01*
X201471282Y-121348847D01*
X201483579Y-121328330D01*
X201497829Y-121309117D01*
X201513893Y-121291393D01*
X201531617Y-121275329D01*
X201550830Y-121261079D01*
X201571347Y-121248782D01*
X201592971Y-121238554D01*
X201615493Y-121230496D01*
X201638697Y-121224684D01*
X201662358Y-121221174D01*
X201686250Y-121220000D01*
X202173750Y-121220000D01*
X202197642Y-121221174D01*
X202197642Y-121221174D01*
G37*
D12*
X201930000Y-121920000D03*
D11*
G36*
X200322642Y-121221174D02*
G01*
X200346303Y-121224684D01*
X200369507Y-121230496D01*
X200392029Y-121238554D01*
X200413653Y-121248782D01*
X200434170Y-121261079D01*
X200453383Y-121275329D01*
X200471107Y-121291393D01*
X200487171Y-121309117D01*
X200501421Y-121328330D01*
X200513718Y-121348847D01*
X200523946Y-121370471D01*
X200532004Y-121392993D01*
X200537816Y-121416197D01*
X200541326Y-121439858D01*
X200542500Y-121463750D01*
X200542500Y-122376250D01*
X200541326Y-122400142D01*
X200537816Y-122423803D01*
X200532004Y-122447007D01*
X200523946Y-122469529D01*
X200513718Y-122491153D01*
X200501421Y-122511670D01*
X200487171Y-122530883D01*
X200471107Y-122548607D01*
X200453383Y-122564671D01*
X200434170Y-122578921D01*
X200413653Y-122591218D01*
X200392029Y-122601446D01*
X200369507Y-122609504D01*
X200346303Y-122615316D01*
X200322642Y-122618826D01*
X200298750Y-122620000D01*
X199811250Y-122620000D01*
X199787358Y-122618826D01*
X199763697Y-122615316D01*
X199740493Y-122609504D01*
X199717971Y-122601446D01*
X199696347Y-122591218D01*
X199675830Y-122578921D01*
X199656617Y-122564671D01*
X199638893Y-122548607D01*
X199622829Y-122530883D01*
X199608579Y-122511670D01*
X199596282Y-122491153D01*
X199586054Y-122469529D01*
X199577996Y-122447007D01*
X199572184Y-122423803D01*
X199568674Y-122400142D01*
X199567500Y-122376250D01*
X199567500Y-121463750D01*
X199568674Y-121439858D01*
X199572184Y-121416197D01*
X199577996Y-121392993D01*
X199586054Y-121370471D01*
X199596282Y-121348847D01*
X199608579Y-121328330D01*
X199622829Y-121309117D01*
X199638893Y-121291393D01*
X199656617Y-121275329D01*
X199675830Y-121261079D01*
X199696347Y-121248782D01*
X199717971Y-121238554D01*
X199740493Y-121230496D01*
X199763697Y-121224684D01*
X199787358Y-121221174D01*
X199811250Y-121220000D01*
X200298750Y-121220000D01*
X200322642Y-121221174D01*
X200322642Y-121221174D01*
G37*
D12*
X200055000Y-121920000D03*
D11*
G36*
X252997642Y-69151174D02*
G01*
X253021303Y-69154684D01*
X253044507Y-69160496D01*
X253067029Y-69168554D01*
X253088653Y-69178782D01*
X253109170Y-69191079D01*
X253128383Y-69205329D01*
X253146107Y-69221393D01*
X253162171Y-69239117D01*
X253176421Y-69258330D01*
X253188718Y-69278847D01*
X253198946Y-69300471D01*
X253207004Y-69322993D01*
X253212816Y-69346197D01*
X253216326Y-69369858D01*
X253217500Y-69393750D01*
X253217500Y-70306250D01*
X253216326Y-70330142D01*
X253212816Y-70353803D01*
X253207004Y-70377007D01*
X253198946Y-70399529D01*
X253188718Y-70421153D01*
X253176421Y-70441670D01*
X253162171Y-70460883D01*
X253146107Y-70478607D01*
X253128383Y-70494671D01*
X253109170Y-70508921D01*
X253088653Y-70521218D01*
X253067029Y-70531446D01*
X253044507Y-70539504D01*
X253021303Y-70545316D01*
X252997642Y-70548826D01*
X252973750Y-70550000D01*
X252486250Y-70550000D01*
X252462358Y-70548826D01*
X252438697Y-70545316D01*
X252415493Y-70539504D01*
X252392971Y-70531446D01*
X252371347Y-70521218D01*
X252350830Y-70508921D01*
X252331617Y-70494671D01*
X252313893Y-70478607D01*
X252297829Y-70460883D01*
X252283579Y-70441670D01*
X252271282Y-70421153D01*
X252261054Y-70399529D01*
X252252996Y-70377007D01*
X252247184Y-70353803D01*
X252243674Y-70330142D01*
X252242500Y-70306250D01*
X252242500Y-69393750D01*
X252243674Y-69369858D01*
X252247184Y-69346197D01*
X252252996Y-69322993D01*
X252261054Y-69300471D01*
X252271282Y-69278847D01*
X252283579Y-69258330D01*
X252297829Y-69239117D01*
X252313893Y-69221393D01*
X252331617Y-69205329D01*
X252350830Y-69191079D01*
X252371347Y-69178782D01*
X252392971Y-69168554D01*
X252415493Y-69160496D01*
X252438697Y-69154684D01*
X252462358Y-69151174D01*
X252486250Y-69150000D01*
X252973750Y-69150000D01*
X252997642Y-69151174D01*
X252997642Y-69151174D01*
G37*
D12*
X252730000Y-69850000D03*
D11*
G36*
X251122642Y-69151174D02*
G01*
X251146303Y-69154684D01*
X251169507Y-69160496D01*
X251192029Y-69168554D01*
X251213653Y-69178782D01*
X251234170Y-69191079D01*
X251253383Y-69205329D01*
X251271107Y-69221393D01*
X251287171Y-69239117D01*
X251301421Y-69258330D01*
X251313718Y-69278847D01*
X251323946Y-69300471D01*
X251332004Y-69322993D01*
X251337816Y-69346197D01*
X251341326Y-69369858D01*
X251342500Y-69393750D01*
X251342500Y-70306250D01*
X251341326Y-70330142D01*
X251337816Y-70353803D01*
X251332004Y-70377007D01*
X251323946Y-70399529D01*
X251313718Y-70421153D01*
X251301421Y-70441670D01*
X251287171Y-70460883D01*
X251271107Y-70478607D01*
X251253383Y-70494671D01*
X251234170Y-70508921D01*
X251213653Y-70521218D01*
X251192029Y-70531446D01*
X251169507Y-70539504D01*
X251146303Y-70545316D01*
X251122642Y-70548826D01*
X251098750Y-70550000D01*
X250611250Y-70550000D01*
X250587358Y-70548826D01*
X250563697Y-70545316D01*
X250540493Y-70539504D01*
X250517971Y-70531446D01*
X250496347Y-70521218D01*
X250475830Y-70508921D01*
X250456617Y-70494671D01*
X250438893Y-70478607D01*
X250422829Y-70460883D01*
X250408579Y-70441670D01*
X250396282Y-70421153D01*
X250386054Y-70399529D01*
X250377996Y-70377007D01*
X250372184Y-70353803D01*
X250368674Y-70330142D01*
X250367500Y-70306250D01*
X250367500Y-69393750D01*
X250368674Y-69369858D01*
X250372184Y-69346197D01*
X250377996Y-69322993D01*
X250386054Y-69300471D01*
X250396282Y-69278847D01*
X250408579Y-69258330D01*
X250422829Y-69239117D01*
X250438893Y-69221393D01*
X250456617Y-69205329D01*
X250475830Y-69191079D01*
X250496347Y-69178782D01*
X250517971Y-69168554D01*
X250540493Y-69160496D01*
X250563697Y-69154684D01*
X250587358Y-69151174D01*
X250611250Y-69150000D01*
X251098750Y-69150000D01*
X251122642Y-69151174D01*
X251122642Y-69151174D01*
G37*
D12*
X250855000Y-69850000D03*
D11*
G36*
X267632642Y-98361174D02*
G01*
X267656303Y-98364684D01*
X267679507Y-98370496D01*
X267702029Y-98378554D01*
X267723653Y-98388782D01*
X267744170Y-98401079D01*
X267763383Y-98415329D01*
X267781107Y-98431393D01*
X267797171Y-98449117D01*
X267811421Y-98468330D01*
X267823718Y-98488847D01*
X267833946Y-98510471D01*
X267842004Y-98532993D01*
X267847816Y-98556197D01*
X267851326Y-98579858D01*
X267852500Y-98603750D01*
X267852500Y-99516250D01*
X267851326Y-99540142D01*
X267847816Y-99563803D01*
X267842004Y-99587007D01*
X267833946Y-99609529D01*
X267823718Y-99631153D01*
X267811421Y-99651670D01*
X267797171Y-99670883D01*
X267781107Y-99688607D01*
X267763383Y-99704671D01*
X267744170Y-99718921D01*
X267723653Y-99731218D01*
X267702029Y-99741446D01*
X267679507Y-99749504D01*
X267656303Y-99755316D01*
X267632642Y-99758826D01*
X267608750Y-99760000D01*
X267121250Y-99760000D01*
X267097358Y-99758826D01*
X267073697Y-99755316D01*
X267050493Y-99749504D01*
X267027971Y-99741446D01*
X267006347Y-99731218D01*
X266985830Y-99718921D01*
X266966617Y-99704671D01*
X266948893Y-99688607D01*
X266932829Y-99670883D01*
X266918579Y-99651670D01*
X266906282Y-99631153D01*
X266896054Y-99609529D01*
X266887996Y-99587007D01*
X266882184Y-99563803D01*
X266878674Y-99540142D01*
X266877500Y-99516250D01*
X266877500Y-98603750D01*
X266878674Y-98579858D01*
X266882184Y-98556197D01*
X266887996Y-98532993D01*
X266896054Y-98510471D01*
X266906282Y-98488847D01*
X266918579Y-98468330D01*
X266932829Y-98449117D01*
X266948893Y-98431393D01*
X266966617Y-98415329D01*
X266985830Y-98401079D01*
X267006347Y-98388782D01*
X267027971Y-98378554D01*
X267050493Y-98370496D01*
X267073697Y-98364684D01*
X267097358Y-98361174D01*
X267121250Y-98360000D01*
X267608750Y-98360000D01*
X267632642Y-98361174D01*
X267632642Y-98361174D01*
G37*
D12*
X267365000Y-99060000D03*
D11*
G36*
X269507642Y-98361174D02*
G01*
X269531303Y-98364684D01*
X269554507Y-98370496D01*
X269577029Y-98378554D01*
X269598653Y-98388782D01*
X269619170Y-98401079D01*
X269638383Y-98415329D01*
X269656107Y-98431393D01*
X269672171Y-98449117D01*
X269686421Y-98468330D01*
X269698718Y-98488847D01*
X269708946Y-98510471D01*
X269717004Y-98532993D01*
X269722816Y-98556197D01*
X269726326Y-98579858D01*
X269727500Y-98603750D01*
X269727500Y-99516250D01*
X269726326Y-99540142D01*
X269722816Y-99563803D01*
X269717004Y-99587007D01*
X269708946Y-99609529D01*
X269698718Y-99631153D01*
X269686421Y-99651670D01*
X269672171Y-99670883D01*
X269656107Y-99688607D01*
X269638383Y-99704671D01*
X269619170Y-99718921D01*
X269598653Y-99731218D01*
X269577029Y-99741446D01*
X269554507Y-99749504D01*
X269531303Y-99755316D01*
X269507642Y-99758826D01*
X269483750Y-99760000D01*
X268996250Y-99760000D01*
X268972358Y-99758826D01*
X268948697Y-99755316D01*
X268925493Y-99749504D01*
X268902971Y-99741446D01*
X268881347Y-99731218D01*
X268860830Y-99718921D01*
X268841617Y-99704671D01*
X268823893Y-99688607D01*
X268807829Y-99670883D01*
X268793579Y-99651670D01*
X268781282Y-99631153D01*
X268771054Y-99609529D01*
X268762996Y-99587007D01*
X268757184Y-99563803D01*
X268753674Y-99540142D01*
X268752500Y-99516250D01*
X268752500Y-98603750D01*
X268753674Y-98579858D01*
X268757184Y-98556197D01*
X268762996Y-98532993D01*
X268771054Y-98510471D01*
X268781282Y-98488847D01*
X268793579Y-98468330D01*
X268807829Y-98449117D01*
X268823893Y-98431393D01*
X268841617Y-98415329D01*
X268860830Y-98401079D01*
X268881347Y-98388782D01*
X268902971Y-98378554D01*
X268925493Y-98370496D01*
X268948697Y-98364684D01*
X268972358Y-98361174D01*
X268996250Y-98360000D01*
X269483750Y-98360000D01*
X269507642Y-98361174D01*
X269507642Y-98361174D01*
G37*
D12*
X269240000Y-99060000D03*
D11*
G36*
X207610142Y-98361174D02*
G01*
X207633803Y-98364684D01*
X207657007Y-98370496D01*
X207679529Y-98378554D01*
X207701153Y-98388782D01*
X207721670Y-98401079D01*
X207740883Y-98415329D01*
X207758607Y-98431393D01*
X207774671Y-98449117D01*
X207788921Y-98468330D01*
X207801218Y-98488847D01*
X207811446Y-98510471D01*
X207819504Y-98532993D01*
X207825316Y-98556197D01*
X207828826Y-98579858D01*
X207830000Y-98603750D01*
X207830000Y-99516250D01*
X207828826Y-99540142D01*
X207825316Y-99563803D01*
X207819504Y-99587007D01*
X207811446Y-99609529D01*
X207801218Y-99631153D01*
X207788921Y-99651670D01*
X207774671Y-99670883D01*
X207758607Y-99688607D01*
X207740883Y-99704671D01*
X207721670Y-99718921D01*
X207701153Y-99731218D01*
X207679529Y-99741446D01*
X207657007Y-99749504D01*
X207633803Y-99755316D01*
X207610142Y-99758826D01*
X207586250Y-99760000D01*
X207098750Y-99760000D01*
X207074858Y-99758826D01*
X207051197Y-99755316D01*
X207027993Y-99749504D01*
X207005471Y-99741446D01*
X206983847Y-99731218D01*
X206963330Y-99718921D01*
X206944117Y-99704671D01*
X206926393Y-99688607D01*
X206910329Y-99670883D01*
X206896079Y-99651670D01*
X206883782Y-99631153D01*
X206873554Y-99609529D01*
X206865496Y-99587007D01*
X206859684Y-99563803D01*
X206856174Y-99540142D01*
X206855000Y-99516250D01*
X206855000Y-98603750D01*
X206856174Y-98579858D01*
X206859684Y-98556197D01*
X206865496Y-98532993D01*
X206873554Y-98510471D01*
X206883782Y-98488847D01*
X206896079Y-98468330D01*
X206910329Y-98449117D01*
X206926393Y-98431393D01*
X206944117Y-98415329D01*
X206963330Y-98401079D01*
X206983847Y-98388782D01*
X207005471Y-98378554D01*
X207027993Y-98370496D01*
X207051197Y-98364684D01*
X207074858Y-98361174D01*
X207098750Y-98360000D01*
X207586250Y-98360000D01*
X207610142Y-98361174D01*
X207610142Y-98361174D01*
G37*
D12*
X207342500Y-99060000D03*
D11*
G36*
X209485142Y-98361174D02*
G01*
X209508803Y-98364684D01*
X209532007Y-98370496D01*
X209554529Y-98378554D01*
X209576153Y-98388782D01*
X209596670Y-98401079D01*
X209615883Y-98415329D01*
X209633607Y-98431393D01*
X209649671Y-98449117D01*
X209663921Y-98468330D01*
X209676218Y-98488847D01*
X209686446Y-98510471D01*
X209694504Y-98532993D01*
X209700316Y-98556197D01*
X209703826Y-98579858D01*
X209705000Y-98603750D01*
X209705000Y-99516250D01*
X209703826Y-99540142D01*
X209700316Y-99563803D01*
X209694504Y-99587007D01*
X209686446Y-99609529D01*
X209676218Y-99631153D01*
X209663921Y-99651670D01*
X209649671Y-99670883D01*
X209633607Y-99688607D01*
X209615883Y-99704671D01*
X209596670Y-99718921D01*
X209576153Y-99731218D01*
X209554529Y-99741446D01*
X209532007Y-99749504D01*
X209508803Y-99755316D01*
X209485142Y-99758826D01*
X209461250Y-99760000D01*
X208973750Y-99760000D01*
X208949858Y-99758826D01*
X208926197Y-99755316D01*
X208902993Y-99749504D01*
X208880471Y-99741446D01*
X208858847Y-99731218D01*
X208838330Y-99718921D01*
X208819117Y-99704671D01*
X208801393Y-99688607D01*
X208785329Y-99670883D01*
X208771079Y-99651670D01*
X208758782Y-99631153D01*
X208748554Y-99609529D01*
X208740496Y-99587007D01*
X208734684Y-99563803D01*
X208731174Y-99540142D01*
X208730000Y-99516250D01*
X208730000Y-98603750D01*
X208731174Y-98579858D01*
X208734684Y-98556197D01*
X208740496Y-98532993D01*
X208748554Y-98510471D01*
X208758782Y-98488847D01*
X208771079Y-98468330D01*
X208785329Y-98449117D01*
X208801393Y-98431393D01*
X208819117Y-98415329D01*
X208838330Y-98401079D01*
X208858847Y-98388782D01*
X208880471Y-98378554D01*
X208902993Y-98370496D01*
X208926197Y-98364684D01*
X208949858Y-98361174D01*
X208973750Y-98360000D01*
X209461250Y-98360000D01*
X209485142Y-98361174D01*
X209485142Y-98361174D01*
G37*
D12*
X209217500Y-99060000D03*
D11*
G36*
X240297642Y-118681174D02*
G01*
X240321303Y-118684684D01*
X240344507Y-118690496D01*
X240367029Y-118698554D01*
X240388653Y-118708782D01*
X240409170Y-118721079D01*
X240428383Y-118735329D01*
X240446107Y-118751393D01*
X240462171Y-118769117D01*
X240476421Y-118788330D01*
X240488718Y-118808847D01*
X240498946Y-118830471D01*
X240507004Y-118852993D01*
X240512816Y-118876197D01*
X240516326Y-118899858D01*
X240517500Y-118923750D01*
X240517500Y-119836250D01*
X240516326Y-119860142D01*
X240512816Y-119883803D01*
X240507004Y-119907007D01*
X240498946Y-119929529D01*
X240488718Y-119951153D01*
X240476421Y-119971670D01*
X240462171Y-119990883D01*
X240446107Y-120008607D01*
X240428383Y-120024671D01*
X240409170Y-120038921D01*
X240388653Y-120051218D01*
X240367029Y-120061446D01*
X240344507Y-120069504D01*
X240321303Y-120075316D01*
X240297642Y-120078826D01*
X240273750Y-120080000D01*
X239786250Y-120080000D01*
X239762358Y-120078826D01*
X239738697Y-120075316D01*
X239715493Y-120069504D01*
X239692971Y-120061446D01*
X239671347Y-120051218D01*
X239650830Y-120038921D01*
X239631617Y-120024671D01*
X239613893Y-120008607D01*
X239597829Y-119990883D01*
X239583579Y-119971670D01*
X239571282Y-119951153D01*
X239561054Y-119929529D01*
X239552996Y-119907007D01*
X239547184Y-119883803D01*
X239543674Y-119860142D01*
X239542500Y-119836250D01*
X239542500Y-118923750D01*
X239543674Y-118899858D01*
X239547184Y-118876197D01*
X239552996Y-118852993D01*
X239561054Y-118830471D01*
X239571282Y-118808847D01*
X239583579Y-118788330D01*
X239597829Y-118769117D01*
X239613893Y-118751393D01*
X239631617Y-118735329D01*
X239650830Y-118721079D01*
X239671347Y-118708782D01*
X239692971Y-118698554D01*
X239715493Y-118690496D01*
X239738697Y-118684684D01*
X239762358Y-118681174D01*
X239786250Y-118680000D01*
X240273750Y-118680000D01*
X240297642Y-118681174D01*
X240297642Y-118681174D01*
G37*
D12*
X240030000Y-119380000D03*
D11*
G36*
X238422642Y-118681174D02*
G01*
X238446303Y-118684684D01*
X238469507Y-118690496D01*
X238492029Y-118698554D01*
X238513653Y-118708782D01*
X238534170Y-118721079D01*
X238553383Y-118735329D01*
X238571107Y-118751393D01*
X238587171Y-118769117D01*
X238601421Y-118788330D01*
X238613718Y-118808847D01*
X238623946Y-118830471D01*
X238632004Y-118852993D01*
X238637816Y-118876197D01*
X238641326Y-118899858D01*
X238642500Y-118923750D01*
X238642500Y-119836250D01*
X238641326Y-119860142D01*
X238637816Y-119883803D01*
X238632004Y-119907007D01*
X238623946Y-119929529D01*
X238613718Y-119951153D01*
X238601421Y-119971670D01*
X238587171Y-119990883D01*
X238571107Y-120008607D01*
X238553383Y-120024671D01*
X238534170Y-120038921D01*
X238513653Y-120051218D01*
X238492029Y-120061446D01*
X238469507Y-120069504D01*
X238446303Y-120075316D01*
X238422642Y-120078826D01*
X238398750Y-120080000D01*
X237911250Y-120080000D01*
X237887358Y-120078826D01*
X237863697Y-120075316D01*
X237840493Y-120069504D01*
X237817971Y-120061446D01*
X237796347Y-120051218D01*
X237775830Y-120038921D01*
X237756617Y-120024671D01*
X237738893Y-120008607D01*
X237722829Y-119990883D01*
X237708579Y-119971670D01*
X237696282Y-119951153D01*
X237686054Y-119929529D01*
X237677996Y-119907007D01*
X237672184Y-119883803D01*
X237668674Y-119860142D01*
X237667500Y-119836250D01*
X237667500Y-118923750D01*
X237668674Y-118899858D01*
X237672184Y-118876197D01*
X237677996Y-118852993D01*
X237686054Y-118830471D01*
X237696282Y-118808847D01*
X237708579Y-118788330D01*
X237722829Y-118769117D01*
X237738893Y-118751393D01*
X237756617Y-118735329D01*
X237775830Y-118721079D01*
X237796347Y-118708782D01*
X237817971Y-118698554D01*
X237840493Y-118690496D01*
X237863697Y-118684684D01*
X237887358Y-118681174D01*
X237911250Y-118680000D01*
X238398750Y-118680000D01*
X238422642Y-118681174D01*
X238422642Y-118681174D01*
G37*
D12*
X238155000Y-119380000D03*
D11*
G36*
X227597642Y-69151174D02*
G01*
X227621303Y-69154684D01*
X227644507Y-69160496D01*
X227667029Y-69168554D01*
X227688653Y-69178782D01*
X227709170Y-69191079D01*
X227728383Y-69205329D01*
X227746107Y-69221393D01*
X227762171Y-69239117D01*
X227776421Y-69258330D01*
X227788718Y-69278847D01*
X227798946Y-69300471D01*
X227807004Y-69322993D01*
X227812816Y-69346197D01*
X227816326Y-69369858D01*
X227817500Y-69393750D01*
X227817500Y-70306250D01*
X227816326Y-70330142D01*
X227812816Y-70353803D01*
X227807004Y-70377007D01*
X227798946Y-70399529D01*
X227788718Y-70421153D01*
X227776421Y-70441670D01*
X227762171Y-70460883D01*
X227746107Y-70478607D01*
X227728383Y-70494671D01*
X227709170Y-70508921D01*
X227688653Y-70521218D01*
X227667029Y-70531446D01*
X227644507Y-70539504D01*
X227621303Y-70545316D01*
X227597642Y-70548826D01*
X227573750Y-70550000D01*
X227086250Y-70550000D01*
X227062358Y-70548826D01*
X227038697Y-70545316D01*
X227015493Y-70539504D01*
X226992971Y-70531446D01*
X226971347Y-70521218D01*
X226950830Y-70508921D01*
X226931617Y-70494671D01*
X226913893Y-70478607D01*
X226897829Y-70460883D01*
X226883579Y-70441670D01*
X226871282Y-70421153D01*
X226861054Y-70399529D01*
X226852996Y-70377007D01*
X226847184Y-70353803D01*
X226843674Y-70330142D01*
X226842500Y-70306250D01*
X226842500Y-69393750D01*
X226843674Y-69369858D01*
X226847184Y-69346197D01*
X226852996Y-69322993D01*
X226861054Y-69300471D01*
X226871282Y-69278847D01*
X226883579Y-69258330D01*
X226897829Y-69239117D01*
X226913893Y-69221393D01*
X226931617Y-69205329D01*
X226950830Y-69191079D01*
X226971347Y-69178782D01*
X226992971Y-69168554D01*
X227015493Y-69160496D01*
X227038697Y-69154684D01*
X227062358Y-69151174D01*
X227086250Y-69150000D01*
X227573750Y-69150000D01*
X227597642Y-69151174D01*
X227597642Y-69151174D01*
G37*
D12*
X227330000Y-69850000D03*
D11*
G36*
X225722642Y-69151174D02*
G01*
X225746303Y-69154684D01*
X225769507Y-69160496D01*
X225792029Y-69168554D01*
X225813653Y-69178782D01*
X225834170Y-69191079D01*
X225853383Y-69205329D01*
X225871107Y-69221393D01*
X225887171Y-69239117D01*
X225901421Y-69258330D01*
X225913718Y-69278847D01*
X225923946Y-69300471D01*
X225932004Y-69322993D01*
X225937816Y-69346197D01*
X225941326Y-69369858D01*
X225942500Y-69393750D01*
X225942500Y-70306250D01*
X225941326Y-70330142D01*
X225937816Y-70353803D01*
X225932004Y-70377007D01*
X225923946Y-70399529D01*
X225913718Y-70421153D01*
X225901421Y-70441670D01*
X225887171Y-70460883D01*
X225871107Y-70478607D01*
X225853383Y-70494671D01*
X225834170Y-70508921D01*
X225813653Y-70521218D01*
X225792029Y-70531446D01*
X225769507Y-70539504D01*
X225746303Y-70545316D01*
X225722642Y-70548826D01*
X225698750Y-70550000D01*
X225211250Y-70550000D01*
X225187358Y-70548826D01*
X225163697Y-70545316D01*
X225140493Y-70539504D01*
X225117971Y-70531446D01*
X225096347Y-70521218D01*
X225075830Y-70508921D01*
X225056617Y-70494671D01*
X225038893Y-70478607D01*
X225022829Y-70460883D01*
X225008579Y-70441670D01*
X224996282Y-70421153D01*
X224986054Y-70399529D01*
X224977996Y-70377007D01*
X224972184Y-70353803D01*
X224968674Y-70330142D01*
X224967500Y-70306250D01*
X224967500Y-69393750D01*
X224968674Y-69369858D01*
X224972184Y-69346197D01*
X224977996Y-69322993D01*
X224986054Y-69300471D01*
X224996282Y-69278847D01*
X225008579Y-69258330D01*
X225022829Y-69239117D01*
X225038893Y-69221393D01*
X225056617Y-69205329D01*
X225075830Y-69191079D01*
X225096347Y-69178782D01*
X225117971Y-69168554D01*
X225140493Y-69160496D01*
X225163697Y-69154684D01*
X225187358Y-69151174D01*
X225211250Y-69150000D01*
X225698750Y-69150000D01*
X225722642Y-69151174D01*
X225722642Y-69151174D01*
G37*
D12*
X225455000Y-69850000D03*
D11*
G36*
X262552642Y-78041174D02*
G01*
X262576303Y-78044684D01*
X262599507Y-78050496D01*
X262622029Y-78058554D01*
X262643653Y-78068782D01*
X262664170Y-78081079D01*
X262683383Y-78095329D01*
X262701107Y-78111393D01*
X262717171Y-78129117D01*
X262731421Y-78148330D01*
X262743718Y-78168847D01*
X262753946Y-78190471D01*
X262762004Y-78212993D01*
X262767816Y-78236197D01*
X262771326Y-78259858D01*
X262772500Y-78283750D01*
X262772500Y-79196250D01*
X262771326Y-79220142D01*
X262767816Y-79243803D01*
X262762004Y-79267007D01*
X262753946Y-79289529D01*
X262743718Y-79311153D01*
X262731421Y-79331670D01*
X262717171Y-79350883D01*
X262701107Y-79368607D01*
X262683383Y-79384671D01*
X262664170Y-79398921D01*
X262643653Y-79411218D01*
X262622029Y-79421446D01*
X262599507Y-79429504D01*
X262576303Y-79435316D01*
X262552642Y-79438826D01*
X262528750Y-79440000D01*
X262041250Y-79440000D01*
X262017358Y-79438826D01*
X261993697Y-79435316D01*
X261970493Y-79429504D01*
X261947971Y-79421446D01*
X261926347Y-79411218D01*
X261905830Y-79398921D01*
X261886617Y-79384671D01*
X261868893Y-79368607D01*
X261852829Y-79350883D01*
X261838579Y-79331670D01*
X261826282Y-79311153D01*
X261816054Y-79289529D01*
X261807996Y-79267007D01*
X261802184Y-79243803D01*
X261798674Y-79220142D01*
X261797500Y-79196250D01*
X261797500Y-78283750D01*
X261798674Y-78259858D01*
X261802184Y-78236197D01*
X261807996Y-78212993D01*
X261816054Y-78190471D01*
X261826282Y-78168847D01*
X261838579Y-78148330D01*
X261852829Y-78129117D01*
X261868893Y-78111393D01*
X261886617Y-78095329D01*
X261905830Y-78081079D01*
X261926347Y-78068782D01*
X261947971Y-78058554D01*
X261970493Y-78050496D01*
X261993697Y-78044684D01*
X262017358Y-78041174D01*
X262041250Y-78040000D01*
X262528750Y-78040000D01*
X262552642Y-78041174D01*
X262552642Y-78041174D01*
G37*
D12*
X262285000Y-78740000D03*
D11*
G36*
X264427642Y-78041174D02*
G01*
X264451303Y-78044684D01*
X264474507Y-78050496D01*
X264497029Y-78058554D01*
X264518653Y-78068782D01*
X264539170Y-78081079D01*
X264558383Y-78095329D01*
X264576107Y-78111393D01*
X264592171Y-78129117D01*
X264606421Y-78148330D01*
X264618718Y-78168847D01*
X264628946Y-78190471D01*
X264637004Y-78212993D01*
X264642816Y-78236197D01*
X264646326Y-78259858D01*
X264647500Y-78283750D01*
X264647500Y-79196250D01*
X264646326Y-79220142D01*
X264642816Y-79243803D01*
X264637004Y-79267007D01*
X264628946Y-79289529D01*
X264618718Y-79311153D01*
X264606421Y-79331670D01*
X264592171Y-79350883D01*
X264576107Y-79368607D01*
X264558383Y-79384671D01*
X264539170Y-79398921D01*
X264518653Y-79411218D01*
X264497029Y-79421446D01*
X264474507Y-79429504D01*
X264451303Y-79435316D01*
X264427642Y-79438826D01*
X264403750Y-79440000D01*
X263916250Y-79440000D01*
X263892358Y-79438826D01*
X263868697Y-79435316D01*
X263845493Y-79429504D01*
X263822971Y-79421446D01*
X263801347Y-79411218D01*
X263780830Y-79398921D01*
X263761617Y-79384671D01*
X263743893Y-79368607D01*
X263727829Y-79350883D01*
X263713579Y-79331670D01*
X263701282Y-79311153D01*
X263691054Y-79289529D01*
X263682996Y-79267007D01*
X263677184Y-79243803D01*
X263673674Y-79220142D01*
X263672500Y-79196250D01*
X263672500Y-78283750D01*
X263673674Y-78259858D01*
X263677184Y-78236197D01*
X263682996Y-78212993D01*
X263691054Y-78190471D01*
X263701282Y-78168847D01*
X263713579Y-78148330D01*
X263727829Y-78129117D01*
X263743893Y-78111393D01*
X263761617Y-78095329D01*
X263780830Y-78081079D01*
X263801347Y-78068782D01*
X263822971Y-78058554D01*
X263845493Y-78050496D01*
X263868697Y-78044684D01*
X263892358Y-78041174D01*
X263916250Y-78040000D01*
X264403750Y-78040000D01*
X264427642Y-78041174D01*
X264427642Y-78041174D01*
G37*
D12*
X264160000Y-78740000D03*
D11*
G36*
X257472642Y-89471174D02*
G01*
X257496303Y-89474684D01*
X257519507Y-89480496D01*
X257542029Y-89488554D01*
X257563653Y-89498782D01*
X257584170Y-89511079D01*
X257603383Y-89525329D01*
X257621107Y-89541393D01*
X257637171Y-89559117D01*
X257651421Y-89578330D01*
X257663718Y-89598847D01*
X257673946Y-89620471D01*
X257682004Y-89642993D01*
X257687816Y-89666197D01*
X257691326Y-89689858D01*
X257692500Y-89713750D01*
X257692500Y-90626250D01*
X257691326Y-90650142D01*
X257687816Y-90673803D01*
X257682004Y-90697007D01*
X257673946Y-90719529D01*
X257663718Y-90741153D01*
X257651421Y-90761670D01*
X257637171Y-90780883D01*
X257621107Y-90798607D01*
X257603383Y-90814671D01*
X257584170Y-90828921D01*
X257563653Y-90841218D01*
X257542029Y-90851446D01*
X257519507Y-90859504D01*
X257496303Y-90865316D01*
X257472642Y-90868826D01*
X257448750Y-90870000D01*
X256961250Y-90870000D01*
X256937358Y-90868826D01*
X256913697Y-90865316D01*
X256890493Y-90859504D01*
X256867971Y-90851446D01*
X256846347Y-90841218D01*
X256825830Y-90828921D01*
X256806617Y-90814671D01*
X256788893Y-90798607D01*
X256772829Y-90780883D01*
X256758579Y-90761670D01*
X256746282Y-90741153D01*
X256736054Y-90719529D01*
X256727996Y-90697007D01*
X256722184Y-90673803D01*
X256718674Y-90650142D01*
X256717500Y-90626250D01*
X256717500Y-89713750D01*
X256718674Y-89689858D01*
X256722184Y-89666197D01*
X256727996Y-89642993D01*
X256736054Y-89620471D01*
X256746282Y-89598847D01*
X256758579Y-89578330D01*
X256772829Y-89559117D01*
X256788893Y-89541393D01*
X256806617Y-89525329D01*
X256825830Y-89511079D01*
X256846347Y-89498782D01*
X256867971Y-89488554D01*
X256890493Y-89480496D01*
X256913697Y-89474684D01*
X256937358Y-89471174D01*
X256961250Y-89470000D01*
X257448750Y-89470000D01*
X257472642Y-89471174D01*
X257472642Y-89471174D01*
G37*
D12*
X257205000Y-90170000D03*
D11*
G36*
X259347642Y-89471174D02*
G01*
X259371303Y-89474684D01*
X259394507Y-89480496D01*
X259417029Y-89488554D01*
X259438653Y-89498782D01*
X259459170Y-89511079D01*
X259478383Y-89525329D01*
X259496107Y-89541393D01*
X259512171Y-89559117D01*
X259526421Y-89578330D01*
X259538718Y-89598847D01*
X259548946Y-89620471D01*
X259557004Y-89642993D01*
X259562816Y-89666197D01*
X259566326Y-89689858D01*
X259567500Y-89713750D01*
X259567500Y-90626250D01*
X259566326Y-90650142D01*
X259562816Y-90673803D01*
X259557004Y-90697007D01*
X259548946Y-90719529D01*
X259538718Y-90741153D01*
X259526421Y-90761670D01*
X259512171Y-90780883D01*
X259496107Y-90798607D01*
X259478383Y-90814671D01*
X259459170Y-90828921D01*
X259438653Y-90841218D01*
X259417029Y-90851446D01*
X259394507Y-90859504D01*
X259371303Y-90865316D01*
X259347642Y-90868826D01*
X259323750Y-90870000D01*
X258836250Y-90870000D01*
X258812358Y-90868826D01*
X258788697Y-90865316D01*
X258765493Y-90859504D01*
X258742971Y-90851446D01*
X258721347Y-90841218D01*
X258700830Y-90828921D01*
X258681617Y-90814671D01*
X258663893Y-90798607D01*
X258647829Y-90780883D01*
X258633579Y-90761670D01*
X258621282Y-90741153D01*
X258611054Y-90719529D01*
X258602996Y-90697007D01*
X258597184Y-90673803D01*
X258593674Y-90650142D01*
X258592500Y-90626250D01*
X258592500Y-89713750D01*
X258593674Y-89689858D01*
X258597184Y-89666197D01*
X258602996Y-89642993D01*
X258611054Y-89620471D01*
X258621282Y-89598847D01*
X258633579Y-89578330D01*
X258647829Y-89559117D01*
X258663893Y-89541393D01*
X258681617Y-89525329D01*
X258700830Y-89511079D01*
X258721347Y-89498782D01*
X258742971Y-89488554D01*
X258765493Y-89480496D01*
X258788697Y-89474684D01*
X258812358Y-89471174D01*
X258836250Y-89470000D01*
X259323750Y-89470000D01*
X259347642Y-89471174D01*
X259347642Y-89471174D01*
G37*
D12*
X259080000Y-90170000D03*
D11*
G36*
X277127642Y-121221174D02*
G01*
X277151303Y-121224684D01*
X277174507Y-121230496D01*
X277197029Y-121238554D01*
X277218653Y-121248782D01*
X277239170Y-121261079D01*
X277258383Y-121275329D01*
X277276107Y-121291393D01*
X277292171Y-121309117D01*
X277306421Y-121328330D01*
X277318718Y-121348847D01*
X277328946Y-121370471D01*
X277337004Y-121392993D01*
X277342816Y-121416197D01*
X277346326Y-121439858D01*
X277347500Y-121463750D01*
X277347500Y-122376250D01*
X277346326Y-122400142D01*
X277342816Y-122423803D01*
X277337004Y-122447007D01*
X277328946Y-122469529D01*
X277318718Y-122491153D01*
X277306421Y-122511670D01*
X277292171Y-122530883D01*
X277276107Y-122548607D01*
X277258383Y-122564671D01*
X277239170Y-122578921D01*
X277218653Y-122591218D01*
X277197029Y-122601446D01*
X277174507Y-122609504D01*
X277151303Y-122615316D01*
X277127642Y-122618826D01*
X277103750Y-122620000D01*
X276616250Y-122620000D01*
X276592358Y-122618826D01*
X276568697Y-122615316D01*
X276545493Y-122609504D01*
X276522971Y-122601446D01*
X276501347Y-122591218D01*
X276480830Y-122578921D01*
X276461617Y-122564671D01*
X276443893Y-122548607D01*
X276427829Y-122530883D01*
X276413579Y-122511670D01*
X276401282Y-122491153D01*
X276391054Y-122469529D01*
X276382996Y-122447007D01*
X276377184Y-122423803D01*
X276373674Y-122400142D01*
X276372500Y-122376250D01*
X276372500Y-121463750D01*
X276373674Y-121439858D01*
X276377184Y-121416197D01*
X276382996Y-121392993D01*
X276391054Y-121370471D01*
X276401282Y-121348847D01*
X276413579Y-121328330D01*
X276427829Y-121309117D01*
X276443893Y-121291393D01*
X276461617Y-121275329D01*
X276480830Y-121261079D01*
X276501347Y-121248782D01*
X276522971Y-121238554D01*
X276545493Y-121230496D01*
X276568697Y-121224684D01*
X276592358Y-121221174D01*
X276616250Y-121220000D01*
X277103750Y-121220000D01*
X277127642Y-121221174D01*
X277127642Y-121221174D01*
G37*
D12*
X276860000Y-121920000D03*
D11*
G36*
X275252642Y-121221174D02*
G01*
X275276303Y-121224684D01*
X275299507Y-121230496D01*
X275322029Y-121238554D01*
X275343653Y-121248782D01*
X275364170Y-121261079D01*
X275383383Y-121275329D01*
X275401107Y-121291393D01*
X275417171Y-121309117D01*
X275431421Y-121328330D01*
X275443718Y-121348847D01*
X275453946Y-121370471D01*
X275462004Y-121392993D01*
X275467816Y-121416197D01*
X275471326Y-121439858D01*
X275472500Y-121463750D01*
X275472500Y-122376250D01*
X275471326Y-122400142D01*
X275467816Y-122423803D01*
X275462004Y-122447007D01*
X275453946Y-122469529D01*
X275443718Y-122491153D01*
X275431421Y-122511670D01*
X275417171Y-122530883D01*
X275401107Y-122548607D01*
X275383383Y-122564671D01*
X275364170Y-122578921D01*
X275343653Y-122591218D01*
X275322029Y-122601446D01*
X275299507Y-122609504D01*
X275276303Y-122615316D01*
X275252642Y-122618826D01*
X275228750Y-122620000D01*
X274741250Y-122620000D01*
X274717358Y-122618826D01*
X274693697Y-122615316D01*
X274670493Y-122609504D01*
X274647971Y-122601446D01*
X274626347Y-122591218D01*
X274605830Y-122578921D01*
X274586617Y-122564671D01*
X274568893Y-122548607D01*
X274552829Y-122530883D01*
X274538579Y-122511670D01*
X274526282Y-122491153D01*
X274516054Y-122469529D01*
X274507996Y-122447007D01*
X274502184Y-122423803D01*
X274498674Y-122400142D01*
X274497500Y-122376250D01*
X274497500Y-121463750D01*
X274498674Y-121439858D01*
X274502184Y-121416197D01*
X274507996Y-121392993D01*
X274516054Y-121370471D01*
X274526282Y-121348847D01*
X274538579Y-121328330D01*
X274552829Y-121309117D01*
X274568893Y-121291393D01*
X274586617Y-121275329D01*
X274605830Y-121261079D01*
X274626347Y-121248782D01*
X274647971Y-121238554D01*
X274670493Y-121230496D01*
X274693697Y-121224684D01*
X274717358Y-121221174D01*
X274741250Y-121220000D01*
X275228750Y-121220000D01*
X275252642Y-121221174D01*
X275252642Y-121221174D01*
G37*
D12*
X274985000Y-121920000D03*
D11*
G36*
X237787642Y-78041174D02*
G01*
X237811303Y-78044684D01*
X237834507Y-78050496D01*
X237857029Y-78058554D01*
X237878653Y-78068782D01*
X237899170Y-78081079D01*
X237918383Y-78095329D01*
X237936107Y-78111393D01*
X237952171Y-78129117D01*
X237966421Y-78148330D01*
X237978718Y-78168847D01*
X237988946Y-78190471D01*
X237997004Y-78212993D01*
X238002816Y-78236197D01*
X238006326Y-78259858D01*
X238007500Y-78283750D01*
X238007500Y-79196250D01*
X238006326Y-79220142D01*
X238002816Y-79243803D01*
X237997004Y-79267007D01*
X237988946Y-79289529D01*
X237978718Y-79311153D01*
X237966421Y-79331670D01*
X237952171Y-79350883D01*
X237936107Y-79368607D01*
X237918383Y-79384671D01*
X237899170Y-79398921D01*
X237878653Y-79411218D01*
X237857029Y-79421446D01*
X237834507Y-79429504D01*
X237811303Y-79435316D01*
X237787642Y-79438826D01*
X237763750Y-79440000D01*
X237276250Y-79440000D01*
X237252358Y-79438826D01*
X237228697Y-79435316D01*
X237205493Y-79429504D01*
X237182971Y-79421446D01*
X237161347Y-79411218D01*
X237140830Y-79398921D01*
X237121617Y-79384671D01*
X237103893Y-79368607D01*
X237087829Y-79350883D01*
X237073579Y-79331670D01*
X237061282Y-79311153D01*
X237051054Y-79289529D01*
X237042996Y-79267007D01*
X237037184Y-79243803D01*
X237033674Y-79220142D01*
X237032500Y-79196250D01*
X237032500Y-78283750D01*
X237033674Y-78259858D01*
X237037184Y-78236197D01*
X237042996Y-78212993D01*
X237051054Y-78190471D01*
X237061282Y-78168847D01*
X237073579Y-78148330D01*
X237087829Y-78129117D01*
X237103893Y-78111393D01*
X237121617Y-78095329D01*
X237140830Y-78081079D01*
X237161347Y-78068782D01*
X237182971Y-78058554D01*
X237205493Y-78050496D01*
X237228697Y-78044684D01*
X237252358Y-78041174D01*
X237276250Y-78040000D01*
X237763750Y-78040000D01*
X237787642Y-78041174D01*
X237787642Y-78041174D01*
G37*
D12*
X237520000Y-78740000D03*
D11*
G36*
X239662642Y-78041174D02*
G01*
X239686303Y-78044684D01*
X239709507Y-78050496D01*
X239732029Y-78058554D01*
X239753653Y-78068782D01*
X239774170Y-78081079D01*
X239793383Y-78095329D01*
X239811107Y-78111393D01*
X239827171Y-78129117D01*
X239841421Y-78148330D01*
X239853718Y-78168847D01*
X239863946Y-78190471D01*
X239872004Y-78212993D01*
X239877816Y-78236197D01*
X239881326Y-78259858D01*
X239882500Y-78283750D01*
X239882500Y-79196250D01*
X239881326Y-79220142D01*
X239877816Y-79243803D01*
X239872004Y-79267007D01*
X239863946Y-79289529D01*
X239853718Y-79311153D01*
X239841421Y-79331670D01*
X239827171Y-79350883D01*
X239811107Y-79368607D01*
X239793383Y-79384671D01*
X239774170Y-79398921D01*
X239753653Y-79411218D01*
X239732029Y-79421446D01*
X239709507Y-79429504D01*
X239686303Y-79435316D01*
X239662642Y-79438826D01*
X239638750Y-79440000D01*
X239151250Y-79440000D01*
X239127358Y-79438826D01*
X239103697Y-79435316D01*
X239080493Y-79429504D01*
X239057971Y-79421446D01*
X239036347Y-79411218D01*
X239015830Y-79398921D01*
X238996617Y-79384671D01*
X238978893Y-79368607D01*
X238962829Y-79350883D01*
X238948579Y-79331670D01*
X238936282Y-79311153D01*
X238926054Y-79289529D01*
X238917996Y-79267007D01*
X238912184Y-79243803D01*
X238908674Y-79220142D01*
X238907500Y-79196250D01*
X238907500Y-78283750D01*
X238908674Y-78259858D01*
X238912184Y-78236197D01*
X238917996Y-78212993D01*
X238926054Y-78190471D01*
X238936282Y-78168847D01*
X238948579Y-78148330D01*
X238962829Y-78129117D01*
X238978893Y-78111393D01*
X238996617Y-78095329D01*
X239015830Y-78081079D01*
X239036347Y-78068782D01*
X239057971Y-78058554D01*
X239080493Y-78050496D01*
X239103697Y-78044684D01*
X239127358Y-78041174D01*
X239151250Y-78040000D01*
X239638750Y-78040000D01*
X239662642Y-78041174D01*
X239662642Y-78041174D01*
G37*
D12*
X239395000Y-78740000D03*
D11*
G36*
X246860142Y-136673674D02*
G01*
X246883803Y-136677184D01*
X246907007Y-136682996D01*
X246929529Y-136691054D01*
X246951153Y-136701282D01*
X246971670Y-136713579D01*
X246990883Y-136727829D01*
X247008607Y-136743893D01*
X247024671Y-136761617D01*
X247038921Y-136780830D01*
X247051218Y-136801347D01*
X247061446Y-136822971D01*
X247069504Y-136845493D01*
X247075316Y-136868697D01*
X247078826Y-136892358D01*
X247080000Y-136916250D01*
X247080000Y-137403750D01*
X247078826Y-137427642D01*
X247075316Y-137451303D01*
X247069504Y-137474507D01*
X247061446Y-137497029D01*
X247051218Y-137518653D01*
X247038921Y-137539170D01*
X247024671Y-137558383D01*
X247008607Y-137576107D01*
X246990883Y-137592171D01*
X246971670Y-137606421D01*
X246951153Y-137618718D01*
X246929529Y-137628946D01*
X246907007Y-137637004D01*
X246883803Y-137642816D01*
X246860142Y-137646326D01*
X246836250Y-137647500D01*
X245923750Y-137647500D01*
X245899858Y-137646326D01*
X245876197Y-137642816D01*
X245852993Y-137637004D01*
X245830471Y-137628946D01*
X245808847Y-137618718D01*
X245788330Y-137606421D01*
X245769117Y-137592171D01*
X245751393Y-137576107D01*
X245735329Y-137558383D01*
X245721079Y-137539170D01*
X245708782Y-137518653D01*
X245698554Y-137497029D01*
X245690496Y-137474507D01*
X245684684Y-137451303D01*
X245681174Y-137427642D01*
X245680000Y-137403750D01*
X245680000Y-136916250D01*
X245681174Y-136892358D01*
X245684684Y-136868697D01*
X245690496Y-136845493D01*
X245698554Y-136822971D01*
X245708782Y-136801347D01*
X245721079Y-136780830D01*
X245735329Y-136761617D01*
X245751393Y-136743893D01*
X245769117Y-136727829D01*
X245788330Y-136713579D01*
X245808847Y-136701282D01*
X245830471Y-136691054D01*
X245852993Y-136682996D01*
X245876197Y-136677184D01*
X245899858Y-136673674D01*
X245923750Y-136672500D01*
X246836250Y-136672500D01*
X246860142Y-136673674D01*
X246860142Y-136673674D01*
G37*
D12*
X246380000Y-137160000D03*
D11*
G36*
X246860142Y-134798674D02*
G01*
X246883803Y-134802184D01*
X246907007Y-134807996D01*
X246929529Y-134816054D01*
X246951153Y-134826282D01*
X246971670Y-134838579D01*
X246990883Y-134852829D01*
X247008607Y-134868893D01*
X247024671Y-134886617D01*
X247038921Y-134905830D01*
X247051218Y-134926347D01*
X247061446Y-134947971D01*
X247069504Y-134970493D01*
X247075316Y-134993697D01*
X247078826Y-135017358D01*
X247080000Y-135041250D01*
X247080000Y-135528750D01*
X247078826Y-135552642D01*
X247075316Y-135576303D01*
X247069504Y-135599507D01*
X247061446Y-135622029D01*
X247051218Y-135643653D01*
X247038921Y-135664170D01*
X247024671Y-135683383D01*
X247008607Y-135701107D01*
X246990883Y-135717171D01*
X246971670Y-135731421D01*
X246951153Y-135743718D01*
X246929529Y-135753946D01*
X246907007Y-135762004D01*
X246883803Y-135767816D01*
X246860142Y-135771326D01*
X246836250Y-135772500D01*
X245923750Y-135772500D01*
X245899858Y-135771326D01*
X245876197Y-135767816D01*
X245852993Y-135762004D01*
X245830471Y-135753946D01*
X245808847Y-135743718D01*
X245788330Y-135731421D01*
X245769117Y-135717171D01*
X245751393Y-135701107D01*
X245735329Y-135683383D01*
X245721079Y-135664170D01*
X245708782Y-135643653D01*
X245698554Y-135622029D01*
X245690496Y-135599507D01*
X245684684Y-135576303D01*
X245681174Y-135552642D01*
X245680000Y-135528750D01*
X245680000Y-135041250D01*
X245681174Y-135017358D01*
X245684684Y-134993697D01*
X245690496Y-134970493D01*
X245698554Y-134947971D01*
X245708782Y-134926347D01*
X245721079Y-134905830D01*
X245735329Y-134886617D01*
X245751393Y-134868893D01*
X245769117Y-134852829D01*
X245788330Y-134838579D01*
X245808847Y-134826282D01*
X245830471Y-134816054D01*
X245852993Y-134807996D01*
X245876197Y-134802184D01*
X245899858Y-134798674D01*
X245923750Y-134797500D01*
X246836250Y-134797500D01*
X246860142Y-134798674D01*
X246860142Y-134798674D01*
G37*
D12*
X246380000Y-135285000D03*
D11*
G36*
X232072642Y-94551174D02*
G01*
X232096303Y-94554684D01*
X232119507Y-94560496D01*
X232142029Y-94568554D01*
X232163653Y-94578782D01*
X232184170Y-94591079D01*
X232203383Y-94605329D01*
X232221107Y-94621393D01*
X232237171Y-94639117D01*
X232251421Y-94658330D01*
X232263718Y-94678847D01*
X232273946Y-94700471D01*
X232282004Y-94722993D01*
X232287816Y-94746197D01*
X232291326Y-94769858D01*
X232292500Y-94793750D01*
X232292500Y-95706250D01*
X232291326Y-95730142D01*
X232287816Y-95753803D01*
X232282004Y-95777007D01*
X232273946Y-95799529D01*
X232263718Y-95821153D01*
X232251421Y-95841670D01*
X232237171Y-95860883D01*
X232221107Y-95878607D01*
X232203383Y-95894671D01*
X232184170Y-95908921D01*
X232163653Y-95921218D01*
X232142029Y-95931446D01*
X232119507Y-95939504D01*
X232096303Y-95945316D01*
X232072642Y-95948826D01*
X232048750Y-95950000D01*
X231561250Y-95950000D01*
X231537358Y-95948826D01*
X231513697Y-95945316D01*
X231490493Y-95939504D01*
X231467971Y-95931446D01*
X231446347Y-95921218D01*
X231425830Y-95908921D01*
X231406617Y-95894671D01*
X231388893Y-95878607D01*
X231372829Y-95860883D01*
X231358579Y-95841670D01*
X231346282Y-95821153D01*
X231336054Y-95799529D01*
X231327996Y-95777007D01*
X231322184Y-95753803D01*
X231318674Y-95730142D01*
X231317500Y-95706250D01*
X231317500Y-94793750D01*
X231318674Y-94769858D01*
X231322184Y-94746197D01*
X231327996Y-94722993D01*
X231336054Y-94700471D01*
X231346282Y-94678847D01*
X231358579Y-94658330D01*
X231372829Y-94639117D01*
X231388893Y-94621393D01*
X231406617Y-94605329D01*
X231425830Y-94591079D01*
X231446347Y-94578782D01*
X231467971Y-94568554D01*
X231490493Y-94560496D01*
X231513697Y-94554684D01*
X231537358Y-94551174D01*
X231561250Y-94550000D01*
X232048750Y-94550000D01*
X232072642Y-94551174D01*
X232072642Y-94551174D01*
G37*
D12*
X231805000Y-95250000D03*
D11*
G36*
X233947642Y-94551174D02*
G01*
X233971303Y-94554684D01*
X233994507Y-94560496D01*
X234017029Y-94568554D01*
X234038653Y-94578782D01*
X234059170Y-94591079D01*
X234078383Y-94605329D01*
X234096107Y-94621393D01*
X234112171Y-94639117D01*
X234126421Y-94658330D01*
X234138718Y-94678847D01*
X234148946Y-94700471D01*
X234157004Y-94722993D01*
X234162816Y-94746197D01*
X234166326Y-94769858D01*
X234167500Y-94793750D01*
X234167500Y-95706250D01*
X234166326Y-95730142D01*
X234162816Y-95753803D01*
X234157004Y-95777007D01*
X234148946Y-95799529D01*
X234138718Y-95821153D01*
X234126421Y-95841670D01*
X234112171Y-95860883D01*
X234096107Y-95878607D01*
X234078383Y-95894671D01*
X234059170Y-95908921D01*
X234038653Y-95921218D01*
X234017029Y-95931446D01*
X233994507Y-95939504D01*
X233971303Y-95945316D01*
X233947642Y-95948826D01*
X233923750Y-95950000D01*
X233436250Y-95950000D01*
X233412358Y-95948826D01*
X233388697Y-95945316D01*
X233365493Y-95939504D01*
X233342971Y-95931446D01*
X233321347Y-95921218D01*
X233300830Y-95908921D01*
X233281617Y-95894671D01*
X233263893Y-95878607D01*
X233247829Y-95860883D01*
X233233579Y-95841670D01*
X233221282Y-95821153D01*
X233211054Y-95799529D01*
X233202996Y-95777007D01*
X233197184Y-95753803D01*
X233193674Y-95730142D01*
X233192500Y-95706250D01*
X233192500Y-94793750D01*
X233193674Y-94769858D01*
X233197184Y-94746197D01*
X233202996Y-94722993D01*
X233211054Y-94700471D01*
X233221282Y-94678847D01*
X233233579Y-94658330D01*
X233247829Y-94639117D01*
X233263893Y-94621393D01*
X233281617Y-94605329D01*
X233300830Y-94591079D01*
X233321347Y-94578782D01*
X233342971Y-94568554D01*
X233365493Y-94560496D01*
X233388697Y-94554684D01*
X233412358Y-94551174D01*
X233436250Y-94550000D01*
X233923750Y-94550000D01*
X233947642Y-94551174D01*
X233947642Y-94551174D01*
G37*
D12*
X233680000Y-95250000D03*
D11*
G36*
X227265142Y-118681174D02*
G01*
X227288803Y-118684684D01*
X227312007Y-118690496D01*
X227334529Y-118698554D01*
X227356153Y-118708782D01*
X227376670Y-118721079D01*
X227395883Y-118735329D01*
X227413607Y-118751393D01*
X227429671Y-118769117D01*
X227443921Y-118788330D01*
X227456218Y-118808847D01*
X227466446Y-118830471D01*
X227474504Y-118852993D01*
X227480316Y-118876197D01*
X227483826Y-118899858D01*
X227485000Y-118923750D01*
X227485000Y-119836250D01*
X227483826Y-119860142D01*
X227480316Y-119883803D01*
X227474504Y-119907007D01*
X227466446Y-119929529D01*
X227456218Y-119951153D01*
X227443921Y-119971670D01*
X227429671Y-119990883D01*
X227413607Y-120008607D01*
X227395883Y-120024671D01*
X227376670Y-120038921D01*
X227356153Y-120051218D01*
X227334529Y-120061446D01*
X227312007Y-120069504D01*
X227288803Y-120075316D01*
X227265142Y-120078826D01*
X227241250Y-120080000D01*
X226753750Y-120080000D01*
X226729858Y-120078826D01*
X226706197Y-120075316D01*
X226682993Y-120069504D01*
X226660471Y-120061446D01*
X226638847Y-120051218D01*
X226618330Y-120038921D01*
X226599117Y-120024671D01*
X226581393Y-120008607D01*
X226565329Y-119990883D01*
X226551079Y-119971670D01*
X226538782Y-119951153D01*
X226528554Y-119929529D01*
X226520496Y-119907007D01*
X226514684Y-119883803D01*
X226511174Y-119860142D01*
X226510000Y-119836250D01*
X226510000Y-118923750D01*
X226511174Y-118899858D01*
X226514684Y-118876197D01*
X226520496Y-118852993D01*
X226528554Y-118830471D01*
X226538782Y-118808847D01*
X226551079Y-118788330D01*
X226565329Y-118769117D01*
X226581393Y-118751393D01*
X226599117Y-118735329D01*
X226618330Y-118721079D01*
X226638847Y-118708782D01*
X226660471Y-118698554D01*
X226682993Y-118690496D01*
X226706197Y-118684684D01*
X226729858Y-118681174D01*
X226753750Y-118680000D01*
X227241250Y-118680000D01*
X227265142Y-118681174D01*
X227265142Y-118681174D01*
G37*
D12*
X226997500Y-119380000D03*
D11*
G36*
X225390142Y-118681174D02*
G01*
X225413803Y-118684684D01*
X225437007Y-118690496D01*
X225459529Y-118698554D01*
X225481153Y-118708782D01*
X225501670Y-118721079D01*
X225520883Y-118735329D01*
X225538607Y-118751393D01*
X225554671Y-118769117D01*
X225568921Y-118788330D01*
X225581218Y-118808847D01*
X225591446Y-118830471D01*
X225599504Y-118852993D01*
X225605316Y-118876197D01*
X225608826Y-118899858D01*
X225610000Y-118923750D01*
X225610000Y-119836250D01*
X225608826Y-119860142D01*
X225605316Y-119883803D01*
X225599504Y-119907007D01*
X225591446Y-119929529D01*
X225581218Y-119951153D01*
X225568921Y-119971670D01*
X225554671Y-119990883D01*
X225538607Y-120008607D01*
X225520883Y-120024671D01*
X225501670Y-120038921D01*
X225481153Y-120051218D01*
X225459529Y-120061446D01*
X225437007Y-120069504D01*
X225413803Y-120075316D01*
X225390142Y-120078826D01*
X225366250Y-120080000D01*
X224878750Y-120080000D01*
X224854858Y-120078826D01*
X224831197Y-120075316D01*
X224807993Y-120069504D01*
X224785471Y-120061446D01*
X224763847Y-120051218D01*
X224743330Y-120038921D01*
X224724117Y-120024671D01*
X224706393Y-120008607D01*
X224690329Y-119990883D01*
X224676079Y-119971670D01*
X224663782Y-119951153D01*
X224653554Y-119929529D01*
X224645496Y-119907007D01*
X224639684Y-119883803D01*
X224636174Y-119860142D01*
X224635000Y-119836250D01*
X224635000Y-118923750D01*
X224636174Y-118899858D01*
X224639684Y-118876197D01*
X224645496Y-118852993D01*
X224653554Y-118830471D01*
X224663782Y-118808847D01*
X224676079Y-118788330D01*
X224690329Y-118769117D01*
X224706393Y-118751393D01*
X224724117Y-118735329D01*
X224743330Y-118721079D01*
X224763847Y-118708782D01*
X224785471Y-118698554D01*
X224807993Y-118690496D01*
X224831197Y-118684684D01*
X224854858Y-118681174D01*
X224878750Y-118680000D01*
X225366250Y-118680000D01*
X225390142Y-118681174D01*
X225390142Y-118681174D01*
G37*
D12*
X225122500Y-119380000D03*
D11*
G36*
X239240142Y-68758674D02*
G01*
X239263803Y-68762184D01*
X239287007Y-68767996D01*
X239309529Y-68776054D01*
X239331153Y-68786282D01*
X239351670Y-68798579D01*
X239370883Y-68812829D01*
X239388607Y-68828893D01*
X239404671Y-68846617D01*
X239418921Y-68865830D01*
X239431218Y-68886347D01*
X239441446Y-68907971D01*
X239449504Y-68930493D01*
X239455316Y-68953697D01*
X239458826Y-68977358D01*
X239460000Y-69001250D01*
X239460000Y-69488750D01*
X239458826Y-69512642D01*
X239455316Y-69536303D01*
X239449504Y-69559507D01*
X239441446Y-69582029D01*
X239431218Y-69603653D01*
X239418921Y-69624170D01*
X239404671Y-69643383D01*
X239388607Y-69661107D01*
X239370883Y-69677171D01*
X239351670Y-69691421D01*
X239331153Y-69703718D01*
X239309529Y-69713946D01*
X239287007Y-69722004D01*
X239263803Y-69727816D01*
X239240142Y-69731326D01*
X239216250Y-69732500D01*
X238303750Y-69732500D01*
X238279858Y-69731326D01*
X238256197Y-69727816D01*
X238232993Y-69722004D01*
X238210471Y-69713946D01*
X238188847Y-69703718D01*
X238168330Y-69691421D01*
X238149117Y-69677171D01*
X238131393Y-69661107D01*
X238115329Y-69643383D01*
X238101079Y-69624170D01*
X238088782Y-69603653D01*
X238078554Y-69582029D01*
X238070496Y-69559507D01*
X238064684Y-69536303D01*
X238061174Y-69512642D01*
X238060000Y-69488750D01*
X238060000Y-69001250D01*
X238061174Y-68977358D01*
X238064684Y-68953697D01*
X238070496Y-68930493D01*
X238078554Y-68907971D01*
X238088782Y-68886347D01*
X238101079Y-68865830D01*
X238115329Y-68846617D01*
X238131393Y-68828893D01*
X238149117Y-68812829D01*
X238168330Y-68798579D01*
X238188847Y-68786282D01*
X238210471Y-68776054D01*
X238232993Y-68767996D01*
X238256197Y-68762184D01*
X238279858Y-68758674D01*
X238303750Y-68757500D01*
X239216250Y-68757500D01*
X239240142Y-68758674D01*
X239240142Y-68758674D01*
G37*
D12*
X238760000Y-69245000D03*
D11*
G36*
X239240142Y-70633674D02*
G01*
X239263803Y-70637184D01*
X239287007Y-70642996D01*
X239309529Y-70651054D01*
X239331153Y-70661282D01*
X239351670Y-70673579D01*
X239370883Y-70687829D01*
X239388607Y-70703893D01*
X239404671Y-70721617D01*
X239418921Y-70740830D01*
X239431218Y-70761347D01*
X239441446Y-70782971D01*
X239449504Y-70805493D01*
X239455316Y-70828697D01*
X239458826Y-70852358D01*
X239460000Y-70876250D01*
X239460000Y-71363750D01*
X239458826Y-71387642D01*
X239455316Y-71411303D01*
X239449504Y-71434507D01*
X239441446Y-71457029D01*
X239431218Y-71478653D01*
X239418921Y-71499170D01*
X239404671Y-71518383D01*
X239388607Y-71536107D01*
X239370883Y-71552171D01*
X239351670Y-71566421D01*
X239331153Y-71578718D01*
X239309529Y-71588946D01*
X239287007Y-71597004D01*
X239263803Y-71602816D01*
X239240142Y-71606326D01*
X239216250Y-71607500D01*
X238303750Y-71607500D01*
X238279858Y-71606326D01*
X238256197Y-71602816D01*
X238232993Y-71597004D01*
X238210471Y-71588946D01*
X238188847Y-71578718D01*
X238168330Y-71566421D01*
X238149117Y-71552171D01*
X238131393Y-71536107D01*
X238115329Y-71518383D01*
X238101079Y-71499170D01*
X238088782Y-71478653D01*
X238078554Y-71457029D01*
X238070496Y-71434507D01*
X238064684Y-71411303D01*
X238061174Y-71387642D01*
X238060000Y-71363750D01*
X238060000Y-70876250D01*
X238061174Y-70852358D01*
X238064684Y-70828697D01*
X238070496Y-70805493D01*
X238078554Y-70782971D01*
X238088782Y-70761347D01*
X238101079Y-70740830D01*
X238115329Y-70721617D01*
X238131393Y-70703893D01*
X238149117Y-70687829D01*
X238168330Y-70673579D01*
X238188847Y-70661282D01*
X238210471Y-70651054D01*
X238232993Y-70642996D01*
X238256197Y-70637184D01*
X238279858Y-70633674D01*
X238303750Y-70632500D01*
X239216250Y-70632500D01*
X239240142Y-70633674D01*
X239240142Y-70633674D01*
G37*
D12*
X238760000Y-71120000D03*
D11*
G36*
X238422642Y-92011174D02*
G01*
X238446303Y-92014684D01*
X238469507Y-92020496D01*
X238492029Y-92028554D01*
X238513653Y-92038782D01*
X238534170Y-92051079D01*
X238553383Y-92065329D01*
X238571107Y-92081393D01*
X238587171Y-92099117D01*
X238601421Y-92118330D01*
X238613718Y-92138847D01*
X238623946Y-92160471D01*
X238632004Y-92182993D01*
X238637816Y-92206197D01*
X238641326Y-92229858D01*
X238642500Y-92253750D01*
X238642500Y-93166250D01*
X238641326Y-93190142D01*
X238637816Y-93213803D01*
X238632004Y-93237007D01*
X238623946Y-93259529D01*
X238613718Y-93281153D01*
X238601421Y-93301670D01*
X238587171Y-93320883D01*
X238571107Y-93338607D01*
X238553383Y-93354671D01*
X238534170Y-93368921D01*
X238513653Y-93381218D01*
X238492029Y-93391446D01*
X238469507Y-93399504D01*
X238446303Y-93405316D01*
X238422642Y-93408826D01*
X238398750Y-93410000D01*
X237911250Y-93410000D01*
X237887358Y-93408826D01*
X237863697Y-93405316D01*
X237840493Y-93399504D01*
X237817971Y-93391446D01*
X237796347Y-93381218D01*
X237775830Y-93368921D01*
X237756617Y-93354671D01*
X237738893Y-93338607D01*
X237722829Y-93320883D01*
X237708579Y-93301670D01*
X237696282Y-93281153D01*
X237686054Y-93259529D01*
X237677996Y-93237007D01*
X237672184Y-93213803D01*
X237668674Y-93190142D01*
X237667500Y-93166250D01*
X237667500Y-92253750D01*
X237668674Y-92229858D01*
X237672184Y-92206197D01*
X237677996Y-92182993D01*
X237686054Y-92160471D01*
X237696282Y-92138847D01*
X237708579Y-92118330D01*
X237722829Y-92099117D01*
X237738893Y-92081393D01*
X237756617Y-92065329D01*
X237775830Y-92051079D01*
X237796347Y-92038782D01*
X237817971Y-92028554D01*
X237840493Y-92020496D01*
X237863697Y-92014684D01*
X237887358Y-92011174D01*
X237911250Y-92010000D01*
X238398750Y-92010000D01*
X238422642Y-92011174D01*
X238422642Y-92011174D01*
G37*
D12*
X238155000Y-92710000D03*
D11*
G36*
X240297642Y-92011174D02*
G01*
X240321303Y-92014684D01*
X240344507Y-92020496D01*
X240367029Y-92028554D01*
X240388653Y-92038782D01*
X240409170Y-92051079D01*
X240428383Y-92065329D01*
X240446107Y-92081393D01*
X240462171Y-92099117D01*
X240476421Y-92118330D01*
X240488718Y-92138847D01*
X240498946Y-92160471D01*
X240507004Y-92182993D01*
X240512816Y-92206197D01*
X240516326Y-92229858D01*
X240517500Y-92253750D01*
X240517500Y-93166250D01*
X240516326Y-93190142D01*
X240512816Y-93213803D01*
X240507004Y-93237007D01*
X240498946Y-93259529D01*
X240488718Y-93281153D01*
X240476421Y-93301670D01*
X240462171Y-93320883D01*
X240446107Y-93338607D01*
X240428383Y-93354671D01*
X240409170Y-93368921D01*
X240388653Y-93381218D01*
X240367029Y-93391446D01*
X240344507Y-93399504D01*
X240321303Y-93405316D01*
X240297642Y-93408826D01*
X240273750Y-93410000D01*
X239786250Y-93410000D01*
X239762358Y-93408826D01*
X239738697Y-93405316D01*
X239715493Y-93399504D01*
X239692971Y-93391446D01*
X239671347Y-93381218D01*
X239650830Y-93368921D01*
X239631617Y-93354671D01*
X239613893Y-93338607D01*
X239597829Y-93320883D01*
X239583579Y-93301670D01*
X239571282Y-93281153D01*
X239561054Y-93259529D01*
X239552996Y-93237007D01*
X239547184Y-93213803D01*
X239543674Y-93190142D01*
X239542500Y-93166250D01*
X239542500Y-92253750D01*
X239543674Y-92229858D01*
X239547184Y-92206197D01*
X239552996Y-92182993D01*
X239561054Y-92160471D01*
X239571282Y-92138847D01*
X239583579Y-92118330D01*
X239597829Y-92099117D01*
X239613893Y-92081393D01*
X239631617Y-92065329D01*
X239650830Y-92051079D01*
X239671347Y-92038782D01*
X239692971Y-92028554D01*
X239715493Y-92020496D01*
X239738697Y-92014684D01*
X239762358Y-92011174D01*
X239786250Y-92010000D01*
X240273750Y-92010000D01*
X240297642Y-92011174D01*
X240297642Y-92011174D01*
G37*
D12*
X240030000Y-92710000D03*
D11*
G36*
X226992642Y-78041174D02*
G01*
X227016303Y-78044684D01*
X227039507Y-78050496D01*
X227062029Y-78058554D01*
X227083653Y-78068782D01*
X227104170Y-78081079D01*
X227123383Y-78095329D01*
X227141107Y-78111393D01*
X227157171Y-78129117D01*
X227171421Y-78148330D01*
X227183718Y-78168847D01*
X227193946Y-78190471D01*
X227202004Y-78212993D01*
X227207816Y-78236197D01*
X227211326Y-78259858D01*
X227212500Y-78283750D01*
X227212500Y-79196250D01*
X227211326Y-79220142D01*
X227207816Y-79243803D01*
X227202004Y-79267007D01*
X227193946Y-79289529D01*
X227183718Y-79311153D01*
X227171421Y-79331670D01*
X227157171Y-79350883D01*
X227141107Y-79368607D01*
X227123383Y-79384671D01*
X227104170Y-79398921D01*
X227083653Y-79411218D01*
X227062029Y-79421446D01*
X227039507Y-79429504D01*
X227016303Y-79435316D01*
X226992642Y-79438826D01*
X226968750Y-79440000D01*
X226481250Y-79440000D01*
X226457358Y-79438826D01*
X226433697Y-79435316D01*
X226410493Y-79429504D01*
X226387971Y-79421446D01*
X226366347Y-79411218D01*
X226345830Y-79398921D01*
X226326617Y-79384671D01*
X226308893Y-79368607D01*
X226292829Y-79350883D01*
X226278579Y-79331670D01*
X226266282Y-79311153D01*
X226256054Y-79289529D01*
X226247996Y-79267007D01*
X226242184Y-79243803D01*
X226238674Y-79220142D01*
X226237500Y-79196250D01*
X226237500Y-78283750D01*
X226238674Y-78259858D01*
X226242184Y-78236197D01*
X226247996Y-78212993D01*
X226256054Y-78190471D01*
X226266282Y-78168847D01*
X226278579Y-78148330D01*
X226292829Y-78129117D01*
X226308893Y-78111393D01*
X226326617Y-78095329D01*
X226345830Y-78081079D01*
X226366347Y-78068782D01*
X226387971Y-78058554D01*
X226410493Y-78050496D01*
X226433697Y-78044684D01*
X226457358Y-78041174D01*
X226481250Y-78040000D01*
X226968750Y-78040000D01*
X226992642Y-78041174D01*
X226992642Y-78041174D01*
G37*
D12*
X226725000Y-78740000D03*
D11*
G36*
X228867642Y-78041174D02*
G01*
X228891303Y-78044684D01*
X228914507Y-78050496D01*
X228937029Y-78058554D01*
X228958653Y-78068782D01*
X228979170Y-78081079D01*
X228998383Y-78095329D01*
X229016107Y-78111393D01*
X229032171Y-78129117D01*
X229046421Y-78148330D01*
X229058718Y-78168847D01*
X229068946Y-78190471D01*
X229077004Y-78212993D01*
X229082816Y-78236197D01*
X229086326Y-78259858D01*
X229087500Y-78283750D01*
X229087500Y-79196250D01*
X229086326Y-79220142D01*
X229082816Y-79243803D01*
X229077004Y-79267007D01*
X229068946Y-79289529D01*
X229058718Y-79311153D01*
X229046421Y-79331670D01*
X229032171Y-79350883D01*
X229016107Y-79368607D01*
X228998383Y-79384671D01*
X228979170Y-79398921D01*
X228958653Y-79411218D01*
X228937029Y-79421446D01*
X228914507Y-79429504D01*
X228891303Y-79435316D01*
X228867642Y-79438826D01*
X228843750Y-79440000D01*
X228356250Y-79440000D01*
X228332358Y-79438826D01*
X228308697Y-79435316D01*
X228285493Y-79429504D01*
X228262971Y-79421446D01*
X228241347Y-79411218D01*
X228220830Y-79398921D01*
X228201617Y-79384671D01*
X228183893Y-79368607D01*
X228167829Y-79350883D01*
X228153579Y-79331670D01*
X228141282Y-79311153D01*
X228131054Y-79289529D01*
X228122996Y-79267007D01*
X228117184Y-79243803D01*
X228113674Y-79220142D01*
X228112500Y-79196250D01*
X228112500Y-78283750D01*
X228113674Y-78259858D01*
X228117184Y-78236197D01*
X228122996Y-78212993D01*
X228131054Y-78190471D01*
X228141282Y-78168847D01*
X228153579Y-78148330D01*
X228167829Y-78129117D01*
X228183893Y-78111393D01*
X228201617Y-78095329D01*
X228220830Y-78081079D01*
X228241347Y-78068782D01*
X228262971Y-78058554D01*
X228285493Y-78050496D01*
X228308697Y-78044684D01*
X228332358Y-78041174D01*
X228356250Y-78040000D01*
X228843750Y-78040000D01*
X228867642Y-78041174D01*
X228867642Y-78041174D01*
G37*
D12*
X228600000Y-78740000D03*
D11*
G36*
X230137642Y-89471174D02*
G01*
X230161303Y-89474684D01*
X230184507Y-89480496D01*
X230207029Y-89488554D01*
X230228653Y-89498782D01*
X230249170Y-89511079D01*
X230268383Y-89525329D01*
X230286107Y-89541393D01*
X230302171Y-89559117D01*
X230316421Y-89578330D01*
X230328718Y-89598847D01*
X230338946Y-89620471D01*
X230347004Y-89642993D01*
X230352816Y-89666197D01*
X230356326Y-89689858D01*
X230357500Y-89713750D01*
X230357500Y-90626250D01*
X230356326Y-90650142D01*
X230352816Y-90673803D01*
X230347004Y-90697007D01*
X230338946Y-90719529D01*
X230328718Y-90741153D01*
X230316421Y-90761670D01*
X230302171Y-90780883D01*
X230286107Y-90798607D01*
X230268383Y-90814671D01*
X230249170Y-90828921D01*
X230228653Y-90841218D01*
X230207029Y-90851446D01*
X230184507Y-90859504D01*
X230161303Y-90865316D01*
X230137642Y-90868826D01*
X230113750Y-90870000D01*
X229626250Y-90870000D01*
X229602358Y-90868826D01*
X229578697Y-90865316D01*
X229555493Y-90859504D01*
X229532971Y-90851446D01*
X229511347Y-90841218D01*
X229490830Y-90828921D01*
X229471617Y-90814671D01*
X229453893Y-90798607D01*
X229437829Y-90780883D01*
X229423579Y-90761670D01*
X229411282Y-90741153D01*
X229401054Y-90719529D01*
X229392996Y-90697007D01*
X229387184Y-90673803D01*
X229383674Y-90650142D01*
X229382500Y-90626250D01*
X229382500Y-89713750D01*
X229383674Y-89689858D01*
X229387184Y-89666197D01*
X229392996Y-89642993D01*
X229401054Y-89620471D01*
X229411282Y-89598847D01*
X229423579Y-89578330D01*
X229437829Y-89559117D01*
X229453893Y-89541393D01*
X229471617Y-89525329D01*
X229490830Y-89511079D01*
X229511347Y-89498782D01*
X229532971Y-89488554D01*
X229555493Y-89480496D01*
X229578697Y-89474684D01*
X229602358Y-89471174D01*
X229626250Y-89470000D01*
X230113750Y-89470000D01*
X230137642Y-89471174D01*
X230137642Y-89471174D01*
G37*
D12*
X229870000Y-90170000D03*
D11*
G36*
X228262642Y-89471174D02*
G01*
X228286303Y-89474684D01*
X228309507Y-89480496D01*
X228332029Y-89488554D01*
X228353653Y-89498782D01*
X228374170Y-89511079D01*
X228393383Y-89525329D01*
X228411107Y-89541393D01*
X228427171Y-89559117D01*
X228441421Y-89578330D01*
X228453718Y-89598847D01*
X228463946Y-89620471D01*
X228472004Y-89642993D01*
X228477816Y-89666197D01*
X228481326Y-89689858D01*
X228482500Y-89713750D01*
X228482500Y-90626250D01*
X228481326Y-90650142D01*
X228477816Y-90673803D01*
X228472004Y-90697007D01*
X228463946Y-90719529D01*
X228453718Y-90741153D01*
X228441421Y-90761670D01*
X228427171Y-90780883D01*
X228411107Y-90798607D01*
X228393383Y-90814671D01*
X228374170Y-90828921D01*
X228353653Y-90841218D01*
X228332029Y-90851446D01*
X228309507Y-90859504D01*
X228286303Y-90865316D01*
X228262642Y-90868826D01*
X228238750Y-90870000D01*
X227751250Y-90870000D01*
X227727358Y-90868826D01*
X227703697Y-90865316D01*
X227680493Y-90859504D01*
X227657971Y-90851446D01*
X227636347Y-90841218D01*
X227615830Y-90828921D01*
X227596617Y-90814671D01*
X227578893Y-90798607D01*
X227562829Y-90780883D01*
X227548579Y-90761670D01*
X227536282Y-90741153D01*
X227526054Y-90719529D01*
X227517996Y-90697007D01*
X227512184Y-90673803D01*
X227508674Y-90650142D01*
X227507500Y-90626250D01*
X227507500Y-89713750D01*
X227508674Y-89689858D01*
X227512184Y-89666197D01*
X227517996Y-89642993D01*
X227526054Y-89620471D01*
X227536282Y-89598847D01*
X227548579Y-89578330D01*
X227562829Y-89559117D01*
X227578893Y-89541393D01*
X227596617Y-89525329D01*
X227615830Y-89511079D01*
X227636347Y-89498782D01*
X227657971Y-89488554D01*
X227680493Y-89480496D01*
X227703697Y-89474684D01*
X227727358Y-89471174D01*
X227751250Y-89470000D01*
X228238750Y-89470000D01*
X228262642Y-89471174D01*
X228262642Y-89471174D01*
G37*
D12*
X227995000Y-90170000D03*
D11*
G36*
X212357642Y-114871174D02*
G01*
X212381303Y-114874684D01*
X212404507Y-114880496D01*
X212427029Y-114888554D01*
X212448653Y-114898782D01*
X212469170Y-114911079D01*
X212488383Y-114925329D01*
X212506107Y-114941393D01*
X212522171Y-114959117D01*
X212536421Y-114978330D01*
X212548718Y-114998847D01*
X212558946Y-115020471D01*
X212567004Y-115042993D01*
X212572816Y-115066197D01*
X212576326Y-115089858D01*
X212577500Y-115113750D01*
X212577500Y-116026250D01*
X212576326Y-116050142D01*
X212572816Y-116073803D01*
X212567004Y-116097007D01*
X212558946Y-116119529D01*
X212548718Y-116141153D01*
X212536421Y-116161670D01*
X212522171Y-116180883D01*
X212506107Y-116198607D01*
X212488383Y-116214671D01*
X212469170Y-116228921D01*
X212448653Y-116241218D01*
X212427029Y-116251446D01*
X212404507Y-116259504D01*
X212381303Y-116265316D01*
X212357642Y-116268826D01*
X212333750Y-116270000D01*
X211846250Y-116270000D01*
X211822358Y-116268826D01*
X211798697Y-116265316D01*
X211775493Y-116259504D01*
X211752971Y-116251446D01*
X211731347Y-116241218D01*
X211710830Y-116228921D01*
X211691617Y-116214671D01*
X211673893Y-116198607D01*
X211657829Y-116180883D01*
X211643579Y-116161670D01*
X211631282Y-116141153D01*
X211621054Y-116119529D01*
X211612996Y-116097007D01*
X211607184Y-116073803D01*
X211603674Y-116050142D01*
X211602500Y-116026250D01*
X211602500Y-115113750D01*
X211603674Y-115089858D01*
X211607184Y-115066197D01*
X211612996Y-115042993D01*
X211621054Y-115020471D01*
X211631282Y-114998847D01*
X211643579Y-114978330D01*
X211657829Y-114959117D01*
X211673893Y-114941393D01*
X211691617Y-114925329D01*
X211710830Y-114911079D01*
X211731347Y-114898782D01*
X211752971Y-114888554D01*
X211775493Y-114880496D01*
X211798697Y-114874684D01*
X211822358Y-114871174D01*
X211846250Y-114870000D01*
X212333750Y-114870000D01*
X212357642Y-114871174D01*
X212357642Y-114871174D01*
G37*
D12*
X212090000Y-115570000D03*
D11*
G36*
X210482642Y-114871174D02*
G01*
X210506303Y-114874684D01*
X210529507Y-114880496D01*
X210552029Y-114888554D01*
X210573653Y-114898782D01*
X210594170Y-114911079D01*
X210613383Y-114925329D01*
X210631107Y-114941393D01*
X210647171Y-114959117D01*
X210661421Y-114978330D01*
X210673718Y-114998847D01*
X210683946Y-115020471D01*
X210692004Y-115042993D01*
X210697816Y-115066197D01*
X210701326Y-115089858D01*
X210702500Y-115113750D01*
X210702500Y-116026250D01*
X210701326Y-116050142D01*
X210697816Y-116073803D01*
X210692004Y-116097007D01*
X210683946Y-116119529D01*
X210673718Y-116141153D01*
X210661421Y-116161670D01*
X210647171Y-116180883D01*
X210631107Y-116198607D01*
X210613383Y-116214671D01*
X210594170Y-116228921D01*
X210573653Y-116241218D01*
X210552029Y-116251446D01*
X210529507Y-116259504D01*
X210506303Y-116265316D01*
X210482642Y-116268826D01*
X210458750Y-116270000D01*
X209971250Y-116270000D01*
X209947358Y-116268826D01*
X209923697Y-116265316D01*
X209900493Y-116259504D01*
X209877971Y-116251446D01*
X209856347Y-116241218D01*
X209835830Y-116228921D01*
X209816617Y-116214671D01*
X209798893Y-116198607D01*
X209782829Y-116180883D01*
X209768579Y-116161670D01*
X209756282Y-116141153D01*
X209746054Y-116119529D01*
X209737996Y-116097007D01*
X209732184Y-116073803D01*
X209728674Y-116050142D01*
X209727500Y-116026250D01*
X209727500Y-115113750D01*
X209728674Y-115089858D01*
X209732184Y-115066197D01*
X209737996Y-115042993D01*
X209746054Y-115020471D01*
X209756282Y-114998847D01*
X209768579Y-114978330D01*
X209782829Y-114959117D01*
X209798893Y-114941393D01*
X209816617Y-114925329D01*
X209835830Y-114911079D01*
X209856347Y-114898782D01*
X209877971Y-114888554D01*
X209900493Y-114880496D01*
X209923697Y-114874684D01*
X209947358Y-114871174D01*
X209971250Y-114870000D01*
X210458750Y-114870000D01*
X210482642Y-114871174D01*
X210482642Y-114871174D01*
G37*
D12*
X210215000Y-115570000D03*
D11*
G36*
X245982642Y-72961174D02*
G01*
X246006303Y-72964684D01*
X246029507Y-72970496D01*
X246052029Y-72978554D01*
X246073653Y-72988782D01*
X246094170Y-73001079D01*
X246113383Y-73015329D01*
X246131107Y-73031393D01*
X246147171Y-73049117D01*
X246161421Y-73068330D01*
X246173718Y-73088847D01*
X246183946Y-73110471D01*
X246192004Y-73132993D01*
X246197816Y-73156197D01*
X246201326Y-73179858D01*
X246202500Y-73203750D01*
X246202500Y-74116250D01*
X246201326Y-74140142D01*
X246197816Y-74163803D01*
X246192004Y-74187007D01*
X246183946Y-74209529D01*
X246173718Y-74231153D01*
X246161421Y-74251670D01*
X246147171Y-74270883D01*
X246131107Y-74288607D01*
X246113383Y-74304671D01*
X246094170Y-74318921D01*
X246073653Y-74331218D01*
X246052029Y-74341446D01*
X246029507Y-74349504D01*
X246006303Y-74355316D01*
X245982642Y-74358826D01*
X245958750Y-74360000D01*
X245471250Y-74360000D01*
X245447358Y-74358826D01*
X245423697Y-74355316D01*
X245400493Y-74349504D01*
X245377971Y-74341446D01*
X245356347Y-74331218D01*
X245335830Y-74318921D01*
X245316617Y-74304671D01*
X245298893Y-74288607D01*
X245282829Y-74270883D01*
X245268579Y-74251670D01*
X245256282Y-74231153D01*
X245246054Y-74209529D01*
X245237996Y-74187007D01*
X245232184Y-74163803D01*
X245228674Y-74140142D01*
X245227500Y-74116250D01*
X245227500Y-73203750D01*
X245228674Y-73179858D01*
X245232184Y-73156197D01*
X245237996Y-73132993D01*
X245246054Y-73110471D01*
X245256282Y-73088847D01*
X245268579Y-73068330D01*
X245282829Y-73049117D01*
X245298893Y-73031393D01*
X245316617Y-73015329D01*
X245335830Y-73001079D01*
X245356347Y-72988782D01*
X245377971Y-72978554D01*
X245400493Y-72970496D01*
X245423697Y-72964684D01*
X245447358Y-72961174D01*
X245471250Y-72960000D01*
X245958750Y-72960000D01*
X245982642Y-72961174D01*
X245982642Y-72961174D01*
G37*
D12*
X245715000Y-73660000D03*
D11*
G36*
X244107642Y-72961174D02*
G01*
X244131303Y-72964684D01*
X244154507Y-72970496D01*
X244177029Y-72978554D01*
X244198653Y-72988782D01*
X244219170Y-73001079D01*
X244238383Y-73015329D01*
X244256107Y-73031393D01*
X244272171Y-73049117D01*
X244286421Y-73068330D01*
X244298718Y-73088847D01*
X244308946Y-73110471D01*
X244317004Y-73132993D01*
X244322816Y-73156197D01*
X244326326Y-73179858D01*
X244327500Y-73203750D01*
X244327500Y-74116250D01*
X244326326Y-74140142D01*
X244322816Y-74163803D01*
X244317004Y-74187007D01*
X244308946Y-74209529D01*
X244298718Y-74231153D01*
X244286421Y-74251670D01*
X244272171Y-74270883D01*
X244256107Y-74288607D01*
X244238383Y-74304671D01*
X244219170Y-74318921D01*
X244198653Y-74331218D01*
X244177029Y-74341446D01*
X244154507Y-74349504D01*
X244131303Y-74355316D01*
X244107642Y-74358826D01*
X244083750Y-74360000D01*
X243596250Y-74360000D01*
X243572358Y-74358826D01*
X243548697Y-74355316D01*
X243525493Y-74349504D01*
X243502971Y-74341446D01*
X243481347Y-74331218D01*
X243460830Y-74318921D01*
X243441617Y-74304671D01*
X243423893Y-74288607D01*
X243407829Y-74270883D01*
X243393579Y-74251670D01*
X243381282Y-74231153D01*
X243371054Y-74209529D01*
X243362996Y-74187007D01*
X243357184Y-74163803D01*
X243353674Y-74140142D01*
X243352500Y-74116250D01*
X243352500Y-73203750D01*
X243353674Y-73179858D01*
X243357184Y-73156197D01*
X243362996Y-73132993D01*
X243371054Y-73110471D01*
X243381282Y-73088847D01*
X243393579Y-73068330D01*
X243407829Y-73049117D01*
X243423893Y-73031393D01*
X243441617Y-73015329D01*
X243460830Y-73001079D01*
X243481347Y-72988782D01*
X243502971Y-72978554D01*
X243525493Y-72970496D01*
X243548697Y-72964684D01*
X243572358Y-72961174D01*
X243596250Y-72960000D01*
X244083750Y-72960000D01*
X244107642Y-72961174D01*
X244107642Y-72961174D01*
G37*
D12*
X243840000Y-73660000D03*
D11*
G36*
X252392642Y-94551174D02*
G01*
X252416303Y-94554684D01*
X252439507Y-94560496D01*
X252462029Y-94568554D01*
X252483653Y-94578782D01*
X252504170Y-94591079D01*
X252523383Y-94605329D01*
X252541107Y-94621393D01*
X252557171Y-94639117D01*
X252571421Y-94658330D01*
X252583718Y-94678847D01*
X252593946Y-94700471D01*
X252602004Y-94722993D01*
X252607816Y-94746197D01*
X252611326Y-94769858D01*
X252612500Y-94793750D01*
X252612500Y-95706250D01*
X252611326Y-95730142D01*
X252607816Y-95753803D01*
X252602004Y-95777007D01*
X252593946Y-95799529D01*
X252583718Y-95821153D01*
X252571421Y-95841670D01*
X252557171Y-95860883D01*
X252541107Y-95878607D01*
X252523383Y-95894671D01*
X252504170Y-95908921D01*
X252483653Y-95921218D01*
X252462029Y-95931446D01*
X252439507Y-95939504D01*
X252416303Y-95945316D01*
X252392642Y-95948826D01*
X252368750Y-95950000D01*
X251881250Y-95950000D01*
X251857358Y-95948826D01*
X251833697Y-95945316D01*
X251810493Y-95939504D01*
X251787971Y-95931446D01*
X251766347Y-95921218D01*
X251745830Y-95908921D01*
X251726617Y-95894671D01*
X251708893Y-95878607D01*
X251692829Y-95860883D01*
X251678579Y-95841670D01*
X251666282Y-95821153D01*
X251656054Y-95799529D01*
X251647996Y-95777007D01*
X251642184Y-95753803D01*
X251638674Y-95730142D01*
X251637500Y-95706250D01*
X251637500Y-94793750D01*
X251638674Y-94769858D01*
X251642184Y-94746197D01*
X251647996Y-94722993D01*
X251656054Y-94700471D01*
X251666282Y-94678847D01*
X251678579Y-94658330D01*
X251692829Y-94639117D01*
X251708893Y-94621393D01*
X251726617Y-94605329D01*
X251745830Y-94591079D01*
X251766347Y-94578782D01*
X251787971Y-94568554D01*
X251810493Y-94560496D01*
X251833697Y-94554684D01*
X251857358Y-94551174D01*
X251881250Y-94550000D01*
X252368750Y-94550000D01*
X252392642Y-94551174D01*
X252392642Y-94551174D01*
G37*
D12*
X252125000Y-95250000D03*
D11*
G36*
X254267642Y-94551174D02*
G01*
X254291303Y-94554684D01*
X254314507Y-94560496D01*
X254337029Y-94568554D01*
X254358653Y-94578782D01*
X254379170Y-94591079D01*
X254398383Y-94605329D01*
X254416107Y-94621393D01*
X254432171Y-94639117D01*
X254446421Y-94658330D01*
X254458718Y-94678847D01*
X254468946Y-94700471D01*
X254477004Y-94722993D01*
X254482816Y-94746197D01*
X254486326Y-94769858D01*
X254487500Y-94793750D01*
X254487500Y-95706250D01*
X254486326Y-95730142D01*
X254482816Y-95753803D01*
X254477004Y-95777007D01*
X254468946Y-95799529D01*
X254458718Y-95821153D01*
X254446421Y-95841670D01*
X254432171Y-95860883D01*
X254416107Y-95878607D01*
X254398383Y-95894671D01*
X254379170Y-95908921D01*
X254358653Y-95921218D01*
X254337029Y-95931446D01*
X254314507Y-95939504D01*
X254291303Y-95945316D01*
X254267642Y-95948826D01*
X254243750Y-95950000D01*
X253756250Y-95950000D01*
X253732358Y-95948826D01*
X253708697Y-95945316D01*
X253685493Y-95939504D01*
X253662971Y-95931446D01*
X253641347Y-95921218D01*
X253620830Y-95908921D01*
X253601617Y-95894671D01*
X253583893Y-95878607D01*
X253567829Y-95860883D01*
X253553579Y-95841670D01*
X253541282Y-95821153D01*
X253531054Y-95799529D01*
X253522996Y-95777007D01*
X253517184Y-95753803D01*
X253513674Y-95730142D01*
X253512500Y-95706250D01*
X253512500Y-94793750D01*
X253513674Y-94769858D01*
X253517184Y-94746197D01*
X253522996Y-94722993D01*
X253531054Y-94700471D01*
X253541282Y-94678847D01*
X253553579Y-94658330D01*
X253567829Y-94639117D01*
X253583893Y-94621393D01*
X253601617Y-94605329D01*
X253620830Y-94591079D01*
X253641347Y-94578782D01*
X253662971Y-94568554D01*
X253685493Y-94560496D01*
X253708697Y-94554684D01*
X253732358Y-94551174D01*
X253756250Y-94550000D01*
X254243750Y-94550000D01*
X254267642Y-94551174D01*
X254267642Y-94551174D01*
G37*
D12*
X254000000Y-95250000D03*
D11*
G36*
X223787642Y-94551174D02*
G01*
X223811303Y-94554684D01*
X223834507Y-94560496D01*
X223857029Y-94568554D01*
X223878653Y-94578782D01*
X223899170Y-94591079D01*
X223918383Y-94605329D01*
X223936107Y-94621393D01*
X223952171Y-94639117D01*
X223966421Y-94658330D01*
X223978718Y-94678847D01*
X223988946Y-94700471D01*
X223997004Y-94722993D01*
X224002816Y-94746197D01*
X224006326Y-94769858D01*
X224007500Y-94793750D01*
X224007500Y-95706250D01*
X224006326Y-95730142D01*
X224002816Y-95753803D01*
X223997004Y-95777007D01*
X223988946Y-95799529D01*
X223978718Y-95821153D01*
X223966421Y-95841670D01*
X223952171Y-95860883D01*
X223936107Y-95878607D01*
X223918383Y-95894671D01*
X223899170Y-95908921D01*
X223878653Y-95921218D01*
X223857029Y-95931446D01*
X223834507Y-95939504D01*
X223811303Y-95945316D01*
X223787642Y-95948826D01*
X223763750Y-95950000D01*
X223276250Y-95950000D01*
X223252358Y-95948826D01*
X223228697Y-95945316D01*
X223205493Y-95939504D01*
X223182971Y-95931446D01*
X223161347Y-95921218D01*
X223140830Y-95908921D01*
X223121617Y-95894671D01*
X223103893Y-95878607D01*
X223087829Y-95860883D01*
X223073579Y-95841670D01*
X223061282Y-95821153D01*
X223051054Y-95799529D01*
X223042996Y-95777007D01*
X223037184Y-95753803D01*
X223033674Y-95730142D01*
X223032500Y-95706250D01*
X223032500Y-94793750D01*
X223033674Y-94769858D01*
X223037184Y-94746197D01*
X223042996Y-94722993D01*
X223051054Y-94700471D01*
X223061282Y-94678847D01*
X223073579Y-94658330D01*
X223087829Y-94639117D01*
X223103893Y-94621393D01*
X223121617Y-94605329D01*
X223140830Y-94591079D01*
X223161347Y-94578782D01*
X223182971Y-94568554D01*
X223205493Y-94560496D01*
X223228697Y-94554684D01*
X223252358Y-94551174D01*
X223276250Y-94550000D01*
X223763750Y-94550000D01*
X223787642Y-94551174D01*
X223787642Y-94551174D01*
G37*
D12*
X223520000Y-95250000D03*
D11*
G36*
X221912642Y-94551174D02*
G01*
X221936303Y-94554684D01*
X221959507Y-94560496D01*
X221982029Y-94568554D01*
X222003653Y-94578782D01*
X222024170Y-94591079D01*
X222043383Y-94605329D01*
X222061107Y-94621393D01*
X222077171Y-94639117D01*
X222091421Y-94658330D01*
X222103718Y-94678847D01*
X222113946Y-94700471D01*
X222122004Y-94722993D01*
X222127816Y-94746197D01*
X222131326Y-94769858D01*
X222132500Y-94793750D01*
X222132500Y-95706250D01*
X222131326Y-95730142D01*
X222127816Y-95753803D01*
X222122004Y-95777007D01*
X222113946Y-95799529D01*
X222103718Y-95821153D01*
X222091421Y-95841670D01*
X222077171Y-95860883D01*
X222061107Y-95878607D01*
X222043383Y-95894671D01*
X222024170Y-95908921D01*
X222003653Y-95921218D01*
X221982029Y-95931446D01*
X221959507Y-95939504D01*
X221936303Y-95945316D01*
X221912642Y-95948826D01*
X221888750Y-95950000D01*
X221401250Y-95950000D01*
X221377358Y-95948826D01*
X221353697Y-95945316D01*
X221330493Y-95939504D01*
X221307971Y-95931446D01*
X221286347Y-95921218D01*
X221265830Y-95908921D01*
X221246617Y-95894671D01*
X221228893Y-95878607D01*
X221212829Y-95860883D01*
X221198579Y-95841670D01*
X221186282Y-95821153D01*
X221176054Y-95799529D01*
X221167996Y-95777007D01*
X221162184Y-95753803D01*
X221158674Y-95730142D01*
X221157500Y-95706250D01*
X221157500Y-94793750D01*
X221158674Y-94769858D01*
X221162184Y-94746197D01*
X221167996Y-94722993D01*
X221176054Y-94700471D01*
X221186282Y-94678847D01*
X221198579Y-94658330D01*
X221212829Y-94639117D01*
X221228893Y-94621393D01*
X221246617Y-94605329D01*
X221265830Y-94591079D01*
X221286347Y-94578782D01*
X221307971Y-94568554D01*
X221330493Y-94560496D01*
X221353697Y-94554684D01*
X221377358Y-94551174D01*
X221401250Y-94550000D01*
X221888750Y-94550000D01*
X221912642Y-94551174D01*
X221912642Y-94551174D01*
G37*
D12*
X221645000Y-95250000D03*
D11*
G36*
X238422642Y-112331174D02*
G01*
X238446303Y-112334684D01*
X238469507Y-112340496D01*
X238492029Y-112348554D01*
X238513653Y-112358782D01*
X238534170Y-112371079D01*
X238553383Y-112385329D01*
X238571107Y-112401393D01*
X238587171Y-112419117D01*
X238601421Y-112438330D01*
X238613718Y-112458847D01*
X238623946Y-112480471D01*
X238632004Y-112502993D01*
X238637816Y-112526197D01*
X238641326Y-112549858D01*
X238642500Y-112573750D01*
X238642500Y-113486250D01*
X238641326Y-113510142D01*
X238637816Y-113533803D01*
X238632004Y-113557007D01*
X238623946Y-113579529D01*
X238613718Y-113601153D01*
X238601421Y-113621670D01*
X238587171Y-113640883D01*
X238571107Y-113658607D01*
X238553383Y-113674671D01*
X238534170Y-113688921D01*
X238513653Y-113701218D01*
X238492029Y-113711446D01*
X238469507Y-113719504D01*
X238446303Y-113725316D01*
X238422642Y-113728826D01*
X238398750Y-113730000D01*
X237911250Y-113730000D01*
X237887358Y-113728826D01*
X237863697Y-113725316D01*
X237840493Y-113719504D01*
X237817971Y-113711446D01*
X237796347Y-113701218D01*
X237775830Y-113688921D01*
X237756617Y-113674671D01*
X237738893Y-113658607D01*
X237722829Y-113640883D01*
X237708579Y-113621670D01*
X237696282Y-113601153D01*
X237686054Y-113579529D01*
X237677996Y-113557007D01*
X237672184Y-113533803D01*
X237668674Y-113510142D01*
X237667500Y-113486250D01*
X237667500Y-112573750D01*
X237668674Y-112549858D01*
X237672184Y-112526197D01*
X237677996Y-112502993D01*
X237686054Y-112480471D01*
X237696282Y-112458847D01*
X237708579Y-112438330D01*
X237722829Y-112419117D01*
X237738893Y-112401393D01*
X237756617Y-112385329D01*
X237775830Y-112371079D01*
X237796347Y-112358782D01*
X237817971Y-112348554D01*
X237840493Y-112340496D01*
X237863697Y-112334684D01*
X237887358Y-112331174D01*
X237911250Y-112330000D01*
X238398750Y-112330000D01*
X238422642Y-112331174D01*
X238422642Y-112331174D01*
G37*
D12*
X238155000Y-113030000D03*
D11*
G36*
X240297642Y-112331174D02*
G01*
X240321303Y-112334684D01*
X240344507Y-112340496D01*
X240367029Y-112348554D01*
X240388653Y-112358782D01*
X240409170Y-112371079D01*
X240428383Y-112385329D01*
X240446107Y-112401393D01*
X240462171Y-112419117D01*
X240476421Y-112438330D01*
X240488718Y-112458847D01*
X240498946Y-112480471D01*
X240507004Y-112502993D01*
X240512816Y-112526197D01*
X240516326Y-112549858D01*
X240517500Y-112573750D01*
X240517500Y-113486250D01*
X240516326Y-113510142D01*
X240512816Y-113533803D01*
X240507004Y-113557007D01*
X240498946Y-113579529D01*
X240488718Y-113601153D01*
X240476421Y-113621670D01*
X240462171Y-113640883D01*
X240446107Y-113658607D01*
X240428383Y-113674671D01*
X240409170Y-113688921D01*
X240388653Y-113701218D01*
X240367029Y-113711446D01*
X240344507Y-113719504D01*
X240321303Y-113725316D01*
X240297642Y-113728826D01*
X240273750Y-113730000D01*
X239786250Y-113730000D01*
X239762358Y-113728826D01*
X239738697Y-113725316D01*
X239715493Y-113719504D01*
X239692971Y-113711446D01*
X239671347Y-113701218D01*
X239650830Y-113688921D01*
X239631617Y-113674671D01*
X239613893Y-113658607D01*
X239597829Y-113640883D01*
X239583579Y-113621670D01*
X239571282Y-113601153D01*
X239561054Y-113579529D01*
X239552996Y-113557007D01*
X239547184Y-113533803D01*
X239543674Y-113510142D01*
X239542500Y-113486250D01*
X239542500Y-112573750D01*
X239543674Y-112549858D01*
X239547184Y-112526197D01*
X239552996Y-112502993D01*
X239561054Y-112480471D01*
X239571282Y-112458847D01*
X239583579Y-112438330D01*
X239597829Y-112419117D01*
X239613893Y-112401393D01*
X239631617Y-112385329D01*
X239650830Y-112371079D01*
X239671347Y-112358782D01*
X239692971Y-112348554D01*
X239715493Y-112340496D01*
X239738697Y-112334684D01*
X239762358Y-112331174D01*
X239786250Y-112330000D01*
X240273750Y-112330000D01*
X240297642Y-112331174D01*
X240297642Y-112331174D01*
G37*
D12*
X240030000Y-113030000D03*
D11*
G36*
X231740142Y-72961174D02*
G01*
X231763803Y-72964684D01*
X231787007Y-72970496D01*
X231809529Y-72978554D01*
X231831153Y-72988782D01*
X231851670Y-73001079D01*
X231870883Y-73015329D01*
X231888607Y-73031393D01*
X231904671Y-73049117D01*
X231918921Y-73068330D01*
X231931218Y-73088847D01*
X231941446Y-73110471D01*
X231949504Y-73132993D01*
X231955316Y-73156197D01*
X231958826Y-73179858D01*
X231960000Y-73203750D01*
X231960000Y-74116250D01*
X231958826Y-74140142D01*
X231955316Y-74163803D01*
X231949504Y-74187007D01*
X231941446Y-74209529D01*
X231931218Y-74231153D01*
X231918921Y-74251670D01*
X231904671Y-74270883D01*
X231888607Y-74288607D01*
X231870883Y-74304671D01*
X231851670Y-74318921D01*
X231831153Y-74331218D01*
X231809529Y-74341446D01*
X231787007Y-74349504D01*
X231763803Y-74355316D01*
X231740142Y-74358826D01*
X231716250Y-74360000D01*
X231228750Y-74360000D01*
X231204858Y-74358826D01*
X231181197Y-74355316D01*
X231157993Y-74349504D01*
X231135471Y-74341446D01*
X231113847Y-74331218D01*
X231093330Y-74318921D01*
X231074117Y-74304671D01*
X231056393Y-74288607D01*
X231040329Y-74270883D01*
X231026079Y-74251670D01*
X231013782Y-74231153D01*
X231003554Y-74209529D01*
X230995496Y-74187007D01*
X230989684Y-74163803D01*
X230986174Y-74140142D01*
X230985000Y-74116250D01*
X230985000Y-73203750D01*
X230986174Y-73179858D01*
X230989684Y-73156197D01*
X230995496Y-73132993D01*
X231003554Y-73110471D01*
X231013782Y-73088847D01*
X231026079Y-73068330D01*
X231040329Y-73049117D01*
X231056393Y-73031393D01*
X231074117Y-73015329D01*
X231093330Y-73001079D01*
X231113847Y-72988782D01*
X231135471Y-72978554D01*
X231157993Y-72970496D01*
X231181197Y-72964684D01*
X231204858Y-72961174D01*
X231228750Y-72960000D01*
X231716250Y-72960000D01*
X231740142Y-72961174D01*
X231740142Y-72961174D01*
G37*
D12*
X231472500Y-73660000D03*
D11*
G36*
X233615142Y-72961174D02*
G01*
X233638803Y-72964684D01*
X233662007Y-72970496D01*
X233684529Y-72978554D01*
X233706153Y-72988782D01*
X233726670Y-73001079D01*
X233745883Y-73015329D01*
X233763607Y-73031393D01*
X233779671Y-73049117D01*
X233793921Y-73068330D01*
X233806218Y-73088847D01*
X233816446Y-73110471D01*
X233824504Y-73132993D01*
X233830316Y-73156197D01*
X233833826Y-73179858D01*
X233835000Y-73203750D01*
X233835000Y-74116250D01*
X233833826Y-74140142D01*
X233830316Y-74163803D01*
X233824504Y-74187007D01*
X233816446Y-74209529D01*
X233806218Y-74231153D01*
X233793921Y-74251670D01*
X233779671Y-74270883D01*
X233763607Y-74288607D01*
X233745883Y-74304671D01*
X233726670Y-74318921D01*
X233706153Y-74331218D01*
X233684529Y-74341446D01*
X233662007Y-74349504D01*
X233638803Y-74355316D01*
X233615142Y-74358826D01*
X233591250Y-74360000D01*
X233103750Y-74360000D01*
X233079858Y-74358826D01*
X233056197Y-74355316D01*
X233032993Y-74349504D01*
X233010471Y-74341446D01*
X232988847Y-74331218D01*
X232968330Y-74318921D01*
X232949117Y-74304671D01*
X232931393Y-74288607D01*
X232915329Y-74270883D01*
X232901079Y-74251670D01*
X232888782Y-74231153D01*
X232878554Y-74209529D01*
X232870496Y-74187007D01*
X232864684Y-74163803D01*
X232861174Y-74140142D01*
X232860000Y-74116250D01*
X232860000Y-73203750D01*
X232861174Y-73179858D01*
X232864684Y-73156197D01*
X232870496Y-73132993D01*
X232878554Y-73110471D01*
X232888782Y-73088847D01*
X232901079Y-73068330D01*
X232915329Y-73049117D01*
X232931393Y-73031393D01*
X232949117Y-73015329D01*
X232968330Y-73001079D01*
X232988847Y-72988782D01*
X233010471Y-72978554D01*
X233032993Y-72970496D01*
X233056197Y-72964684D01*
X233079858Y-72961174D01*
X233103750Y-72960000D01*
X233591250Y-72960000D01*
X233615142Y-72961174D01*
X233615142Y-72961174D01*
G37*
D12*
X233347500Y-73660000D03*
D11*
G36*
X248250142Y-78041174D02*
G01*
X248273803Y-78044684D01*
X248297007Y-78050496D01*
X248319529Y-78058554D01*
X248341153Y-78068782D01*
X248361670Y-78081079D01*
X248380883Y-78095329D01*
X248398607Y-78111393D01*
X248414671Y-78129117D01*
X248428921Y-78148330D01*
X248441218Y-78168847D01*
X248451446Y-78190471D01*
X248459504Y-78212993D01*
X248465316Y-78236197D01*
X248468826Y-78259858D01*
X248470000Y-78283750D01*
X248470000Y-79196250D01*
X248468826Y-79220142D01*
X248465316Y-79243803D01*
X248459504Y-79267007D01*
X248451446Y-79289529D01*
X248441218Y-79311153D01*
X248428921Y-79331670D01*
X248414671Y-79350883D01*
X248398607Y-79368607D01*
X248380883Y-79384671D01*
X248361670Y-79398921D01*
X248341153Y-79411218D01*
X248319529Y-79421446D01*
X248297007Y-79429504D01*
X248273803Y-79435316D01*
X248250142Y-79438826D01*
X248226250Y-79440000D01*
X247738750Y-79440000D01*
X247714858Y-79438826D01*
X247691197Y-79435316D01*
X247667993Y-79429504D01*
X247645471Y-79421446D01*
X247623847Y-79411218D01*
X247603330Y-79398921D01*
X247584117Y-79384671D01*
X247566393Y-79368607D01*
X247550329Y-79350883D01*
X247536079Y-79331670D01*
X247523782Y-79311153D01*
X247513554Y-79289529D01*
X247505496Y-79267007D01*
X247499684Y-79243803D01*
X247496174Y-79220142D01*
X247495000Y-79196250D01*
X247495000Y-78283750D01*
X247496174Y-78259858D01*
X247499684Y-78236197D01*
X247505496Y-78212993D01*
X247513554Y-78190471D01*
X247523782Y-78168847D01*
X247536079Y-78148330D01*
X247550329Y-78129117D01*
X247566393Y-78111393D01*
X247584117Y-78095329D01*
X247603330Y-78081079D01*
X247623847Y-78068782D01*
X247645471Y-78058554D01*
X247667993Y-78050496D01*
X247691197Y-78044684D01*
X247714858Y-78041174D01*
X247738750Y-78040000D01*
X248226250Y-78040000D01*
X248250142Y-78041174D01*
X248250142Y-78041174D01*
G37*
D12*
X247982500Y-78740000D03*
D11*
G36*
X250125142Y-78041174D02*
G01*
X250148803Y-78044684D01*
X250172007Y-78050496D01*
X250194529Y-78058554D01*
X250216153Y-78068782D01*
X250236670Y-78081079D01*
X250255883Y-78095329D01*
X250273607Y-78111393D01*
X250289671Y-78129117D01*
X250303921Y-78148330D01*
X250316218Y-78168847D01*
X250326446Y-78190471D01*
X250334504Y-78212993D01*
X250340316Y-78236197D01*
X250343826Y-78259858D01*
X250345000Y-78283750D01*
X250345000Y-79196250D01*
X250343826Y-79220142D01*
X250340316Y-79243803D01*
X250334504Y-79267007D01*
X250326446Y-79289529D01*
X250316218Y-79311153D01*
X250303921Y-79331670D01*
X250289671Y-79350883D01*
X250273607Y-79368607D01*
X250255883Y-79384671D01*
X250236670Y-79398921D01*
X250216153Y-79411218D01*
X250194529Y-79421446D01*
X250172007Y-79429504D01*
X250148803Y-79435316D01*
X250125142Y-79438826D01*
X250101250Y-79440000D01*
X249613750Y-79440000D01*
X249589858Y-79438826D01*
X249566197Y-79435316D01*
X249542993Y-79429504D01*
X249520471Y-79421446D01*
X249498847Y-79411218D01*
X249478330Y-79398921D01*
X249459117Y-79384671D01*
X249441393Y-79368607D01*
X249425329Y-79350883D01*
X249411079Y-79331670D01*
X249398782Y-79311153D01*
X249388554Y-79289529D01*
X249380496Y-79267007D01*
X249374684Y-79243803D01*
X249371174Y-79220142D01*
X249370000Y-79196250D01*
X249370000Y-78283750D01*
X249371174Y-78259858D01*
X249374684Y-78236197D01*
X249380496Y-78212993D01*
X249388554Y-78190471D01*
X249398782Y-78168847D01*
X249411079Y-78148330D01*
X249425329Y-78129117D01*
X249441393Y-78111393D01*
X249459117Y-78095329D01*
X249478330Y-78081079D01*
X249498847Y-78068782D01*
X249520471Y-78058554D01*
X249542993Y-78050496D01*
X249566197Y-78044684D01*
X249589858Y-78041174D01*
X249613750Y-78040000D01*
X250101250Y-78040000D01*
X250125142Y-78041174D01*
X250125142Y-78041174D01*
G37*
D12*
X249857500Y-78740000D03*
D11*
G36*
X250457642Y-89471174D02*
G01*
X250481303Y-89474684D01*
X250504507Y-89480496D01*
X250527029Y-89488554D01*
X250548653Y-89498782D01*
X250569170Y-89511079D01*
X250588383Y-89525329D01*
X250606107Y-89541393D01*
X250622171Y-89559117D01*
X250636421Y-89578330D01*
X250648718Y-89598847D01*
X250658946Y-89620471D01*
X250667004Y-89642993D01*
X250672816Y-89666197D01*
X250676326Y-89689858D01*
X250677500Y-89713750D01*
X250677500Y-90626250D01*
X250676326Y-90650142D01*
X250672816Y-90673803D01*
X250667004Y-90697007D01*
X250658946Y-90719529D01*
X250648718Y-90741153D01*
X250636421Y-90761670D01*
X250622171Y-90780883D01*
X250606107Y-90798607D01*
X250588383Y-90814671D01*
X250569170Y-90828921D01*
X250548653Y-90841218D01*
X250527029Y-90851446D01*
X250504507Y-90859504D01*
X250481303Y-90865316D01*
X250457642Y-90868826D01*
X250433750Y-90870000D01*
X249946250Y-90870000D01*
X249922358Y-90868826D01*
X249898697Y-90865316D01*
X249875493Y-90859504D01*
X249852971Y-90851446D01*
X249831347Y-90841218D01*
X249810830Y-90828921D01*
X249791617Y-90814671D01*
X249773893Y-90798607D01*
X249757829Y-90780883D01*
X249743579Y-90761670D01*
X249731282Y-90741153D01*
X249721054Y-90719529D01*
X249712996Y-90697007D01*
X249707184Y-90673803D01*
X249703674Y-90650142D01*
X249702500Y-90626250D01*
X249702500Y-89713750D01*
X249703674Y-89689858D01*
X249707184Y-89666197D01*
X249712996Y-89642993D01*
X249721054Y-89620471D01*
X249731282Y-89598847D01*
X249743579Y-89578330D01*
X249757829Y-89559117D01*
X249773893Y-89541393D01*
X249791617Y-89525329D01*
X249810830Y-89511079D01*
X249831347Y-89498782D01*
X249852971Y-89488554D01*
X249875493Y-89480496D01*
X249898697Y-89474684D01*
X249922358Y-89471174D01*
X249946250Y-89470000D01*
X250433750Y-89470000D01*
X250457642Y-89471174D01*
X250457642Y-89471174D01*
G37*
D12*
X250190000Y-90170000D03*
D11*
G36*
X248582642Y-89471174D02*
G01*
X248606303Y-89474684D01*
X248629507Y-89480496D01*
X248652029Y-89488554D01*
X248673653Y-89498782D01*
X248694170Y-89511079D01*
X248713383Y-89525329D01*
X248731107Y-89541393D01*
X248747171Y-89559117D01*
X248761421Y-89578330D01*
X248773718Y-89598847D01*
X248783946Y-89620471D01*
X248792004Y-89642993D01*
X248797816Y-89666197D01*
X248801326Y-89689858D01*
X248802500Y-89713750D01*
X248802500Y-90626250D01*
X248801326Y-90650142D01*
X248797816Y-90673803D01*
X248792004Y-90697007D01*
X248783946Y-90719529D01*
X248773718Y-90741153D01*
X248761421Y-90761670D01*
X248747171Y-90780883D01*
X248731107Y-90798607D01*
X248713383Y-90814671D01*
X248694170Y-90828921D01*
X248673653Y-90841218D01*
X248652029Y-90851446D01*
X248629507Y-90859504D01*
X248606303Y-90865316D01*
X248582642Y-90868826D01*
X248558750Y-90870000D01*
X248071250Y-90870000D01*
X248047358Y-90868826D01*
X248023697Y-90865316D01*
X248000493Y-90859504D01*
X247977971Y-90851446D01*
X247956347Y-90841218D01*
X247935830Y-90828921D01*
X247916617Y-90814671D01*
X247898893Y-90798607D01*
X247882829Y-90780883D01*
X247868579Y-90761670D01*
X247856282Y-90741153D01*
X247846054Y-90719529D01*
X247837996Y-90697007D01*
X247832184Y-90673803D01*
X247828674Y-90650142D01*
X247827500Y-90626250D01*
X247827500Y-89713750D01*
X247828674Y-89689858D01*
X247832184Y-89666197D01*
X247837996Y-89642993D01*
X247846054Y-89620471D01*
X247856282Y-89598847D01*
X247868579Y-89578330D01*
X247882829Y-89559117D01*
X247898893Y-89541393D01*
X247916617Y-89525329D01*
X247935830Y-89511079D01*
X247956347Y-89498782D01*
X247977971Y-89488554D01*
X248000493Y-89480496D01*
X248023697Y-89474684D01*
X248047358Y-89471174D01*
X248071250Y-89470000D01*
X248558750Y-89470000D01*
X248582642Y-89471174D01*
X248582642Y-89471174D01*
G37*
D12*
X248315000Y-90170000D03*
D11*
G36*
X266362642Y-116141174D02*
G01*
X266386303Y-116144684D01*
X266409507Y-116150496D01*
X266432029Y-116158554D01*
X266453653Y-116168782D01*
X266474170Y-116181079D01*
X266493383Y-116195329D01*
X266511107Y-116211393D01*
X266527171Y-116229117D01*
X266541421Y-116248330D01*
X266553718Y-116268847D01*
X266563946Y-116290471D01*
X266572004Y-116312993D01*
X266577816Y-116336197D01*
X266581326Y-116359858D01*
X266582500Y-116383750D01*
X266582500Y-117296250D01*
X266581326Y-117320142D01*
X266577816Y-117343803D01*
X266572004Y-117367007D01*
X266563946Y-117389529D01*
X266553718Y-117411153D01*
X266541421Y-117431670D01*
X266527171Y-117450883D01*
X266511107Y-117468607D01*
X266493383Y-117484671D01*
X266474170Y-117498921D01*
X266453653Y-117511218D01*
X266432029Y-117521446D01*
X266409507Y-117529504D01*
X266386303Y-117535316D01*
X266362642Y-117538826D01*
X266338750Y-117540000D01*
X265851250Y-117540000D01*
X265827358Y-117538826D01*
X265803697Y-117535316D01*
X265780493Y-117529504D01*
X265757971Y-117521446D01*
X265736347Y-117511218D01*
X265715830Y-117498921D01*
X265696617Y-117484671D01*
X265678893Y-117468607D01*
X265662829Y-117450883D01*
X265648579Y-117431670D01*
X265636282Y-117411153D01*
X265626054Y-117389529D01*
X265617996Y-117367007D01*
X265612184Y-117343803D01*
X265608674Y-117320142D01*
X265607500Y-117296250D01*
X265607500Y-116383750D01*
X265608674Y-116359858D01*
X265612184Y-116336197D01*
X265617996Y-116312993D01*
X265626054Y-116290471D01*
X265636282Y-116268847D01*
X265648579Y-116248330D01*
X265662829Y-116229117D01*
X265678893Y-116211393D01*
X265696617Y-116195329D01*
X265715830Y-116181079D01*
X265736347Y-116168782D01*
X265757971Y-116158554D01*
X265780493Y-116150496D01*
X265803697Y-116144684D01*
X265827358Y-116141174D01*
X265851250Y-116140000D01*
X266338750Y-116140000D01*
X266362642Y-116141174D01*
X266362642Y-116141174D01*
G37*
D12*
X266095000Y-116840000D03*
D11*
G36*
X268237642Y-116141174D02*
G01*
X268261303Y-116144684D01*
X268284507Y-116150496D01*
X268307029Y-116158554D01*
X268328653Y-116168782D01*
X268349170Y-116181079D01*
X268368383Y-116195329D01*
X268386107Y-116211393D01*
X268402171Y-116229117D01*
X268416421Y-116248330D01*
X268428718Y-116268847D01*
X268438946Y-116290471D01*
X268447004Y-116312993D01*
X268452816Y-116336197D01*
X268456326Y-116359858D01*
X268457500Y-116383750D01*
X268457500Y-117296250D01*
X268456326Y-117320142D01*
X268452816Y-117343803D01*
X268447004Y-117367007D01*
X268438946Y-117389529D01*
X268428718Y-117411153D01*
X268416421Y-117431670D01*
X268402171Y-117450883D01*
X268386107Y-117468607D01*
X268368383Y-117484671D01*
X268349170Y-117498921D01*
X268328653Y-117511218D01*
X268307029Y-117521446D01*
X268284507Y-117529504D01*
X268261303Y-117535316D01*
X268237642Y-117538826D01*
X268213750Y-117540000D01*
X267726250Y-117540000D01*
X267702358Y-117538826D01*
X267678697Y-117535316D01*
X267655493Y-117529504D01*
X267632971Y-117521446D01*
X267611347Y-117511218D01*
X267590830Y-117498921D01*
X267571617Y-117484671D01*
X267553893Y-117468607D01*
X267537829Y-117450883D01*
X267523579Y-117431670D01*
X267511282Y-117411153D01*
X267501054Y-117389529D01*
X267492996Y-117367007D01*
X267487184Y-117343803D01*
X267483674Y-117320142D01*
X267482500Y-117296250D01*
X267482500Y-116383750D01*
X267483674Y-116359858D01*
X267487184Y-116336197D01*
X267492996Y-116312993D01*
X267501054Y-116290471D01*
X267511282Y-116268847D01*
X267523579Y-116248330D01*
X267537829Y-116229117D01*
X267553893Y-116211393D01*
X267571617Y-116195329D01*
X267590830Y-116181079D01*
X267611347Y-116168782D01*
X267632971Y-116158554D01*
X267655493Y-116150496D01*
X267678697Y-116144684D01*
X267702358Y-116141174D01*
X267726250Y-116140000D01*
X268213750Y-116140000D01*
X268237642Y-116141174D01*
X268237642Y-116141174D01*
G37*
D12*
X267970000Y-116840000D03*
D11*
G36*
X240297642Y-85661174D02*
G01*
X240321303Y-85664684D01*
X240344507Y-85670496D01*
X240367029Y-85678554D01*
X240388653Y-85688782D01*
X240409170Y-85701079D01*
X240428383Y-85715329D01*
X240446107Y-85731393D01*
X240462171Y-85749117D01*
X240476421Y-85768330D01*
X240488718Y-85788847D01*
X240498946Y-85810471D01*
X240507004Y-85832993D01*
X240512816Y-85856197D01*
X240516326Y-85879858D01*
X240517500Y-85903750D01*
X240517500Y-86816250D01*
X240516326Y-86840142D01*
X240512816Y-86863803D01*
X240507004Y-86887007D01*
X240498946Y-86909529D01*
X240488718Y-86931153D01*
X240476421Y-86951670D01*
X240462171Y-86970883D01*
X240446107Y-86988607D01*
X240428383Y-87004671D01*
X240409170Y-87018921D01*
X240388653Y-87031218D01*
X240367029Y-87041446D01*
X240344507Y-87049504D01*
X240321303Y-87055316D01*
X240297642Y-87058826D01*
X240273750Y-87060000D01*
X239786250Y-87060000D01*
X239762358Y-87058826D01*
X239738697Y-87055316D01*
X239715493Y-87049504D01*
X239692971Y-87041446D01*
X239671347Y-87031218D01*
X239650830Y-87018921D01*
X239631617Y-87004671D01*
X239613893Y-86988607D01*
X239597829Y-86970883D01*
X239583579Y-86951670D01*
X239571282Y-86931153D01*
X239561054Y-86909529D01*
X239552996Y-86887007D01*
X239547184Y-86863803D01*
X239543674Y-86840142D01*
X239542500Y-86816250D01*
X239542500Y-85903750D01*
X239543674Y-85879858D01*
X239547184Y-85856197D01*
X239552996Y-85832993D01*
X239561054Y-85810471D01*
X239571282Y-85788847D01*
X239583579Y-85768330D01*
X239597829Y-85749117D01*
X239613893Y-85731393D01*
X239631617Y-85715329D01*
X239650830Y-85701079D01*
X239671347Y-85688782D01*
X239692971Y-85678554D01*
X239715493Y-85670496D01*
X239738697Y-85664684D01*
X239762358Y-85661174D01*
X239786250Y-85660000D01*
X240273750Y-85660000D01*
X240297642Y-85661174D01*
X240297642Y-85661174D01*
G37*
D12*
X240030000Y-86360000D03*
D11*
G36*
X238422642Y-85661174D02*
G01*
X238446303Y-85664684D01*
X238469507Y-85670496D01*
X238492029Y-85678554D01*
X238513653Y-85688782D01*
X238534170Y-85701079D01*
X238553383Y-85715329D01*
X238571107Y-85731393D01*
X238587171Y-85749117D01*
X238601421Y-85768330D01*
X238613718Y-85788847D01*
X238623946Y-85810471D01*
X238632004Y-85832993D01*
X238637816Y-85856197D01*
X238641326Y-85879858D01*
X238642500Y-85903750D01*
X238642500Y-86816250D01*
X238641326Y-86840142D01*
X238637816Y-86863803D01*
X238632004Y-86887007D01*
X238623946Y-86909529D01*
X238613718Y-86931153D01*
X238601421Y-86951670D01*
X238587171Y-86970883D01*
X238571107Y-86988607D01*
X238553383Y-87004671D01*
X238534170Y-87018921D01*
X238513653Y-87031218D01*
X238492029Y-87041446D01*
X238469507Y-87049504D01*
X238446303Y-87055316D01*
X238422642Y-87058826D01*
X238398750Y-87060000D01*
X237911250Y-87060000D01*
X237887358Y-87058826D01*
X237863697Y-87055316D01*
X237840493Y-87049504D01*
X237817971Y-87041446D01*
X237796347Y-87031218D01*
X237775830Y-87018921D01*
X237756617Y-87004671D01*
X237738893Y-86988607D01*
X237722829Y-86970883D01*
X237708579Y-86951670D01*
X237696282Y-86931153D01*
X237686054Y-86909529D01*
X237677996Y-86887007D01*
X237672184Y-86863803D01*
X237668674Y-86840142D01*
X237667500Y-86816250D01*
X237667500Y-85903750D01*
X237668674Y-85879858D01*
X237672184Y-85856197D01*
X237677996Y-85832993D01*
X237686054Y-85810471D01*
X237696282Y-85788847D01*
X237708579Y-85768330D01*
X237722829Y-85749117D01*
X237738893Y-85731393D01*
X237756617Y-85715329D01*
X237775830Y-85701079D01*
X237796347Y-85688782D01*
X237817971Y-85678554D01*
X237840493Y-85670496D01*
X237863697Y-85664684D01*
X237887358Y-85661174D01*
X237911250Y-85660000D01*
X238398750Y-85660000D01*
X238422642Y-85661174D01*
X238422642Y-85661174D01*
G37*
D12*
X238155000Y-86360000D03*
D13*
X234785000Y-139990000D03*
X242735000Y-139990000D03*
X234785000Y-144490000D03*
X242735000Y-144490000D03*
D14*
X236285000Y-127635000D03*
X236285000Y-128905000D03*
X236285000Y-130175000D03*
X236285000Y-131445000D03*
X241235000Y-131445000D03*
X241235000Y-130175000D03*
X241235000Y-128905000D03*
X241235000Y-127635000D03*
M02*
